STARTFONT  2.1
FONT 
FONTBOUNDINGBOX 14 16 0 -3
STARTPROPERTIES 2
FONT_ASCENT 16
FONT_DESCENT 0
FOUNDRY 
WEIGHT_NAME 
SLANT 
SETWIDTH_NAME 
ADD_STYLE_NAME 
CHARSET_ENCODING 0
COPYRIGHT 
ENDPROPERTIES
CHARS 874
STARTCHAR 32
ENCODING 32
SWIDTH 1000 1000
DWIDTH 2 16
BBX 2 16 0 -3
BITMAP
00
00
00
00
00
00
00
00
00
00
00
00
00
00
00
00
ENDCHAR
STARTCHAR 33
ENCODING 33
SWIDTH 1000 1000
DWIDTH 3 16
BBX 3 16 0 -3
BITMAP
00
00
c0
c0
c0
c0
c0
c0
c0
00
c0
c0
00
00
00
00
ENDCHAR
STARTCHAR 34
ENCODING 34
SWIDTH 1000 1000
DWIDTH 6 16
BBX 6 16 0 -3
BITMAP
00
00
d8
d8
d8
00
00
00
00
00
00
00
00
00
00
00
ENDCHAR
STARTCHAR 35
ENCODING 35
SWIDTH 1000 1000
DWIDTH 9 16
BBX 9 16 0 -3
BITMAP
0000
0000
0000
1200
1200
7f00
2400
2400
2400
fe00
4800
4800
0000
0000
0000
0000
ENDCHAR
STARTCHAR 36
ENCODING 36
SWIDTH 1000 1000
DWIDTH 8 16
BBX 8 16 0 -3
BITMAP
00
00
10
3c
60
60
38
0c
0c
78
10
10
10
00
00
00
ENDCHAR
STARTCHAR 37
ENCODING 37
SWIDTH 1000 1000
DWIDTH 8 16
BBX 8 16 0 -3
BITMAP
00
00
44
a4
a8
a8
50
14
2a
2a
4a
44
00
00
00
00
ENDCHAR
STARTCHAR 38
ENCODING 38
SWIDTH 1000 1000
DWIDTH 8 16
BBX 8 16 0 -3
BITMAP
00
00
78
cc
cc
cc
78
ca
ce
cc
cc
76
00
00
00
00
ENDCHAR
STARTCHAR 39
ENCODING 39
SWIDTH 1000 1000
DWIDTH 3 16
BBX 3 16 0 -3
BITMAP
00
00
80
80
80
00
00
00
00
00
00
00
00
00
00
00
ENDCHAR
STARTCHAR 40
ENCODING 40
SWIDTH 1000 1000
DWIDTH 4 16
BBX 4 16 0 -3
BITMAP
20
60
c0
c0
c0
c0
c0
c0
c0
c0
60
20
00
00
00
00
ENDCHAR
STARTCHAR 41
ENCODING 41
SWIDTH 1000 1000
DWIDTH 4 16
BBX 4 16 0 -3
BITMAP
80
c0
60
60
60
60
60
60
60
60
c0
80
00
00
00
00
ENDCHAR
STARTCHAR 42
ENCODING 42
SWIDTH 1000 1000
DWIDTH 6 16
BBX 6 16 0 -3
BITMAP
00
00
00
00
20
a8
70
20
70
a8
20
00
00
00
00
00
ENDCHAR
STARTCHAR 43
ENCODING 43
SWIDTH 1000 1000
DWIDTH 7 16
BBX 7 16 0 -3
BITMAP
00
00
00
00
00
20
20
f8
20
20
00
00
00
00
00
00
ENDCHAR
STARTCHAR 44
ENCODING 44
SWIDTH 1000 1000
DWIDTH 3 16
BBX 3 16 0 -3
BITMAP
00
00
00
00
00
00
00
00
c0
c0
40
80
00
00
00
00
ENDCHAR
STARTCHAR 45
ENCODING 45
SWIDTH 1000 1000
DWIDTH 6 16
BBX 6 16 0 -3
BITMAP
00
00
00
00
00
00
00
78
78
00
00
00
00
00
00
00
ENDCHAR
STARTCHAR 46
ENCODING 46
SWIDTH 1000 1000
DWIDTH 3 16
BBX 3 16 0 -3
BITMAP
00
00
00
00
00
00
00
00
00
00
c0
c0
00
00
00
00
ENDCHAR
STARTCHAR 47
ENCODING 47
SWIDTH 1000 1000
DWIDTH 5 16
BBX 5 16 0 -3
BITMAP
10
10
10
20
20
20
20
40
40
40
00
00
00
00
00
00
ENDCHAR
STARTCHAR 48
ENCODING 48
SWIDTH 1000 1000
DWIDTH 8 16
BBX 8 16 0 -3
BITMAP
00
00
7c
c6
c6
c6
c6
c6
c6
c6
c6
c6
7c
00
00
00
ENDCHAR
STARTCHAR 49
ENCODING 49
SWIDTH 1000 1000
DWIDTH 7 16
BBX 7 16 0 -3
BITMAP
00
00
30
70
b0
30
30
30
30
30
30
30
fc
00
00
00
ENDCHAR
STARTCHAR 50
ENCODING 50
SWIDTH 1000 1000
DWIDTH 8 16
BBX 8 16 0 -3
BITMAP
00
00
7c
c6
06
06
0c
18
30
60
c0
c0
fe
00
00
00
ENDCHAR
STARTCHAR 51
ENCODING 51
SWIDTH 1000 1000
DWIDTH 8 16
BBX 8 16 0 -3
BITMAP
00
00
7c
c6
06
06
06
3c
06
06
06
c6
7c
00
00
00
ENDCHAR
STARTCHAR 52
ENCODING 52
SWIDTH 1000 1000
DWIDTH 8 16
BBX 8 16 0 -3
BITMAP
00
00
0c
1c
2c
2c
4c
4c
8c
fe
0c
0c
0c
00
00
00
ENDCHAR
STARTCHAR 53
ENCODING 53
SWIDTH 1000 1000
DWIDTH 8 16
BBX 8 16 0 -3
BITMAP
00
00
7e
60
60
60
7c
06
06
06
06
c6
7c
00
00
00
ENDCHAR
STARTCHAR 54
ENCODING 54
SWIDTH 1000 1000
DWIDTH 8 16
BBX 8 16 0 -3
BITMAP
00
00
3c
60
c0
c0
fc
c6
c6
c6
c6
c6
7c
00
00
00
ENDCHAR
STARTCHAR 55
ENCODING 55
SWIDTH 1000 1000
DWIDTH 8 16
BBX 8 16 0 -3
BITMAP
00
00
fe
06
0c
0c
18
18
30
30
60
60
60
00
00
00
ENDCHAR
STARTCHAR 56
ENCODING 56
SWIDTH 1000 1000
DWIDTH 8 16
BBX 8 16 0 -3
BITMAP
00
00
7c
c6
c6
c6
c6
7c
c6
c6
c6
c6
7c
00
00
00
ENDCHAR
STARTCHAR 57
ENCODING 57
SWIDTH 1000 1000
DWIDTH 8 16
BBX 8 16 0 -3
BITMAP
00
00
7c
c6
c6
c6
c6
c6
7e
06
06
0c
78
00
00
00
ENDCHAR
STARTCHAR 58
ENCODING 58
SWIDTH 1000 1000
DWIDTH 3 16
BBX 3 16 0 -3
BITMAP
00
00
00
00
c0
c0
00
00
c0
c0
00
00
00
00
00
00
ENDCHAR
STARTCHAR 59
ENCODING 59
SWIDTH 1000 1000
DWIDTH 3 16
BBX 3 16 0 -3
BITMAP
00
00
00
00
c0
c0
00
00
c0
c0
40
80
00
00
00
00
ENDCHAR
STARTCHAR 60
ENCODING 60
SWIDTH 1000 1000
DWIDTH 8 16
BBX 8 16 0 -3
BITMAP
00
00
00
00
06
18
60
80
60
18
06
00
00
00
00
00
ENDCHAR
STARTCHAR 61
ENCODING 61
SWIDTH 1000 1000
DWIDTH 6 16
BBX 6 16 0 -3
BITMAP
00
00
00
00
00
00
f8
00
f8
00
00
00
00
00
00
00
ENDCHAR
STARTCHAR 62
ENCODING 62
SWIDTH 1000 1000
DWIDTH 8 16
BBX 8 16 0 -3
BITMAP
00
00
00
00
c0
30
0c
02
0c
30
c0
00
00
00
00
00
ENDCHAR
STARTCHAR 63
ENCODING 63
SWIDTH 1000 1000
DWIDTH 7 16
BBX 7 16 0 -3
BITMAP
00
00
00
78
cc
0c
0c
18
30
30
00
30
30
00
00
00
ENDCHAR
STARTCHAR 64
ENCODING 64
SWIDTH 1000 1000
DWIDTH 8 16
BBX 8 16 0 -3
BITMAP
38
44
82
9a
aa
aa
aa
aa
9c
80
42
3c
00
00
00
00
ENDCHAR
STARTCHAR 65
ENCODING 65
SWIDTH 1000 1000
DWIDTH 8 16
BBX 8 16 0 -3
BITMAP
00
00
38
6c
c6
c6
c6
c6
fe
c6
c6
c6
c6
00
00
00
ENDCHAR
STARTCHAR 66
ENCODING 66
SWIDTH 1000 1000
DWIDTH 9 16
BBX 9 16 0 -3
BITMAP
0000
0000
fc00
c600
c300
c300
c600
fc00
c600
c300
c300
c600
fc00
0000
0000
0000
ENDCHAR
STARTCHAR 67
ENCODING 67
SWIDTH 1000 1000
DWIDTH 7 16
BBX 7 16 0 -3
BITMAP
00
00
7c
c0
c0
c0
c0
c0
c0
c0
c0
c0
7c
00
00
00
ENDCHAR
STARTCHAR 68
ENCODING 68
SWIDTH 1000 1000
DWIDTH 9 16
BBX 9 16 0 -3
BITMAP
0000
0000
fc00
c600
c300
c300
c300
c300
c300
c300
c300
c600
fc00
0000
0000
0000
ENDCHAR
STARTCHAR 69
ENCODING 69
SWIDTH 1000 1000
DWIDTH 7 16
BBX 7 16 0 -3
BITMAP
00
00
fc
c0
c0
c0
c0
fc
c0
c0
c0
c0
fc
00
00
00
ENDCHAR
STARTCHAR 70
ENCODING 70
SWIDTH 1000 1000
DWIDTH 7 16
BBX 7 16 0 -3
BITMAP
00
00
fc
c0
c0
c0
c0
fc
c0
c0
c0
c0
c0
00
00
00
ENDCHAR
STARTCHAR 71
ENCODING 71
SWIDTH 1000 1000
DWIDTH 8 16
BBX 8 16 0 -3
BITMAP
00
00
7e
c0
c0
c0
c0
ce
c6
c6
c6
c6
7a
00
00
00
ENDCHAR
STARTCHAR 72
ENCODING 72
SWIDTH 1000 1000
DWIDTH 9 16
BBX 9 16 0 -3
BITMAP
0000
0000
c300
c300
c300
c300
c300
ff00
c300
c300
c300
c300
c300
0000
0000
0000
ENDCHAR
STARTCHAR 73
ENCODING 73
SWIDTH 1000 1000
DWIDTH 5 16
BBX 5 16 0 -3
BITMAP
00
00
f0
60
60
60
60
60
60
60
60
60
f0
00
00
00
ENDCHAR
STARTCHAR 74
ENCODING 74
SWIDTH 1000 1000
DWIDTH 5 16
BBX 5 16 0 -3
BITMAP
00
00
f0
60
60
60
60
60
60
60
60
60
60
60
60
c0
ENDCHAR
STARTCHAR 75
ENCODING 75
SWIDTH 1000 1000
DWIDTH 8 16
BBX 8 16 0 -3
BITMAP
00
00
c6
c6
cc
cc
d8
f0
d8
cc
cc
c6
c6
00
00
00
ENDCHAR
STARTCHAR 76
ENCODING 76
SWIDTH 1000 1000
DWIDTH 7 16
BBX 7 16 0 -3
BITMAP
00
00
c0
c0
c0
c0
c0
c0
c0
c0
c0
c0
fc
00
00
00
ENDCHAR
STARTCHAR 77
ENCODING 77
SWIDTH 1000 1000
DWIDTH 10 16
BBX 10 16 0 -3
BITMAP
0000
0000
8080
c180
e380
f780
dd80
c980
c180
c180
c180
c180
c180
0000
0000
0000
ENDCHAR
STARTCHAR 78
ENCODING 78
SWIDTH 1000 1000
DWIDTH 9 16
BBX 9 16 0 -3
BITMAP
0000
0000
8300
c300
c300
e300
f300
db00
cb00
cf00
c700
c300
c100
0000
0000
0000
ENDCHAR
STARTCHAR 79
ENCODING 79
SWIDTH 1000 1000
DWIDTH 9 16
BBX 9 16 0 -3
BITMAP
0000
0000
7e00
c300
c300
c300
c300
c300
c300
c300
c300
c300
7e00
0000
0000
0000
ENDCHAR
STARTCHAR 80
ENCODING 80
SWIDTH 1000 1000
DWIDTH 8 16
BBX 8 16 0 -3
BITMAP
00
00
f8
cc
c6
c6
c6
cc
f8
c0
c0
c0
c0
00
00
00
ENDCHAR
STARTCHAR 81
ENCODING 81
SWIDTH 1000 1000
DWIDTH 10 16
BBX 10 16 0 -3
BITMAP
0000
0000
7e00
c300
c300
c300
c300
c300
c300
c300
c300
c300
7e00
0c00
0600
0300
ENDCHAR
STARTCHAR 82
ENCODING 82
SWIDTH 1000 1000
DWIDTH 10 16
BBX 10 16 0 -3
BITMAP
0000
0000
fc00
c600
c300
c300
c600
fc00
cc00
c600
c600
c300
c300
0000
0000
0000
ENDCHAR
STARTCHAR 83
ENCODING 83
SWIDTH 1000 1000
DWIDTH 9 16
BBX 9 16 0 -3
BITMAP
0000
0000
7e00
c000
c000
e000
7000
3800
1c00
0e00
0600
0600
fc00
0000
0000
0000
ENDCHAR
STARTCHAR 84
ENCODING 84
SWIDTH 1000 1000
DWIDTH 9 16
BBX 9 16 0 -3
BITMAP
0000
0000
ff00
1800
1800
1800
1800
1800
1800
1800
1800
1800
1800
0000
0000
0000
ENDCHAR
STARTCHAR 85
ENCODING 85
SWIDTH 1000 1000
DWIDTH 9 16
BBX 9 16 0 -3
BITMAP
0000
0000
c300
c300
c300
c300
c300
c300
c300
c300
c300
c300
7e00
0000
0000
0000
ENDCHAR
STARTCHAR 86
ENCODING 86
SWIDTH 1000 1000
DWIDTH 8 16
BBX 8 16 0 -3
BITMAP
00
00
c6
c6
c6
c6
c6
c6
6c
6c
6c
38
38
00
00
00
ENDCHAR
STARTCHAR 87
ENCODING 87
SWIDTH 1000 1000
DWIDTH 11 16
BBX 11 16 0 -3
BITMAP
0000
0000
ccc0
ccc0
ccc0
ccc0
ccc0
ccc0
ccc0
4c80
7f80
3300
3300
0000
0000
0000
ENDCHAR
STARTCHAR 88
ENCODING 88
SWIDTH 1000 1000
DWIDTH 9 16
BBX 9 16 0 -3
BITMAP
0000
0000
c300
c300
6600
6600
3c00
1800
3c00
6600
6600
c300
c300
0000
0000
0000
ENDCHAR
STARTCHAR 89
ENCODING 89
SWIDTH 1000 1000
DWIDTH 9 16
BBX 9 16 0 -3
BITMAP
0000
0000
c300
c300
c300
6600
6600
6600
3c00
1800
1800
1800
1800
0000
0000
0000
ENDCHAR
STARTCHAR 90
ENCODING 90
SWIDTH 1000 1000
DWIDTH 8 16
BBX 8 16 0 -3
BITMAP
00
00
fe
06
0c
0c
18
30
30
60
60
c0
fe
00
00
00
ENDCHAR
STARTCHAR 91
ENCODING 91
SWIDTH 1000 1000
DWIDTH 4 16
BBX 4 16 0 -3
BITMAP
00
e0
80
80
80
80
80
80
80
80
80
80
e0
00
00
00
ENDCHAR
STARTCHAR 92
ENCODING 92
SWIDTH 1000 1000
DWIDTH 5 16
BBX 5 16 0 -3
BITMAP
00
00
80
80
40
40
40
20
20
20
10
10
10
00
00
00
ENDCHAR
STARTCHAR 93
ENCODING 93
SWIDTH 1000 1000
DWIDTH 4 16
BBX 4 16 0 -3
BITMAP
00
e0
20
20
20
20
20
20
20
20
20
20
e0
00
00
00
ENDCHAR
STARTCHAR 94
ENCODING 94
SWIDTH 1000 1000
DWIDTH 6 16
BBX 6 16 0 -3
BITMAP
00
00
50
50
88
88
00
00
00
00
00
00
00
00
00
00
ENDCHAR
STARTCHAR 95
ENCODING 95
SWIDTH 1000 1000
DWIDTH 7 16
BBX 7 16 0 -3
BITMAP
00
00
00
00
00
00
00
00
00
00
00
fc
00
00
00
00
ENDCHAR
STARTCHAR 96
ENCODING 96
SWIDTH 1000 1000
DWIDTH 3 16
BBX 3 16 0 -3
BITMAP
00
00
80
40
00
00
00
00
00
00
00
00
00
00
00
00
ENDCHAR
STARTCHAR 97
ENCODING 97
SWIDTH 1000 1000
DWIDTH 8 16
BBX 8 16 0 -3
BITMAP
00
00
00
00
7c
06
06
06
7e
c6
c6
c6
7a
00
00
00
ENDCHAR
STARTCHAR 98
ENCODING 98
SWIDTH 1000 1000
DWIDTH 8 16
BBX 8 16 0 -3
BITMAP
00
c0
c0
c0
fc
c6
c6
c6
c6
c6
c6
c6
bc
00
00
00
ENDCHAR
STARTCHAR 99
ENCODING 99
SWIDTH 1000 1000
DWIDTH 7 16
BBX 7 16 0 -3
BITMAP
00
00
00
00
7c
c0
c0
c0
c0
c0
c0
c0
7c
00
00
00
ENDCHAR
STARTCHAR 100
ENCODING 100
SWIDTH 1000 1000
DWIDTH 8 16
BBX 8 16 0 -3
BITMAP
00
06
06
06
7e
c6
c6
c6
c6
c6
c6
c6
7a
00
00
00
ENDCHAR
STARTCHAR 101
ENCODING 101
SWIDTH 1000 1000
DWIDTH 8 16
BBX 8 16 0 -3
BITMAP
00
00
00
00
7c
c6
c6
c6
fe
c0
c0
c0
7e
00
00
00
ENDCHAR
STARTCHAR 102
ENCODING 102
SWIDTH 1000 1000
DWIDTH 6 16
BBX 6 16 0 -3
BITMAP
00
38
60
60
f8
60
60
60
60
60
60
60
60
00
00
00
ENDCHAR
STARTCHAR 103
ENCODING 103
SWIDTH 1000 1000
DWIDTH 8 16
BBX 8 16 0 -3
BITMAP
00
00
00
00
7a
c6
c6
c6
c6
c6
c6
c6
7e
06
06
7c
ENDCHAR
STARTCHAR 104
ENCODING 104
SWIDTH 1000 1000
DWIDTH 8 16
BBX 8 16 0 -3
BITMAP
00
c0
c0
c0
fc
c6
c6
c6
c6
c6
c6
c6
c6
00
00
00
ENDCHAR
STARTCHAR 105
ENCODING 105
SWIDTH 1000 1000
DWIDTH 3 16
BBX 3 16 0 -3
BITMAP
00
c0
c0
00
c0
c0
c0
c0
c0
c0
c0
c0
c0
00
00
00
ENDCHAR
STARTCHAR 106
ENCODING 106
SWIDTH 1000 1000
DWIDTH 4 16
BBX 4 16 0 -3
BITMAP
00
60
60
00
60
60
60
60
60
60
60
60
60
60
60
c0
ENDCHAR
STARTCHAR 107
ENCODING 107
SWIDTH 1000 1000
DWIDTH 8 16
BBX 8 16 0 -3
BITMAP
00
c0
c0
c0
c6
cc
cc
d8
f0
d8
cc
cc
c6
00
00
00
ENDCHAR
STARTCHAR 108
ENCODING 108
SWIDTH 1000 1000
DWIDTH 3 16
BBX 3 16 0 -3
BITMAP
00
c0
c0
c0
c0
c0
c0
c0
c0
c0
c0
c0
c0
00
00
00
ENDCHAR
STARTCHAR 109
ENCODING 109
SWIDTH 1000 1000
DWIDTH 11 16
BBX 11 16 0 -3
BITMAP
0000
0000
0000
0000
bb80
ccc0
ccc0
ccc0
ccc0
ccc0
ccc0
ccc0
ccc0
0000
0000
0000
ENDCHAR
STARTCHAR 110
ENCODING 110
SWIDTH 1000 1000
DWIDTH 8 16
BBX 8 16 0 -3
BITMAP
00
00
00
00
bc
c6
c6
c6
c6
c6
c6
c6
c6
00
00
00
ENDCHAR
STARTCHAR 111
ENCODING 111
SWIDTH 1000 1000
DWIDTH 8 16
BBX 8 16 0 -3
BITMAP
00
00
00
00
7c
c6
c6
c6
c6
c6
c6
c6
7c
00
00
00
ENDCHAR
STARTCHAR 112
ENCODING 112
SWIDTH 1000 1000
DWIDTH 8 16
BBX 8 16 0 -3
BITMAP
00
00
00
00
bc
c6
c6
c6
c6
c6
c6
c6
fc
c0
c0
c0
ENDCHAR
STARTCHAR 113
ENCODING 113
SWIDTH 1000 1000
DWIDTH 8 16
BBX 8 16 0 -3
BITMAP
00
00
00
00
7a
c6
c6
c6
c6
c6
c6
c6
7e
06
06
06
ENDCHAR
STARTCHAR 114
ENCODING 114
SWIDTH 1000 1000
DWIDTH 5 16
BBX 5 16 0 -3
BITMAP
00
00
00
00
b0
f0
c0
c0
c0
c0
c0
c0
c0
00
00
00
ENDCHAR
STARTCHAR 115
ENCODING 115
SWIDTH 1000 1000
DWIDTH 7 16
BBX 7 16 0 -3
BITMAP
00
00
00
7c
c0
c0
e0
70
38
1c
0c
0c
f8
00
00
00
ENDCHAR
STARTCHAR 116
ENCODING 116
SWIDTH 1000 1000
DWIDTH 6 16
BBX 6 16 0 -3
BITMAP
00
00
20
60
f8
60
60
60
60
60
60
60
38
00
00
00
ENDCHAR
STARTCHAR 117
ENCODING 117
SWIDTH 1000 1000
DWIDTH 8 16
BBX 8 16 0 -3
BITMAP
00
00
00
00
c6
c6
c6
c6
c6
c6
c6
c6
7a
00
00
00
ENDCHAR
STARTCHAR 118
ENCODING 118
SWIDTH 1000 1000
DWIDTH 8 16
BBX 8 16 0 -3
BITMAP
00
00
00
00
c6
c6
c6
c6
ee
6c
6c
38
38
00
00
00
ENDCHAR
STARTCHAR 119
ENCODING 119
SWIDTH 1000 1000
DWIDTH 11 16
BBX 11 16 0 -3
BITMAP
0000
0000
0000
0000
ccc0
ccc0
ccc0
ccc0
ccc0
ccc0
4c80
7f80
3300
0000
0000
0000
ENDCHAR
STARTCHAR 120
ENCODING 120
SWIDTH 1000 1000
DWIDTH 8 16
BBX 8 16 0 -3
BITMAP
00
00
00
00
c6
c6
6c
6c
38
6c
6c
c6
c6
00
00
00
ENDCHAR
STARTCHAR 121
ENCODING 121
SWIDTH 1000 1000
DWIDTH 8 16
BBX 8 16 0 -3
BITMAP
00
00
00
00
c6
c6
c6
c6
6c
6c
6c
38
30
30
e0
c0
ENDCHAR
STARTCHAR 122
ENCODING 122
SWIDTH 1000 1000
DWIDTH 7 16
BBX 7 16 0 -3
BITMAP
00
00
00
00
fc
0c
18
18
30
60
60
c0
fc
00
00
00
ENDCHAR
STARTCHAR 123
ENCODING 123
SWIDTH 1000 1000
DWIDTH 5 16
BBX 5 16 0 -3
BITMAP
00
30
40
40
40
40
80
40
40
40
40
40
30
00
00
00
ENDCHAR
STARTCHAR 124
ENCODING 124
SWIDTH 1000 1000
DWIDTH 2 16
BBX 2 16 0 -3
BITMAP
00
80
80
80
80
80
80
80
80
80
80
80
80
00
00
00
ENDCHAR
STARTCHAR 125
ENCODING 125
SWIDTH 1000 1000
DWIDTH 5 16
BBX 5 16 0 -3
BITMAP
00
c0
20
20
20
20
10
20
20
20
20
20
c0
00
00
00
ENDCHAR
STARTCHAR 126
ENCODING 126
SWIDTH 1000 1000
DWIDTH 8 16
BBX 8 16 0 -3
BITMAP
00
00
00
68
b0
00
00
00
00
00
00
00
00
00
00
00
ENDCHAR
STARTCHAR 133
ENCODING 133
SWIDTH 1000 1000
DWIDTH 10 16
BBX 10 16 0 -3
BITMAP
0000
0000
0000
0300
2300
6300
ff00
6000
2000
0000
0000
0000
0000
0000
0000
0000
ENDCHAR
STARTCHAR 134
ENCODING 134
SWIDTH 1000 1000
DWIDTH 5 16
BBX 5 16 0 -3
BITMAP
00
00
00
00
00
00
00
00
90
f0
00
00
00
00
00
00
ENDCHAR
STARTCHAR 135
ENCODING 135
SWIDTH 1000 1000
DWIDTH 14 16
BBX 14 16 0 -3
BITMAP
0000
0000
0000
8800
d800
a800
a930
aaa8
aaa8
aaa8
aaa8
8aa8
8928
0000
0000
0000
ENDCHAR
STARTCHAR 136
ENCODING 136
SWIDTH 1000 1000
DWIDTH 14 16
BBX 14 16 0 -3
BITMAP
0000
0000
0000
f800
2000
2000
2520
2550
2550
2570
2540
2550
2320
0000
0000
0000
ENDCHAR
STARTCHAR 137
ENCODING 137
SWIDTH 1000 1000
DWIDTH 14 16
BBX 14 16 0 -3
BITMAP
0000
0000
0000
8808
8808
a808
a918
aaa8
aaa8
aba8
aa28
aaa8
5118
0000
0000
0000
ENDCHAR
STARTCHAR 138
ENCODING 138
SWIDTH 1000 1000
DWIDTH 14 16
BBX 14 16 0 -3
BITMAP
0000
0000
0000
fc00
2400
2400
2650
2550
2550
2550
2550
2550
2530
0000
0000
0000
ENDCHAR
STARTCHAR 139
ENCODING 139
SWIDTH 1000 1000
DWIDTH 12 16
BBX 12 16 0 -3
BITMAP
0000
0000
0000
f040
0040
0000
0b40
ec40
0840
0840
0840
0840
0840
0000
0000
0000
ENDCHAR
STARTCHAR 140
ENCODING 140
SWIDTH 1000 1000
DWIDTH 13 16
BBX 13 16 0 -3
BITMAP
0000
0000
0000
c040
2040
0040
84e0
8a40
4240
4640
2a40
2a40
c620
0000
0000
0000
ENDCHAR
STARTCHAR 141
ENCODING 141
SWIDTH 1000 1000
DWIDTH 12 16
BBX 12 16 0 -3
BITMAP
0000
0000
0000
c000
2000
0000
8ac0
8aa0
4aa0
4aa0
2aa0
2aa0
c6a0
0000
0000
0000
ENDCHAR
STARTCHAR 142
ENCODING 142
SWIDTH 1000 1000
DWIDTH 13 16
BBX 13 16 0 -3
BITMAP
0000
0000
0000
0000
0000
0000
0000
0000
ffe0
0000
0000
0000
0000
0000
0000
0000
ENDCHAR
STARTCHAR 143
ENCODING 143
SWIDTH 1000 1000
DWIDTH 14 16
BBX 14 16 0 -3
BITMAP
0000
0000
0000
0000
0000
7fe0
0000
0000
0000
0000
0000
0000
fff0
0000
0000
0000
ENDCHAR
STARTCHAR 144
ENCODING 144
SWIDTH 1000 1000
DWIDTH 13 16
BBX 13 16 0 -3
BITMAP
0000
0000
0000
ffc0
0000
0000
0000
7f80
0000
0000
0000
0000
ffe0
0000
0000
0000
ENDCHAR
STARTCHAR 145
ENCODING 145
SWIDTH 1000 1000
DWIDTH 13 16
BBX 13 16 0 -3
BITMAP
0000
0000
ffe0
b360
b360
b360
b360
e360
c1e0
8060
8060
ffe0
8060
0000
0000
0000
ENDCHAR
STARTCHAR 146
ENCODING 146
SWIDTH 1000 1000
DWIDTH 13 16
BBX 13 16 0 -3
BITMAP
0000
0000
ffc0
1800
1800
1800
ff80
3180
3180
3180
3180
3180
ffe0
0000
0000
0000
ENDCHAR
STARTCHAR 147
ENCODING 147
SWIDTH 1000 1000
DWIDTH 13 16
BBX 13 16 0 -3
BITMAP
0000
0000
0c00
0c00
ffe0
0000
0000
3180
3180
60c0
60c0
c060
8060
0000
0000
0000
ENDCHAR
STARTCHAR 148
ENCODING 148
SWIDTH 1000 1000
DWIDTH 11 16
BBX 11 16 0 -3
BITMAP
0000
0000
ff80
8180
8180
8180
ff80
8180
8180
8180
8180
ff80
8180
0000
0000
0000
ENDCHAR
STARTCHAR 161
ENCODING 161
SWIDTH 1000 1000
DWIDTH 2 16
BBX 2 16 0 -3
BITMAP
00
00
00
00
80
80
00
80
80
80
80
80
80
00
00
00
ENDCHAR
STARTCHAR 162
ENCODING 162
SWIDTH 1000 1000
DWIDTH 7 16
BBX 7 16 0 -3
BITMAP
00
00
08
08
78
d4
d0
d0
d0
d4
78
20
20
00
00
00
ENDCHAR
STARTCHAR 163
ENCODING 163
SWIDTH 1000 1000
DWIDTH 6 16
BBX 6 16 0 -3
BITMAP
00
00
00
38
40
40
40
f8
40
40
40
80
f8
00
00
00
ENDCHAR
STARTCHAR 164
ENCODING 164
SWIDTH 1000 1000
DWIDTH 6 16
BBX 6 16 0 -3
BITMAP
00
00
00
00
00
00
00
a8
50
88
50
a8
00
00
00
00
ENDCHAR
STARTCHAR 165
ENCODING 165
SWIDTH 1000 1000
DWIDTH 7 16
BBX 7 16 0 -3
BITMAP
00
00
00
00
88
88
50
50
fc
20
fc
20
20
00
00
00
ENDCHAR
STARTCHAR 166
ENCODING 166
SWIDTH 1000 1000
DWIDTH 2 16
BBX 2 16 0 -3
BITMAP
00
80
80
80
80
80
00
00
80
80
80
80
80
00
00
00
ENDCHAR
STARTCHAR 167
ENCODING 167
SWIDTH 1000 1000
DWIDTH 6 16
BBX 6 16 0 -3
BITMAP
00
00
00
70
88
80
70
88
88
70
08
88
70
00
00
00
ENDCHAR
STARTCHAR 168
ENCODING 168
SWIDTH 1000 1000
DWIDTH 4 16
BBX 4 16 0 -3
BITMAP
00
00
00
00
00
40
40
00
00
00
00
00
00
00
00
00
ENDCHAR
STARTCHAR 169
ENCODING 169
SWIDTH 1000 1000
DWIDTH 8 16
BBX 8 16 0 -3
BITMAP
00
00
00
38
44
92
aa
a2
a2
aa
92
44
38
00
00
00
ENDCHAR
STARTCHAR 170
ENCODING 170
SWIDTH 1000 1000
DWIDTH 6 16
BBX 6 16 0 -3
BITMAP
00
00
00
70
88
78
88
78
00
00
00
00
00
00
00
00
ENDCHAR
STARTCHAR 171
ENCODING 171
SWIDTH 1000 1000
DWIDTH 8 16
BBX 8 16 0 -3
BITMAP
00
00
00
00
00
36
6c
d8
6c
36
00
00
00
00
00
00
ENDCHAR
STARTCHAR 172
ENCODING 172
SWIDTH 1000 1000
DWIDTH 7 16
BBX 7 16 0 -3
BITMAP
00
00
00
00
00
fc
04
04
04
00
00
00
00
00
00
00
ENDCHAR
STARTCHAR 173
ENCODING 173
SWIDTH 1000 1000
DWIDTH 6 16
BBX 6 16 0 -3
BITMAP
00
00
00
00
00
f8
00
00
00
00
00
00
00
00
00
00
ENDCHAR
STARTCHAR 174
ENCODING 174
SWIDTH 1000 1000
DWIDTH 8 16
BBX 8 16 0 -3
BITMAP
00
00
00
38
44
b2
aa
aa
b2
aa
aa
44
38
00
00
00
ENDCHAR
STARTCHAR 175
ENCODING 175
SWIDTH 1000 1000
DWIDTH 7 16
BBX 7 16 0 -3
BITMAP
00
00
00
00
fc
00
00
00
00
00
00
00
00
00
00
00
ENDCHAR
STARTCHAR 176
ENCODING 176
SWIDTH 1000 1000
DWIDTH 5 16
BBX 5 16 0 -3
BITMAP
00
00
00
c0
20
20
c0
00
00
00
00
00
00
00
00
00
ENDCHAR
STARTCHAR 177
ENCODING 177
SWIDTH 1000 1000
DWIDTH 7 16
BBX 7 16 0 -3
BITMAP
00
00
00
00
00
30
30
fc
30
30
00
fc
00
00
00
00
ENDCHAR
STARTCHAR 178
ENCODING 178
SWIDTH 1000 1000
DWIDTH 5 16
BBX 5 16 0 -3
BITMAP
00
00
00
e0
10
20
40
f0
00
00
00
00
00
00
00
00
ENDCHAR
STARTCHAR 179
ENCODING 179
SWIDTH 1000 1000
DWIDTH 5 16
BBX 5 16 0 -3
BITMAP
00
00
00
e0
10
60
10
e0
00
00
00
00
00
00
00
00
ENDCHAR
STARTCHAR 180
ENCODING 180
SWIDTH 1000 1000
DWIDTH 4 16
BBX 4 16 0 -3
BITMAP
00
00
00
60
c0
00
00
00
00
00
00
00
00
00
00
00
ENDCHAR
STARTCHAR 181
ENCODING 181
SWIDTH 1000 1000
DWIDTH 7 16
BBX 7 16 0 -3
BITMAP
00
00
00
00
cc
cc
cc
cc
cc
cc
f4
c0
c0
00
00
00
ENDCHAR
STARTCHAR 182
ENCODING 182
SWIDTH 1000 1000
DWIDTH 8 16
BBX 8 16 0 -3
BITMAP
00
7e
f6
f6
f6
f6
76
36
36
36
36
36
36
00
00
00
ENDCHAR
STARTCHAR 183
ENCODING 183
SWIDTH 1000 1000
DWIDTH 3 16
BBX 3 16 0 -3
BITMAP
00
00
00
00
00
c0
c0
00
00
00
00
00
00
00
00
00
ENDCHAR
STARTCHAR 184
ENCODING 184
SWIDTH 1000 1000
DWIDTH 5 16
BBX 5 16 0 -3
BITMAP
00
00
00
00
00
00
00
00
00
00
20
90
60
00
00
00
ENDCHAR
STARTCHAR 185
ENCODING 185
SWIDTH 1000 1000
DWIDTH 3 16
BBX 3 16 0 -3
BITMAP
00
00
00
80
80
80
80
80
00
00
00
00
00
00
00
00
ENDCHAR
STARTCHAR 186
ENCODING 186
SWIDTH 1000 1000
DWIDTH 5 16
BBX 5 16 0 -3
BITMAP
00
00
00
c0
20
20
20
c0
00
00
00
00
00
00
00
00
ENDCHAR
STARTCHAR 187
ENCODING 187
SWIDTH 1000 1000
DWIDTH 8 16
BBX 8 16 0 -3
BITMAP
00
00
00
00
00
d8
6c
36
6c
d8
00
00
00
00
00
00
ENDCHAR
STARTCHAR 188
ENCODING 188
SWIDTH 1000 1000
DWIDTH 8 16
BBX 8 16 0 -3
BITMAP
00
00
00
44
c4
48
48
10
14
2c
34
5e
44
00
00
00
ENDCHAR
STARTCHAR 189
ENCODING 189
SWIDTH 1000 1000
DWIDTH 8 16
BBX 8 16 0 -3
BITMAP
00
00
00
44
c4
48
48
10
1c
22
24
48
4e
00
00
00
ENDCHAR
STARTCHAR 190
ENCODING 190
SWIDTH 1000 1000
DWIDTH 8 16
BBX 8 16 0 -3
BITMAP
00
00
00
c4
24
c8
28
d0
14
2c
34
5e
04
00
00
00
ENDCHAR
STARTCHAR 191
ENCODING 191
SWIDTH 1000 1000
DWIDTH 7 16
BBX 7 16 0 -3
BITMAP
00
00
00
00
30
30
00
30
30
60
c0
cc
78
00
00
00
ENDCHAR
STARTCHAR 192
ENCODING 192
SWIDTH 1000 1000
DWIDTH 8 16
BBX 8 16 0 -3
BITMAP
30
18
00
38
6c
c6
c6
c6
c6
fe
c6
c6
c6
00
00
00
ENDCHAR
STARTCHAR 193
ENCODING 193
SWIDTH 1000 1000
DWIDTH 8 16
BBX 8 16 0 -3
BITMAP
18
30
00
38
6c
c6
c6
c6
c6
fe
c6
c6
c6
00
00
00
ENDCHAR
STARTCHAR 194
ENCODING 194
SWIDTH 1000 1000
DWIDTH 8 16
BBX 8 16 0 -3
BITMAP
38
6c
00
38
6c
c6
c6
c6
c6
fe
c6
c6
c6
00
00
00
ENDCHAR
STARTCHAR 195
ENCODING 195
SWIDTH 1000 1000
DWIDTH 8 16
BBX 8 16 0 -3
BITMAP
34
58
00
38
6c
c6
c6
c6
c6
fe
c6
c6
c6
00
00
00
ENDCHAR
STARTCHAR 196
ENCODING 196
SWIDTH 1000 1000
DWIDTH 8 16
BBX 8 16 0 -3
BITMAP
24
24
00
38
6c
c6
c6
c6
c6
fe
c6
c6
c6
00
00
00
ENDCHAR
STARTCHAR 197
ENCODING 197
SWIDTH 1000 1000
DWIDTH 8 16
BBX 8 16 0 -3
BITMAP
00
38
44
38
6c
c4
c6
c6
c6
fe
c6
c6
c6
00
00
00
ENDCHAR
STARTCHAR 198
ENCODING 198
SWIDTH 1000 1000
DWIDTH 10 16
BBX 10 16 0 -3
BITMAP
0000
0000
3f80
6c00
4c00
cc00
cc00
cf80
fc00
cc00
cc00
cc00
cf80
0000
0000
0000
ENDCHAR
STARTCHAR 199
ENCODING 199
SWIDTH 1000 1000
DWIDTH 7 16
BBX 7 16 0 -3
BITMAP
00
00
7c
c0
c0
c0
c0
c0
c0
c0
c0
c0
7c
10
08
30
ENDCHAR
STARTCHAR 200
ENCODING 200
SWIDTH 1000 1000
DWIDTH 7 16
BBX 7 16 0 -3
BITMAP
60
30
00
fc
c0
c0
c0
fc
c0
c0
c0
c0
fc
00
00
00
ENDCHAR
STARTCHAR 201
ENCODING 201
SWIDTH 1000 1000
DWIDTH 7 16
BBX 7 16 0 -3
BITMAP
18
30
00
fc
c0
c0
c0
fc
c0
c0
c0
c0
fc
00
00
00
ENDCHAR
STARTCHAR 202
ENCODING 202
SWIDTH 1000 1000
DWIDTH 7 16
BBX 7 16 0 -3
BITMAP
38
6c
00
fc
c0
c0
c0
fc
c0
c0
c0
c0
fc
00
00
00
ENDCHAR
STARTCHAR 203
ENCODING 203
SWIDTH 1000 1000
DWIDTH 7 16
BBX 7 16 0 -3
BITMAP
48
48
00
fc
c0
c0
c0
fc
c0
c0
c0
c0
fc
00
00
00
ENDCHAR
STARTCHAR 204
ENCODING 204
SWIDTH 1000 1000
DWIDTH 5 16
BBX 5 16 0 -3
BITMAP
c0
60
00
f0
60
60
60
60
60
60
60
60
f0
00
00
00
ENDCHAR
STARTCHAR 205
ENCODING 205
SWIDTH 1000 1000
DWIDTH 5 16
BBX 5 16 0 -3
BITMAP
30
60
00
f0
60
60
60
60
60
60
60
60
f0
00
00
00
ENDCHAR
STARTCHAR 206
ENCODING 206
SWIDTH 1000 1000
DWIDTH 6 16
BBX 6 16 0 -3
BITMAP
70
d8
00
f0
60
60
60
60
60
60
60
60
f0
00
00
00
ENDCHAR
STARTCHAR 207
ENCODING 207
SWIDTH 1000 1000
DWIDTH 5 16
BBX 5 16 0 -3
BITMAP
90
90
00
f0
60
60
60
60
60
60
60
60
f0
00
00
00
ENDCHAR
STARTCHAR 208
ENCODING 208
SWIDTH 1000 1000
DWIDTH 9 16
BBX 9 16 0 -3
BITMAP
0000
0000
fc00
c600
c300
c300
c300
f300
c300
c300
c300
c600
fc00
0000
0000
0000
ENDCHAR
STARTCHAR 209
ENCODING 209
SWIDTH 1000 1000
DWIDTH 9 16
BBX 9 16 0 -3
BITMAP
1a00
2c00
8300
c300
e300
f300
d300
db00
cb00
cf00
c700
c300
c100
0000
0000
0000
ENDCHAR
STARTCHAR 210
ENCODING 210
SWIDTH 1000 1000
DWIDTH 9 16
BBX 9 16 0 -3
BITMAP
3000
1800
0000
7e00
c300
c300
c300
c300
c300
c300
c300
c300
7e00
0000
0000
0000
ENDCHAR
STARTCHAR 211
ENCODING 211
SWIDTH 1000 1000
DWIDTH 9 16
BBX 9 16 0 -3
BITMAP
0c00
1800
0000
7e00
c300
c300
c300
c300
c300
c300
c300
c300
7e00
0000
0000
0000
ENDCHAR
STARTCHAR 212
ENCODING 212
SWIDTH 1000 1000
DWIDTH 9 16
BBX 9 16 0 -3
BITMAP
1c00
3600
0000
7e00
c300
c300
c300
c300
c300
c300
c300
c300
7e00
0000
0000
0000
ENDCHAR
STARTCHAR 213
ENCODING 213
SWIDTH 1000 1000
DWIDTH 9 16
BBX 9 16 0 -3
BITMAP
1a00
2c00
0000
7e00
c300
c300
c300
c300
c300
c300
c300
c300
7e00
0000
0000
0000
ENDCHAR
STARTCHAR 214
ENCODING 214
SWIDTH 1000 1000
DWIDTH 9 16
BBX 9 16 0 -3
BITMAP
2400
2400
0000
7e00
c300
c300
c300
c300
c300
c300
c300
c300
7e00
0000
0000
0000
ENDCHAR
STARTCHAR 215
ENCODING 215
SWIDTH 1000 1000
DWIDTH 8 16
BBX 8 16 0 -3
BITMAP
00
00
00
00
00
00
c6
6c
38
10
38
6c
c6
00
00
00
ENDCHAR
STARTCHAR 216
ENCODING 216
SWIDTH 1000 1000
DWIDTH 9 16
BBX 9 16 0 -3
BITMAP
0000
0100
7e00
c300
c700
c700
cb00
db00
d300
e300
e300
c300
7e00
8000
0000
0000
ENDCHAR
STARTCHAR 217
ENCODING 217
SWIDTH 1000 1000
DWIDTH 9 16
BBX 9 16 0 -3
BITMAP
3000
1800
c300
c300
c300
c300
c300
c300
c300
c300
c300
c300
7e00
0000
0000
0000
ENDCHAR
STARTCHAR 218
ENCODING 218
SWIDTH 1000 1000
DWIDTH 9 16
BBX 9 16 0 -3
BITMAP
0c00
1800
c300
c300
c300
c300
c300
c300
c300
c300
c300
c300
7e00
0000
0000
0000
ENDCHAR
STARTCHAR 219
ENCODING 219
SWIDTH 1000 1000
DWIDTH 9 16
BBX 9 16 0 -3
BITMAP
1c00
3600
0000
c300
c300
c300
c300
c300
c300
c300
c300
c300
7e00
0000
0000
0000
ENDCHAR
STARTCHAR 220
ENCODING 220
SWIDTH 1000 1000
DWIDTH 9 16
BBX 9 16 0 -3
BITMAP
2400
2400
c300
c300
c300
c300
c300
c300
c300
c300
c300
c300
7e00
0000
0000
0000
ENDCHAR
STARTCHAR 221
ENCODING 221
SWIDTH 1000 1000
DWIDTH 9 16
BBX 9 16 0 -3
BITMAP
0c00
1800
c300
c300
c300
6600
6600
6600
3c00
1800
1800
1800
1800
0000
0000
0000
ENDCHAR
STARTCHAR 222
ENCODING 222
SWIDTH 1000 1000
DWIDTH 8 16
BBX 8 16 0 -3
BITMAP
00
00
c0
c0
f8
cc
c6
c6
c6
cc
f8
c0
c0
00
00
00
ENDCHAR
STARTCHAR 223
ENCODING 223
SWIDTH 1000 1000
DWIDTH 8 16
BBX 8 16 0 -3
BITMAP
00
00
7c
c6
c6
c6
c6
dc
c6
c6
c6
c6
dc
00
00
00
ENDCHAR
STARTCHAR 224
ENCODING 224
SWIDTH 1000 1000
DWIDTH 8 16
BBX 8 16 0 -3
BITMAP
60
30
18
00
7c
06
06
06
7e
c6
c6
c6
7a
00
00
00
ENDCHAR
STARTCHAR 225
ENCODING 225
SWIDTH 1000 1000
DWIDTH 8 16
BBX 8 16 0 -3
BITMAP
0c
18
30
00
7c
06
06
06
7e
c6
c6
c6
7a
00
00
00
ENDCHAR
STARTCHAR 226
ENCODING 226
SWIDTH 1000 1000
DWIDTH 8 16
BBX 8 16 0 -3
BITMAP
10
38
6c
00
7c
06
06
06
7e
c6
c6
c6
7a
00
00
00
ENDCHAR
STARTCHAR 227
ENCODING 227
SWIDTH 1000 1000
DWIDTH 8 16
BBX 8 16 0 -3
BITMAP
00
34
58
00
7c
06
06
06
7e
c6
c6
c6
7a
00
00
00
ENDCHAR
STARTCHAR 228
ENCODING 228
SWIDTH 1000 1000
DWIDTH 8 16
BBX 8 16 0 -3
BITMAP
00
28
28
00
7c
06
06
06
7e
c6
c6
c6
7a
00
00
00
ENDCHAR
STARTCHAR 229
ENCODING 229
SWIDTH 1000 1000
DWIDTH 8 16
BBX 8 16 0 -3
BITMAP
18
24
18
00
7c
06
06
06
7e
c6
c6
c6
7a
00
00
00
ENDCHAR
STARTCHAR 230
ENCODING 230
SWIDTH 1000 1000
DWIDTH 11 16
BBX 11 16 0 -3
BITMAP
0000
0000
0000
0000
7b80
0cc0
0cc0
0cc0
7fc0
cc00
cc00
cc00
77c0
0000
0000
0000
ENDCHAR
STARTCHAR 231
ENCODING 231
SWIDTH 1000 1000
DWIDTH 7 16
BBX 7 16 0 -3
BITMAP
00
00
00
00
7c
c0
c0
c0
c0
c0
c0
c0
7c
20
10
60
ENDCHAR
STARTCHAR 232
ENCODING 232
SWIDTH 1000 1000
DWIDTH 8 16
BBX 8 16 0 -3
BITMAP
60
30
18
00
7c
c6
c6
c6
fe
c0
c0
c0
7e
00
00
00
ENDCHAR
STARTCHAR 233
ENCODING 233
SWIDTH 1000 1000
DWIDTH 8 16
BBX 8 16 0 -3
BITMAP
0c
18
30
00
7c
c6
c6
c6
fe
c0
c0
c0
7e
00
00
00
ENDCHAR
STARTCHAR 234
ENCODING 234
SWIDTH 1000 1000
DWIDTH 8 16
BBX 8 16 0 -3
BITMAP
10
38
6c
00
7c
c6
c6
c6
fe
c0
c0
c0
7e
00
00
00
ENDCHAR
STARTCHAR 235
ENCODING 235
SWIDTH 1000 1000
DWIDTH 8 16
BBX 8 16 0 -3
BITMAP
00
28
28
00
7c
c6
c6
c6
fe
c0
c0
c0
7e
00
00
00
ENDCHAR
STARTCHAR 236
ENCODING 236
SWIDTH 1000 1000
DWIDTH 5 16
BBX 5 16 0 -3
BITMAP
c0
60
30
00
c0
c0
c0
c0
c0
c0
c0
c0
c0
00
00
00
ENDCHAR
STARTCHAR 237
ENCODING 237
SWIDTH 1000 1000
DWIDTH 5 16
BBX 5 16 0 -3
BITMAP
30
60
c0
00
60
60
60
60
60
60
60
60
60
00
00
00
ENDCHAR
STARTCHAR 238
ENCODING 238
SWIDTH 1000 1000
DWIDTH 6 16
BBX 6 16 0 -3
BITMAP
20
70
d8
00
60
60
60
60
60
60
60
60
60
00
00
00
ENDCHAR
STARTCHAR 239
ENCODING 239
SWIDTH 1000 1000
DWIDTH 4 16
BBX 4 16 0 -3
BITMAP
00
a0
a0
00
c0
c0
c0
c0
c0
c0
c0
c0
c0
00
00
00
ENDCHAR
STARTCHAR 240
ENCODING 240
SWIDTH 1000 1000
DWIDTH 8 16
BBX 8 16 0 -3
BITMAP
00
36
18
6c
06
7e
c6
c6
c6
c6
c6
c6
7c
00
00
00
ENDCHAR
STARTCHAR 241
ENCODING 241
SWIDTH 1000 1000
DWIDTH 8 16
BBX 8 16 0 -3
BITMAP
00
34
58
00
bc
c6
c6
c6
c6
c6
c6
c6
c6
00
00
00
ENDCHAR
STARTCHAR 242
ENCODING 242
SWIDTH 1000 1000
DWIDTH 8 16
BBX 8 16 0 -3
BITMAP
60
30
18
00
7c
c6
c6
c6
c6
c6
c6
c6
7c
00
00
00
ENDCHAR
STARTCHAR 243
ENCODING 243
SWIDTH 1000 1000
DWIDTH 8 16
BBX 8 16 0 -3
BITMAP
0c
18
30
00
7c
c6
c6
c6
c6
c6
c6
c6
7c
00
00
00
ENDCHAR
STARTCHAR 244
ENCODING 244
SWIDTH 1000 1000
DWIDTH 8 16
BBX 8 16 0 -3
BITMAP
10
38
6c
00
7c
c6
c6
c6
c6
c6
c6
c6
7c
00
00
00
ENDCHAR
STARTCHAR 245
ENCODING 245
SWIDTH 1000 1000
DWIDTH 8 16
BBX 8 16 0 -3
BITMAP
00
34
58
00
7c
c6
c6
c6
c6
c6
c6
c6
7c
00
00
00
ENDCHAR
STARTCHAR 246
ENCODING 246
SWIDTH 1000 1000
DWIDTH 8 16
BBX 8 16 0 -3
BITMAP
00
28
28
00
7c
c6
c6
c6
c6
c6
c6
c6
7c
00
00
00
ENDCHAR
STARTCHAR 247
ENCODING 247
SWIDTH 1000 1000
DWIDTH 7 16
BBX 7 16 0 -3
BITMAP
00
00
00
00
00
30
30
00
fc
00
30
30
00
00
00
00
ENDCHAR
STARTCHAR 248
ENCODING 248
SWIDTH 1000 1000
DWIDTH 8 16
BBX 8 16 0 -3
BITMAP
00
00
00
02
7c
c6
ce
ce
d6
e6
e6
c6
7c
80
00
00
ENDCHAR
STARTCHAR 249
ENCODING 249
SWIDTH 1000 1000
DWIDTH 8 16
BBX 8 16 0 -3
BITMAP
60
30
18
00
c6
c6
c6
c6
c6
c6
c6
c6
7a
00
00
00
ENDCHAR
STARTCHAR 250
ENCODING 250
SWIDTH 1000 1000
DWIDTH 8 16
BBX 8 16 0 -3
BITMAP
0c
18
30
00
c6
c6
c6
c6
c6
c6
c6
c6
7a
00
00
00
ENDCHAR
STARTCHAR 251
ENCODING 251
SWIDTH 1000 1000
DWIDTH 8 16
BBX 8 16 0 -3
BITMAP
10
38
6c
00
c6
c6
c6
c6
c6
c6
c6
c6
7a
00
00
00
ENDCHAR
STARTCHAR 252
ENCODING 252
SWIDTH 1000 1000
DWIDTH 8 16
BBX 8 16 0 -3
BITMAP
00
28
28
00
c6
c6
c6
c6
c6
c6
c6
c6
7a
00
00
00
ENDCHAR
STARTCHAR 253
ENCODING 253
SWIDTH 1000 1000
DWIDTH 8 16
BBX 8 16 0 -3
BITMAP
0c
18
30
00
c6
c6
c6
c6
6e
6c
6c
38
30
30
e0
c0
ENDCHAR
STARTCHAR 254
ENCODING 254
SWIDTH 1000 1000
DWIDTH 8 16
BBX 8 16 0 -3
BITMAP
00
00
c0
c0
c0
fc
c6
c6
c6
c6
c6
c6
fc
c0
c0
c0
ENDCHAR
STARTCHAR 255
ENCODING 255
SWIDTH 1000 1000
DWIDTH 8 16
BBX 8 16 0 -3
BITMAP
00
28
28
00
c6
c6
c6
c6
6c
6c
6c
38
30
30
e0
c0
ENDCHAR
STARTCHAR 256
ENCODING 256
SWIDTH 1000 1000
DWIDTH 8 16
BBX 8 16 0 -3
BITMAP
00
00
7c
00
38
6c
c6
c6
c6
fe
c6
c6
c6
00
00
00
ENDCHAR
STARTCHAR 257
ENCODING 257
SWIDTH 1000 1000
DWIDTH 8 16
BBX 8 16 0 -3
BITMAP
00
00
7c
00
7c
06
06
06
7e
c6
c6
c6
7a
00
00
00
ENDCHAR
STARTCHAR 258
ENCODING 258
SWIDTH 1000 1000
DWIDTH 8 16
BBX 8 16 0 -3
BITMAP
44
38
00
38
6c
c6
c6
c6
c6
fe
c6
c6
c6
00
00
00
ENDCHAR
STARTCHAR 259
ENCODING 259
SWIDTH 1000 1000
DWIDTH 8 16
BBX 8 16 0 -3
BITMAP
00
44
38
00
7c
06
06
06
7e
c6
c6
c6
7a
00
00
00
ENDCHAR
STARTCHAR 260
ENCODING 260
SWIDTH 1000 1000
DWIDTH 8 16
BBX 8 16 0 -3
BITMAP
00
00
38
6c
c6
c6
c6
c6
fe
c6
c6
c6
08
06
00
00
ENDCHAR
STARTCHAR 261
ENCODING 261
SWIDTH 1000 1000
DWIDTH 8 16
BBX 8 16 0 -3
BITMAP
00
00
00
00
7c
06
06
06
7e
c6
c6
c6
7a
08
06
00
ENDCHAR
STARTCHAR 262
ENCODING 262
SWIDTH 1000 1000
DWIDTH 7 16
BBX 7 16 0 -3
BITMAP
0c
18
00
7c
c0
c0
c0
c0
c0
c0
c0
c0
7c
00
00
00
ENDCHAR
STARTCHAR 263
ENCODING 263
SWIDTH 1000 1000
DWIDTH 6 16
BBX 6 16 0 -3
BITMAP
18
30
60
00
78
c0
c0
c0
c0
c0
c0
c0
78
00
00
00
ENDCHAR
STARTCHAR 264
ENCODING 264
SWIDTH 1000 1000
DWIDTH 7 16
BBX 7 16 0 -3
BITMAP
38
6c
00
7c
c0
c0
c0
c0
c0
c0
c0
c0
7c
00
00
00
ENDCHAR
STARTCHAR 265
ENCODING 265
SWIDTH 1000 1000
DWIDTH 7 16
BBX 7 16 0 -3
BITMAP
10
38
6c
00
7c
c0
c0
c0
c0
c0
c0
c0
7c
00
00
00
ENDCHAR
STARTCHAR 266
ENCODING 266
SWIDTH 1000 1000
DWIDTH 7 16
BBX 7 16 0 -3
BITMAP
18
18
00
7c
c0
c0
c0
c0
c0
c0
c0
c0
7c
00
00
00
ENDCHAR
STARTCHAR 267
ENCODING 267
SWIDTH 1000 1000
DWIDTH 6 16
BBX 6 16 0 -3
BITMAP
00
30
30
00
78
c0
c0
c0
c0
c0
c0
c0
78
00
00
00
ENDCHAR
STARTCHAR 268
ENCODING 268
SWIDTH 1000 1000
DWIDTH 7 16
BBX 7 16 0 -3
BITMAP
cc
30
00
7c
c0
c0
c0
c0
c0
c0
c0
c0
7c
00
00
00
ENDCHAR
STARTCHAR 269
ENCODING 269
SWIDTH 1000 1000
DWIDTH 6 16
BBX 6 16 0 -3
BITMAP
00
48
30
00
78
c0
c0
c0
c0
c0
c0
c0
78
00
00
00
ENDCHAR
STARTCHAR 270
ENCODING 270
SWIDTH 1000 1000
DWIDTH 11 16
BBX 11 16 0 -3
BITMAP
0000
0000
0000
fc40
c640
c340
c380
c300
c300
c300
c300
c600
fc00
0000
0000
0000
ENDCHAR
STARTCHAR 271
ENCODING 271
SWIDTH 1000 1000
DWIDTH 10 16
BBX 10 16 0 -3
BITMAP
0000
0680
0680
0680
7f00
c600
c600
c600
c600
c600
c600
c600
7a00
0000
0000
0000
ENDCHAR
STARTCHAR 272
ENCODING 272
SWIDTH 1000 1000
DWIDTH 10 16
BBX 10 16 0 -3
BITMAP
0000
0000
7e00
6300
6180
6180
6180
f980
6180
6180
6180
6300
7e00
0000
0000
0000
ENDCHAR
STARTCHAR 273
ENCODING 273
SWIDTH 1000 1000
DWIDTH 9 16
BBX 9 16 0 -3
BITMAP
0600
1f00
0600
0600
7e00
c600
c600
c600
c600
c600
c600
c600
7a00
0000
0000
0000
ENDCHAR
STARTCHAR 274
ENCODING 274
SWIDTH 1000 1000
DWIDTH 7 16
BBX 7 16 0 -3
BITMAP
00
78
00
fc
c0
c0
c0
fc
c0
c0
c0
c0
fc
00
00
00
ENDCHAR
STARTCHAR 275
ENCODING 275
SWIDTH 1000 1000
DWIDTH 8 16
BBX 8 16 0 -3
BITMAP
00
00
7c
00
7c
c6
c6
c6
fe
c0
c0
c0
7e
00
00
00
ENDCHAR
STARTCHAR 276
ENCODING 276
SWIDTH 1000 1000
DWIDTH 7 16
BBX 7 16 0 -3
BITMAP
88
70
00
fc
c0
c0
c0
fc
c0
c0
c0
c0
fc
00
00
00
ENDCHAR
STARTCHAR 277
ENCODING 277
SWIDTH 1000 1000
DWIDTH 8 16
BBX 8 16 0 -3
BITMAP
00
44
38
00
7c
c6
c6
c6
fe
c0
c0
c0
7e
00
00
00
ENDCHAR
STARTCHAR 278
ENCODING 278
SWIDTH 1000 1000
DWIDTH 7 16
BBX 7 16 0 -3
BITMAP
40
40
00
fc
c0
c0
c0
fc
c0
c0
c0
c0
fc
00
00
00
ENDCHAR
STARTCHAR 279
ENCODING 279
SWIDTH 1000 1000
DWIDTH 8 16
BBX 8 16 0 -3
BITMAP
00
40
40
00
7c
c6
c6
c6
fe
c0
c0
c0
7c
00
00
00
ENDCHAR
STARTCHAR 280
ENCODING 280
SWIDTH 1000 1000
DWIDTH 7 16
BBX 7 16 0 -3
BITMAP
00
00
00
fc
c0
c0
c0
fc
c0
c0
c0
c0
fc
10
0c
00
ENDCHAR
STARTCHAR 281
ENCODING 281
SWIDTH 1000 1000
DWIDTH 8 16
BBX 8 16 0 -3
BITMAP
00
00
00
7c
c6
c6
c6
fe
c0
c0
c0
7e
10
0c
00
00
ENDCHAR
STARTCHAR 282
ENCODING 282
SWIDTH 1000 1000
DWIDTH 7 16
BBX 7 16 0 -3
BITMAP
88
70
00
fc
c0
c0
c0
fc
c0
c0
c0
c0
fc
00
00
00
ENDCHAR
STARTCHAR 283
ENCODING 283
SWIDTH 1000 1000
DWIDTH 8 16
BBX 8 16 0 -3
BITMAP
00
28
10
00
7c
c6
c6
c6
fe
c0
c0
c0
7e
00
00
00
ENDCHAR
STARTCHAR 284
ENCODING 284
SWIDTH 1000 1000
DWIDTH 8 16
BBX 8 16 0 -3
BITMAP
1c
36
00
7e
c0
c0
c0
ce
c6
c6
c6
c6
7a
00
00
00
ENDCHAR
STARTCHAR 285
ENCODING 285
SWIDTH 1000 1000
DWIDTH 8 16
BBX 8 16 0 -3
BITMAP
00
00
38
6c
00
7a
c6
c6
c6
c6
c6
c6
7e
06
06
7c
ENDCHAR
STARTCHAR 286
ENCODING 286
SWIDTH 1000 1000
DWIDTH 8 16
BBX 8 16 0 -3
BITMAP
22
1c
00
7e
c0
c0
c0
ce
c6
c6
c6
c6
7a
00
00
00
ENDCHAR
STARTCHAR 287
ENCODING 287
SWIDTH 1000 1000
DWIDTH 8 16
BBX 8 16 0 -3
BITMAP
00
00
48
30
00
7a
c6
c6
c6
c6
c6
c6
7e
06
06
7c
ENDCHAR
STARTCHAR 288
ENCODING 288
SWIDTH 1000 1000
DWIDTH 8 16
BBX 8 16 0 -3
BITMAP
18
18
00
7e
c0
c0
c0
ce
c6
c6
c6
c6
7c
00
00
00
ENDCHAR
STARTCHAR 289
ENCODING 289
SWIDTH 1000 1000
DWIDTH 8 16
BBX 8 16 0 -3
BITMAP
00
30
30
00
7a
c6
c6
c6
c6
c6
c6
c6
7e
06
06
fc
ENDCHAR
STARTCHAR 290
ENCODING 290
SWIDTH 1000 1000
DWIDTH 8 16
BBX 8 16 0 -3
BITMAP
00
00
7e
c0
c0
c0
c0
ce
c6
c6
c6
c6
7c
10
20
00
ENDCHAR
STARTCHAR 291
ENCODING 291
SWIDTH 1000 1000
DWIDTH 8 16
BBX 8 16 0 -3
BITMAP
00
20
30
00
7a
fe
c6
c6
c6
c6
c6
c6
7e
06
06
7c
ENDCHAR
STARTCHAR 292
ENCODING 292
SWIDTH 1000 1000
DWIDTH 9 16
BBX 9 16 0 -3
BITMAP
0000
0000
c300
c300
c300
c300
c300
ff00
c300
c300
c300
c300
c300
0000
0000
0000
ENDCHAR
STARTCHAR 293
ENCODING 293
SWIDTH 1000 1000
DWIDTH 8 16
BBX 8 16 0 -3
BITMAP
00
00
c0
c0
c0
fc
c6
c6
c6
c6
c6
c6
c6
00
00
00
ENDCHAR
STARTCHAR 294
ENCODING 294
SWIDTH 1000 1000
DWIDTH 11 16
BBX 11 16 0 -3
BITMAP
0000
0000
6180
6180
6180
ffc0
6180
6180
7f80
6180
6180
6180
6180
6180
0000
0000
ENDCHAR
STARTCHAR 295
ENCODING 295
SWIDTH 1000 1000
DWIDTH 9 16
BBX 9 16 0 -3
BITMAP
0000
0000
6000
f800
6000
7e00
6300
6300
6300
6300
6300
6300
6300
0000
0000
0000
ENDCHAR
STARTCHAR 296
ENCODING 296
SWIDTH 1000 1000
DWIDTH 7 16
BBX 7 16 0 -3
BITMAP
00
dc
00
60
60
60
60
60
60
60
60
60
60
60
00
00
ENDCHAR
STARTCHAR 297
ENCODING 297
SWIDTH 1000 1000
DWIDTH 6 16
BBX 6 16 0 -3
BITMAP
00
00
98
00
30
30
30
30
30
30
30
30
30
00
00
00
ENDCHAR
STARTCHAR 298
ENCODING 298
SWIDTH 1000 1000
DWIDTH 5 16
BBX 5 16 0 -3
BITMAP
00
f0
00
60
60
60
60
60
60
60
60
60
60
00
00
00
ENDCHAR
STARTCHAR 299
ENCODING 299
SWIDTH 1000 1000
DWIDTH 5 16
BBX 5 16 0 -3
BITMAP
00
00
f0
00
60
60
60
60
60
60
60
60
60
00
00
00
ENDCHAR
STARTCHAR 300
ENCODING 300
SWIDTH 1000 1000
DWIDTH 3 16
BBX 3 16 0 -3
BITMAP
00
c0
00
c0
c0
c0
c0
c0
c0
c0
c0
c0
c0
00
00
00
ENDCHAR
STARTCHAR 301
ENCODING 301
SWIDTH 1000 1000
DWIDTH 4 16
BBX 4 16 0 -3
BITMAP
00
00
e0
00
60
60
60
60
60
60
60
60
60
00
00
00
ENDCHAR
STARTCHAR 302
ENCODING 302
SWIDTH 1000 1000
DWIDTH 4 16
BBX 4 16 0 -3
BITMAP
00
00
c0
c0
c0
c0
c0
c0
c0
c0
c0
c0
c0
80
60
00
ENDCHAR
STARTCHAR 303
ENCODING 303
SWIDTH 1000 1000
DWIDTH 4 16
BBX 4 16 0 -3
BITMAP
00
c0
c0
00
c0
c0
c0
c0
c0
c0
c0
c0
c0
80
60
00
ENDCHAR
STARTCHAR 304
ENCODING 304
SWIDTH 1000 1000
DWIDTH 3 16
BBX 3 16 0 -3
BITMAP
00
00
c0
c0
c0
c0
c0
c0
c0
c0
c0
c0
c0
00
00
00
ENDCHAR
STARTCHAR 305
ENCODING 305
SWIDTH 1000 1000
DWIDTH 3 16
BBX 3 16 0 -3
BITMAP
00
00
00
00
c0
c0
c0
c0
c0
c0
c0
c0
c0
00
00
00
ENDCHAR
STARTCHAR 306
ENCODING 306
SWIDTH 1000 1000
DWIDTH 10 16
BBX 10 16 0 -3
BITMAP
0000
0000
f780
6300
6300
6300
6300
6300
6300
6300
6300
6300
f300
0300
0300
0600
ENDCHAR
STARTCHAR 307
ENCODING 307
SWIDTH 1000 1000
DWIDTH 6 16
BBX 6 16 0 -3
BITMAP
00
d8
d8
00
d8
d8
d8
d8
d8
d8
d8
d8
d8
18
18
30
ENDCHAR
STARTCHAR 308
ENCODING 308
SWIDTH 1000 1000
DWIDTH 6 16
BBX 6 16 0 -3
BITMAP
70
d8
00
f0
60
60
60
60
60
60
60
60
60
60
60
c0
ENDCHAR
STARTCHAR 309
ENCODING 309
SWIDTH 1000 1000
DWIDTH 7 16
BBX 7 16 0 -3
BITMAP
70
d8
00
30
30
00
30
30
30
30
30
30
30
30
30
60
ENDCHAR
STARTCHAR 310
ENCODING 310
SWIDTH 1000 1000
DWIDTH 8 16
BBX 8 16 0 -3
BITMAP
00
00
c6
c6
cc
cc
d8
f8
d8
cc
cc
c6
f6
10
20
00
ENDCHAR
STARTCHAR 311
ENCODING 311
SWIDTH 1000 1000
DWIDTH 8 16
BBX 8 16 0 -3
BITMAP
00
00
c0
c0
c6
cc
cc
d8
f0
d8
cc
cc
e6
20
40
00
ENDCHAR
STARTCHAR 312
ENCODING 312
SWIDTH 1000 1000
DWIDTH 8 16
BBX 8 16 0 -3
BITMAP
00
c0
c0
c0
c6
cc
cc
d8
f0
d8
cc
cc
c6
00
00
00
ENDCHAR
STARTCHAR 313
ENCODING 313
SWIDTH 1000 1000
DWIDTH 7 16
BBX 7 16 0 -3
BITMAP
00
00
c0
c0
c0
c0
c0
c0
c0
c0
c0
c0
fc
00
00
00
ENDCHAR
STARTCHAR 314
ENCODING 314
SWIDTH 1000 1000
DWIDTH 4 16
BBX 4 16 0 -3
BITMAP
00
00
e0
60
60
60
60
60
60
60
60
60
60
00
00
00
ENDCHAR
STARTCHAR 315
ENCODING 315
SWIDTH 1000 1000
DWIDTH 7 16
BBX 7 16 0 -3
BITMAP
00
00
c0
c0
c0
c0
c0
c0
c0
c0
c0
c0
fc
10
20
00
ENDCHAR
STARTCHAR 316
ENCODING 316
SWIDTH 1000 1000
DWIDTH 4 16
BBX 4 16 0 -3
BITMAP
00
00
e0
60
60
60
60
60
60
60
60
60
e0
40
80
00
ENDCHAR
STARTCHAR 317
ENCODING 317
SWIDTH 1000 1000
DWIDTH 7 16
BBX 7 16 0 -3
BITMAP
00
00
cc
cc
c4
c8
c0
c0
c0
c0
c0
c0
fc
00
00
00
ENDCHAR
STARTCHAR 318
ENCODING 318
SWIDTH 1000 1000
DWIDTH 7 16
BBX 7 16 0 -3
BITMAP
00
00
ec
6c
64
68
60
60
60
60
60
60
60
00
00
00
ENDCHAR
STARTCHAR 319
ENCODING 319
SWIDTH 1000 1000
DWIDTH 7 16
BBX 7 16 0 -3
BITMAP
00
00
c0
c0
c0
c0
cc
cc
c0
c0
c0
c0
fc
00
00
00
ENDCHAR
STARTCHAR 320
ENCODING 320
SWIDTH 1000 1000
DWIDTH 6 16
BBX 6 16 0 -3
BITMAP
00
00
c0
c0
c0
c0
d8
d8
c0
c0
c0
c0
c0
00
00
00
ENDCHAR
STARTCHAR 321
ENCODING 321
SWIDTH 1000 1000
DWIDTH 8 16
BBX 8 16 0 -3
BITMAP
00
00
60
60
60
68
70
60
e0
60
60
60
7e
00
00
00
ENDCHAR
STARTCHAR 322
ENCODING 322
SWIDTH 1000 1000
DWIDTH 7 16
BBX 7 16 0 -3
BITMAP
00
00
70
30
30
34
38
30
70
b0
30
30
30
00
00
00
ENDCHAR
STARTCHAR 323
ENCODING 323
SWIDTH 1000 1000
DWIDTH 9 16
BBX 9 16 0 -3
BITMAP
0800
1000
8300
c300
c300
e300
f300
db00
cb00
cf00
c700
c300
c100
0000
0000
0000
ENDCHAR
STARTCHAR 324
ENCODING 324
SWIDTH 1000 1000
DWIDTH 8 16
BBX 8 16 0 -3
BITMAP
00
08
10
00
bc
c6
c6
c6
c6
c6
c6
c6
c6
00
00
00
ENDCHAR
STARTCHAR 325
ENCODING 325
SWIDTH 1000 1000
DWIDTH 9 16
BBX 9 16 0 -3
BITMAP
0000
0000
8300
c300
c300
e300
f300
db00
cb00
cf00
c700
c300
f100
1000
2000
0000
ENDCHAR
STARTCHAR 326
ENCODING 326
SWIDTH 1000 1000
DWIDTH 8 16
BBX 8 16 0 -3
BITMAP
00
00
00
00
bc
c6
c6
c6
c6
c6
c6
c6
f6
10
20
00
ENDCHAR
STARTCHAR 327
ENCODING 327
SWIDTH 1000 1000
DWIDTH 9 16
BBX 9 16 0 -3
BITMAP
6600
1800
8300
c300
c300
e300
f300
db00
cb00
cf00
c700
c300
c100
0000
0000
0000
ENDCHAR
STARTCHAR 328
ENCODING 328
SWIDTH 1000 1000
DWIDTH 8 16
BBX 8 16 0 -3
BITMAP
00
6c
38
00
bc
c6
c6
c6
c6
c6
c6
c6
c6
00
00
00
ENDCHAR
STARTCHAR 329
ENCODING 329
SWIDTH 1000 1000
DWIDTH 9 16
BBX 9 16 0 -3
BITMAP
0000
4000
4000
8000
5e00
6300
6300
6300
6300
6300
6300
6300
6300
0080
0000
0000
ENDCHAR
STARTCHAR 330
ENCODING 330
SWIDTH 1000 1000
DWIDTH 9 16
BBX 9 16 0 -3
BITMAP
0000
0000
8300
c300
c300
e300
f300
d300
db00
cb00
cf00
c300
c100
0300
0400
0000
ENDCHAR
STARTCHAR 331
ENCODING 331
SWIDTH 1000 1000
DWIDTH 8 16
BBX 8 16 0 -3
BITMAP
00
00
00
00
bc
c6
c6
c6
c6
c6
c6
c6
c6
06
08
00
ENDCHAR
STARTCHAR 332
ENCODING 332
SWIDTH 1000 1000
DWIDTH 9 16
BBX 9 16 0 -3
BITMAP
7e00
0000
7e00
c300
c300
c300
c300
c300
c300
c300
c300
c300
7e00
0000
0000
0000
ENDCHAR
STARTCHAR 333
ENCODING 333
SWIDTH 1000 1000
DWIDTH 8 16
BBX 8 16 0 -3
BITMAP
00
00
7c
00
7c
c6
c6
c6
c6
c6
c6
7c
00
00
00
00
ENDCHAR
STARTCHAR 334
ENCODING 334
SWIDTH 1000 1000
DWIDTH 9 16
BBX 9 16 0 -3
BITMAP
4200
3c00
0000
7e00
c300
c300
c300
c300
c300
c300
c300
c300
7e00
0000
0000
0000
ENDCHAR
STARTCHAR 335
ENCODING 335
SWIDTH 1000 1000
DWIDTH 8 16
BBX 8 16 0 -3
BITMAP
00
44
38
00
7c
c6
c6
c6
c6
c6
c6
c6
7c
00
00
00
ENDCHAR
STARTCHAR 336
ENCODING 336
SWIDTH 1000 1000
DWIDTH 9 16
BBX 9 16 0 -3
BITMAP
1200
2400
0000
7e00
c300
c300
c300
c300
c300
c300
c300
c300
7e00
0000
0000
0000
ENDCHAR
STARTCHAR 337
ENCODING 337
SWIDTH 1000 1000
DWIDTH 8 16
BBX 8 16 0 -3
BITMAP
00
24
48
00
7c
c6
c6
c6
c6
c6
c6
c6
7c
00
00
00
ENDCHAR
STARTCHAR 338
ENCODING 338
SWIDTH 1000 1000
DWIDTH 13 16
BBX 13 16 0 -3
BITMAP
0000
0000
7ff0
c300
c300
c300
c300
c3f0
c300
c300
c300
c300
7ff0
0000
0000
0000
ENDCHAR
STARTCHAR 339
ENCODING 339
SWIDTH 1000 1000
DWIDTH 11 16
BBX 11 16 0 -3
BITMAP
0000
0000
0000
0000
7bc0
c600
c600
c600
c7c0
c600
c600
c600
7bc0
0000
0000
0000
ENDCHAR
STARTCHAR 340
ENCODING 340
SWIDTH 1000 1000
DWIDTH 9 16
BBX 9 16 0 -3
BITMAP
0800
1000
0000
fc00
c600
c300
c300
c600
fc00
cc00
c600
c600
c300
c300
0000
0000
ENDCHAR
STARTCHAR 341
ENCODING 341
SWIDTH 1000 1000
DWIDTH 5 16
BBX 5 16 0 -3
BITMAP
00
10
20
00
b0
f0
c0
c0
c0
c0
c0
c0
c0
00
00
00
ENDCHAR
STARTCHAR 342
ENCODING 342
SWIDTH 1000 1000
DWIDTH 9 16
BBX 9 16 0 -3
BITMAP
0000
0000
fc00
c600
c300
c300
c600
fc00
cc00
c600
c700
c300
f300
1000
2000
0000
ENDCHAR
STARTCHAR 343
ENCODING 343
SWIDTH 1000 1000
DWIDTH 6 16
BBX 6 16 0 -3
BITMAP
00
00
00
00
b0
f0
c0
c0
c0
c0
c0
c0
d8
08
10
00
ENDCHAR
STARTCHAR 344
ENCODING 344
SWIDTH 1000 1000
DWIDTH 9 16
BBX 9 16 0 -3
BITMAP
2400
1800
0000
fc00
c600
c300
c300
c600
fc00
cc00
c600
c700
c300
c300
0000
0000
ENDCHAR
STARTCHAR 345
ENCODING 345
SWIDTH 1000 1000
DWIDTH 5 16
BBX 5 16 0 -3
BITMAP
00
a0
40
00
b0
f0
c0
c0
c0
c0
c0
c0
c0
00
00
00
ENDCHAR
STARTCHAR 346
ENCODING 346
SWIDTH 1000 1000
DWIDTH 8 16
BBX 8 16 0 -3
BITMAP
08
10
00
7e
c0
e0
70
38
1c
0e
06
06
fc
00
00
00
ENDCHAR
STARTCHAR 347
ENCODING 347
SWIDTH 1000 1000
DWIDTH 7 16
BBX 7 16 0 -3
BITMAP
10
20
00
7c
c0
c0
e0
70
38
1c
0c
0c
f8
00
00
00
ENDCHAR
STARTCHAR 348
ENCODING 348
SWIDTH 1000 1000
DWIDTH 8 16
BBX 8 16 0 -3
BITMAP
1c
36
00
7e
c0
e0
70
38
1c
0e
06
06
fc
00
00
00
ENDCHAR
STARTCHAR 349
ENCODING 349
SWIDTH 1000 1000
DWIDTH 7 16
BBX 7 16 0 -3
BITMAP
38
6c
00
7c
c0
c0
e0
70
38
1c
0c
0c
f8
00
00
00
ENDCHAR
STARTCHAR 350
ENCODING 350
SWIDTH 1000 1000
DWIDTH 8 16
BBX 8 16 0 -3
BITMAP
00
00
7e
c0
c0
e0
70
38
1c
0e
06
06
fc
10
60
00
ENDCHAR
STARTCHAR 351
ENCODING 351
SWIDTH 1000 1000
DWIDTH 7 16
BBX 7 16 0 -3
BITMAP
00
00
00
7c
c0
c0
e0
70
38
1c
0c
0c
f8
10
60
00
ENDCHAR
STARTCHAR 352
ENCODING 352
SWIDTH 1000 1000
DWIDTH 8 16
BBX 8 16 0 -3
BITMAP
24
18
00
7e
c0
e0
70
38
1c
0e
06
06
fc
00
00
00
ENDCHAR
STARTCHAR 353
ENCODING 353
SWIDTH 1000 1000
DWIDTH 7 16
BBX 7 16 0 -3
BITMAP
48
30
00
7c
c0
c0
e0
70
38
1c
0c
0c
f8
00
00
00
ENDCHAR
STARTCHAR 354
ENCODING 354
SWIDTH 1000 1000
DWIDTH 9 16
BBX 9 16 0 -3
BITMAP
0000
0000
ff00
1800
1800
1800
1800
1800
1800
1800
1800
1800
1c00
0400
0800
0000
ENDCHAR
STARTCHAR 355
ENCODING 355
SWIDTH 1000 1000
DWIDTH 6 16
BBX 6 16 0 -3
BITMAP
00
00
20
60
f8
60
60
60
60
60
60
60
60
38
20
40
ENDCHAR
STARTCHAR 356
ENCODING 356
SWIDTH 1000 1000
DWIDTH 9 16
BBX 9 16 0 -3
BITMAP
0300
0300
0100
ff00
1800
1800
1800
1800
1800
1800
1800
1800
1800
0000
0000
0000
ENDCHAR
STARTCHAR 357
ENCODING 357
SWIDTH 1000 1000
DWIDTH 7 16
BBX 7 16 0 -3
BITMAP
00
0c
2c
64
f8
60
60
60
60
60
60
60
60
18
00
00
ENDCHAR
STARTCHAR 358
ENCODING 358
SWIDTH 1000 1000
DWIDTH 9 16
BBX 9 16 0 -3
BITMAP
0000
0000
ff00
1800
1800
1800
7e00
1800
1800
1800
1800
1800
1800
0000
0000
0000
ENDCHAR
STARTCHAR 359
ENCODING 359
SWIDTH 1000 1000
DWIDTH 6 16
BBX 6 16 0 -3
BITMAP
00
00
20
60
f8
60
60
f0
60
60
60
60
60
38
00
00
ENDCHAR
STARTCHAR 360
ENCODING 360
SWIDTH 1000 1000
DWIDTH 9 16
BBX 9 16 0 -3
BITMAP
3200
4c00
0000
c300
c300
c300
c300
c300
c300
c300
c300
c300
7e00
0000
0000
0000
ENDCHAR
STARTCHAR 361
ENCODING 361
SWIDTH 1000 1000
DWIDTH 8 16
BBX 8 16 0 -3
BITMAP
00
64
98
00
c6
c6
c6
c6
c6
c6
c6
c6
7a
00
00
00
ENDCHAR
STARTCHAR 362
ENCODING 362
SWIDTH 1000 1000
DWIDTH 9 16
BBX 9 16 0 -3
BITMAP
0000
7e00
0000
c300
c300
c300
c300
c300
c300
c300
c300
c300
7d00
0000
0000
0000
ENDCHAR
STARTCHAR 363
ENCODING 363
SWIDTH 1000 1000
DWIDTH 8 16
BBX 8 16 0 -3
BITMAP
00
00
7c
00
c6
c6
c6
c6
c6
c6
c6
c6
7a
00
00
00
ENDCHAR
STARTCHAR 364
ENCODING 364
SWIDTH 1000 1000
DWIDTH 9 16
BBX 9 16 0 -3
BITMAP
4200
3c00
0000
c300
c300
c300
c300
c300
c300
c300
c300
c300
7e00
0000
0000
0000
ENDCHAR
STARTCHAR 365
ENCODING 365
SWIDTH 1000 1000
DWIDTH 8 16
BBX 8 16 0 -3
BITMAP
00
44
38
00
c6
c6
c6
c6
c6
c6
c6
c6
7a
00
00
00
ENDCHAR
STARTCHAR 366
ENCODING 366
SWIDTH 1000 1000
DWIDTH 9 16
BBX 9 16 0 -3
BITMAP
2400
1800
0000
c300
c300
c300
c300
c300
c300
c300
c300
c300
7d00
0000
0000
0000
ENDCHAR
STARTCHAR 367
ENCODING 367
SWIDTH 1000 1000
DWIDTH 8 16
BBX 8 16 0 -3
BITMAP
00
00
28
10
c6
c6
c6
c6
c6
c6
c6
c6
7a
00
00
00
ENDCHAR
STARTCHAR 368
ENCODING 368
SWIDTH 1000 1000
DWIDTH 9 16
BBX 9 16 0 -3
BITMAP
1200
2400
0000
c300
c300
c300
c300
c300
c300
c300
c300
c300
7d00
0000
0000
0000
ENDCHAR
STARTCHAR 369
ENCODING 369
SWIDTH 1000 1000
DWIDTH 8 16
BBX 8 16 0 -3
BITMAP
00
24
48
00
c6
c6
c6
c6
c6
c6
c6
c6
7a
00
00
00
ENDCHAR
STARTCHAR 370
ENCODING 370
SWIDTH 1000 1000
DWIDTH 9 16
BBX 9 16 0 -3
BITMAP
0000
0000
0000
c300
c300
c300
c300
c300
c300
c300
c300
c300
7e00
0800
0600
0000
ENDCHAR
STARTCHAR 371
ENCODING 371
SWIDTH 1000 1000
DWIDTH 8 16
BBX 8 16 0 -3
BITMAP
00
00
00
00
c6
c6
c6
c6
c6
c6
c6
c6
7a
08
06
00
ENDCHAR
STARTCHAR 372
ENCODING 372
SWIDTH 1000 1000
DWIDTH 11 16
BBX 11 16 0 -3
BITMAP
0000
1c00
3600
0000
ccc0
ccc0
ccc0
ccc0
ccc0
ccc0
ccc0
ccc0
7f80
3300
3300
0000
ENDCHAR
STARTCHAR 373
ENCODING 373
SWIDTH 1000 1000
DWIDTH 11 16
BBX 11 16 0 -3
BITMAP
0000
1c00
3600
0000
ccc0
ccc0
ccc0
ccc0
ccc0
ccc0
4c80
7f80
3300
0000
0000
0000
ENDCHAR
STARTCHAR 374
ENCODING 374
SWIDTH 1000 1000
DWIDTH 9 16
BBX 9 16 0 -3
BITMAP
1c00
3600
0000
c300
c300
c300
6600
6600
6600
3c00
1800
1800
1800
0000
0000
0000
ENDCHAR
STARTCHAR 375
ENCODING 375
SWIDTH 1000 1000
DWIDTH 8 16
BBX 8 16 0 -3
BITMAP
00
00
38
6c
00
c6
c6
c6
6c
6c
6c
38
30
30
e0
c0
ENDCHAR
STARTCHAR 376
ENCODING 376
SWIDTH 1000 1000
DWIDTH 9 16
BBX 9 16 0 -3
BITMAP
0000
0000
c300
c300
c300
6700
6600
6600
3c00
1800
1800
1800
1800
0000
0000
0000
ENDCHAR
STARTCHAR 377
ENCODING 377
SWIDTH 1000 1000
DWIDTH 8 16
BBX 8 16 0 -3
BITMAP
18
30
00
fe
06
0c
0c
18
30
30
60
60
c0
fe
00
00
ENDCHAR
STARTCHAR 378
ENCODING 378
SWIDTH 1000 1000
DWIDTH 7 16
BBX 7 16 0 -3
BITMAP
00
18
30
00
fc
0c
18
18
30
60
60
c0
fc
00
00
00
ENDCHAR
STARTCHAR 379
ENCODING 379
SWIDTH 1000 1000
DWIDTH 8 16
BBX 8 16 0 -3
BITMAP
18
18
00
fe
06
0c
0c
18
30
30
60
60
c0
fe
00
00
ENDCHAR
STARTCHAR 380
ENCODING 380
SWIDTH 1000 1000
DWIDTH 7 16
BBX 7 16 0 -3
BITMAP
00
30
30
00
fc
0c
18
18
30
60
60
c0
fc
00
00
00
ENDCHAR
STARTCHAR 381
ENCODING 381
SWIDTH 1000 1000
DWIDTH 8 16
BBX 8 16 0 -3
BITMAP
44
38
00
fe
06
0c
0c
18
30
30
60
60
c0
fe
00
00
ENDCHAR
STARTCHAR 382
ENCODING 382
SWIDTH 1000 1000
DWIDTH 7 16
BBX 7 16 0 -3
BITMAP
00
d8
70
00
fc
0c
18
18
30
60
60
c0
fc
00
00
00
ENDCHAR
STARTCHAR 383
ENCODING 383
SWIDTH 1000 1000
DWIDTH 7 16
BBX 7 16 0 -3
BITMAP
00
00
38
6c
60
e0
60
60
60
60
60
60
60
00
00
00
ENDCHAR
STARTCHAR 384
ENCODING 384
SWIDTH 1000 1000
DWIDTH 9 16
BBX 9 16 0 -3
BITMAP
0000
6000
f800
6000
7e00
6300
6300
6300
6300
6300
6300
6300
7e00
0000
0000
0000
ENDCHAR
STARTCHAR 385
ENCODING 385
SWIDTH 1000 1000
DWIDTH 12 16
BBX 12 16 0 -3
BITMAP
0000
0000
7f80
98c0
d860
d860
18c0
1f80
18c0
1860
1860
18c0
1f80
0000
0000
0000
ENDCHAR
STARTCHAR 386
ENCODING 386
SWIDTH 1000 1000
DWIDTH 8 16
BBX 8 16 0 -3
BITMAP
00
fc
c0
c0
fc
c6
c6
c6
c6
c6
c6
c6
fc
00
00
00
ENDCHAR
STARTCHAR 387
ENCODING 387
SWIDTH 1000 1000
DWIDTH 7 16
BBX 7 16 0 -3
BITMAP
00
00
f8
c0
c0
c0
f8
cc
cc
cc
cc
cc
f8
00
00
00
ENDCHAR
STARTCHAR 388
ENCODING 388
SWIDTH 1000 1000
DWIDTH 8 16
BBX 8 16 0 -3
BITMAP
00
c0
c0
c0
fc
c6
c6
c6
c6
c6
c6
c6
bc
00
00
00
ENDCHAR
STARTCHAR 389
ENCODING 389
SWIDTH 1000 1000
DWIDTH 8 16
BBX 8 16 0 -3
BITMAP
00
00
e0
60
60
60
7c
66
66
66
66
66
5c
00
00
00
ENDCHAR
STARTCHAR 390
ENCODING 390
SWIDTH 1000 1000
DWIDTH 8 16
BBX 8 16 0 -3
BITMAP
00
00
7c
c6
06
06
06
06
06
06
06
c6
7c
00
00
00
ENDCHAR
STARTCHAR 391
ENCODING 391
SWIDTH 1000 1000
DWIDTH 11 16
BBX 11 16 0 -3
BITMAP
0000
0000
7c00
c6c0
c0c0
c000
c000
c000
c000
c000
c000
c600
7c00
0000
0000
0000
ENDCHAR
STARTCHAR 392
ENCODING 392
SWIDTH 1000 1000
DWIDTH 10 16
BBX 10 16 0 -3
BITMAP
0000
0000
7f00
c100
c180
c180
c000
c000
c000
c000
c000
7c00
0000
0000
0000
0000
ENDCHAR
STARTCHAR 393
ENCODING 393
SWIDTH 1000 1000
DWIDTH 10 16
BBX 10 16 0 -3
BITMAP
0000
0000
7e00
6300
6180
6180
6180
f980
6180
6180
6180
6300
7e00
0000
0000
0000
ENDCHAR
STARTCHAR 394
ENCODING 394
SWIDTH 1000 1000
DWIDTH 11 16
BBX 11 16 0 -3
BITMAP
0000
0000
0000
7f00
9980
d8c0
d8c0
18c0
18c0
18c0
18c0
1980
1f00
0000
0000
0000
ENDCHAR
STARTCHAR 395
ENCODING 395
SWIDTH 1000 1000
DWIDTH 8 16
BBX 8 16 0 -3
BITMAP
00
7e
06
06
7e
c6
c6
c6
c6
c6
c6
c6
7a
00
00
00
ENDCHAR
STARTCHAR 396
ENCODING 396
SWIDTH 1000 1000
DWIDTH 7 16
BBX 7 16 0 -3
BITMAP
00
00
fc
0c
0c
0c
7c
cc
cc
cc
cc
cc
74
00
00
00
ENDCHAR
STARTCHAR 397
ENCODING 397
SWIDTH 1000 1000
DWIDTH 8 16
BBX 8 16 0 -3
BITMAP
00
00
00
00
7c
c6
c6
c6
c6
c6
c6
c6
7c
06
26
1c
ENDCHAR
STARTCHAR 398
ENCODING 398
SWIDTH 1000 1000
DWIDTH 7 16
BBX 7 16 0 -3
BITMAP
00
00
fc
0c
0c
0c
0c
fc
0c
0c
0c
0c
fc
00
00
00
ENDCHAR
STARTCHAR 399
ENCODING 399
SWIDTH 1000 1000
DWIDTH 8 16
BBX 8 16 0 -3
BITMAP
00
00
00
78
cc
06
06
fe
c6
c6
c6
6c
38
00
00
00
ENDCHAR
STARTCHAR 400
ENCODING 400
SWIDTH 1000 1000
DWIDTH 8 16
BBX 8 16 0 -3
BITMAP
00
00
7c
c6
c6
c0
c0
78
c0
c0
c6
c6
7c
00
00
00
ENDCHAR
STARTCHAR 401
ENCODING 401
SWIDTH 1000 1000
DWIDTH 8 16
BBX 8 16 0 -3
BITMAP
00
00
7e
60
60
60
60
7e
60
60
60
60
60
c0
00
00
ENDCHAR
STARTCHAR 402
ENCODING 402
SWIDTH 1000 1000
DWIDTH 5 16
BBX 5 16 0 -3
BITMAP
00
00
30
60
60
f0
60
60
60
60
60
60
60
c0
00
00
ENDCHAR
STARTCHAR 403
ENCODING 403
SWIDTH 1000 1000
DWIDTH 11 16
BBX 11 16 0 -3
BITMAP
0000
0000
7ec0
c0c0
c000
c000
c000
ce00
c600
c600
c600
c600
7a00
0000
0000
0000
ENDCHAR
STARTCHAR 404
ENCODING 404
SWIDTH 1000 1000
DWIDTH 10 16
BBX 10 16 0 -3
BITMAP
0000
0000
c180
c180
c180
6300
6300
6300
3600
3600
1c00
3600
3600
1c00
0000
0000
ENDCHAR
STARTCHAR 405
ENCODING 405
SWIDTH 1000 1000
DWIDTH 13 16
BBX 13 16 0 -3
BITMAP
0000
0000
c000
c000
c000
fc60
c630
c630
c630
c630
c630
c630
c7e0
0000
0000
0000
ENDCHAR
STARTCHAR 406
ENCODING 406
SWIDTH 1000 1000
DWIDTH 6 16
BBX 6 16 0 -3
BITMAP
00
00
60
60
60
60
60
60
60
60
60
60
68
30
00
00
ENDCHAR
STARTCHAR 407
ENCODING 407
SWIDTH 1000 1000
DWIDTH 5 16
BBX 5 16 0 -3
BITMAP
00
00
60
60
60
60
60
f0
60
60
60
60
60
00
00
00
ENDCHAR
STARTCHAR 408
ENCODING 408
SWIDTH 1000 1000
DWIDTH 10 16
BBX 10 16 0 -3
BITMAP
0000
c000
c600
c700
cd80
cd80
d800
f000
d800
cc00
cc00
c600
c600
0000
0000
0000
ENDCHAR
STARTCHAR 409
ENCODING 409
SWIDTH 1000 1000
DWIDTH 8 16
BBX 8 16 0 -3
BITMAP
00
70
d8
c0
c6
cc
cc
d8
f0
d8
cc
cc
c6
00
00
00
ENDCHAR
STARTCHAR 410
ENCODING 410
SWIDTH 1000 1000
DWIDTH 5 16
BBX 5 16 0 -3
BITMAP
00
00
60
60
60
60
f0
60
60
60
60
60
60
00
00
00
ENDCHAR
STARTCHAR 411
ENCODING 411
SWIDTH 1000 1000
DWIDTH 8 16
BBX 8 16 0 -3
BITMAP
00
00
70
18
18
1e
78
18
38
6c
6c
cc
c6
00
00
00
ENDCHAR
STARTCHAR 412
ENCODING 412
SWIDTH 1000 1000
DWIDTH 11 16
BBX 11 16 0 -3
BITMAP
0000
0000
0000
ccc0
ccc0
ccc0
ccc0
ccc0
ccc0
ccc0
ccc0
ccc0
7740
0000
0000
0000
ENDCHAR
STARTCHAR 413
ENCODING 413
SWIDTH 1000 1000
DWIDTH 10 16
BBX 10 16 0 -3
BITMAP
0000
0000
4180
6180
6180
7180
7980
6d80
6580
6780
6380
6180
6080
c000
0000
0000
ENDCHAR
STARTCHAR 414
ENCODING 414
SWIDTH 1000 1000
DWIDTH 8 16
BBX 8 16 0 -3
BITMAP
00
00
00
00
bc
c6
c6
c6
c6
c6
c6
c6
c6
06
06
06
ENDCHAR
STARTCHAR 415
ENCODING 415
SWIDTH 1000 1000
DWIDTH 8 16
BBX 8 16 0 -3
BITMAP
00
00
7c
c6
c6
c6
c6
7c
c6
c6
c6
c6
7c
00
00
00
ENDCHAR
STARTCHAR 416
ENCODING 416
SWIDTH 1000 1000
DWIDTH 11 16
BBX 11 16 0 -3
BITMAP
0000
0000
7e40
c340
c340
c380
c300
c300
c300
c300
c300
c300
7e00
0000
0000
0000
ENDCHAR
STARTCHAR 417
ENCODING 417
SWIDTH 1000 1000
DWIDTH 10 16
BBX 10 16 0 -3
BITMAP
0000
0000
0000
0000
7c80
c680
c700
c600
c600
c600
c600
c600
7c00
0000
0000
0000
ENDCHAR
STARTCHAR 418
ENCODING 418
SWIDTH 1000 1000
DWIDTH 12 16
BBX 12 16 0 -3
BITMAP
0000
0000
0000
7ec0
c360
c360
c360
c360
c360
c360
c360
c360
7e60
0060
0060
0060
ENDCHAR
STARTCHAR 419
ENCODING 419
SWIDTH 1000 1000
DWIDTH 12 16
BBX 12 16 0 -3
BITMAP
0000
0000
0000
0000
7dc0
c660
c660
c660
c660
c660
c660
c660
7c60
0060
0060
0060
ENDCHAR
STARTCHAR 420
ENCODING 420
SWIDTH 1000 1000
DWIDTH 12 16
BBX 12 16 0 -3
BITMAP
0000
0000
0000
7700
d980
d8c0
18c0
18c0
1980
1f00
1800
1800
1800
1800
1800
0000
ENDCHAR
STARTCHAR 421
ENCODING 421
SWIDTH 1000 1000
DWIDTH 8 16
BBX 8 16 0 -3
BITMAP
70
d8
c0
fc
c6
c6
c6
c6
c6
fc
c0
c0
c0
00
00
00
ENDCHAR
STARTCHAR 422
ENCODING 422
SWIDTH 1000 1000
DWIDTH 10 16
BBX 10 16 0 -3
BITMAP
0000
0000
fc00
c600
c200
c200
c600
fc00
cc00
c600
c600
c300
c300
0180
01c0
0000
ENDCHAR
STARTCHAR 423
ENCODING 423
SWIDTH 1000 1000
DWIDTH 8 16
BBX 8 16 0 -3
BITMAP
00
00
00
7c
c6
c6
0c
18
30
60
c6
c6
7c
00
00
00
ENDCHAR
STARTCHAR 424
ENCODING 424
SWIDTH 1000 1000
DWIDTH 7 16
BBX 7 16 0 -3
BITMAP
00
00
00
00
00
00
78
cc
0c
78
c0
cc
78
00
00
00
ENDCHAR
STARTCHAR 425
ENCODING 425
SWIDTH 1000 1000
DWIDTH 8 16
BBX 8 16 0 -3
BITMAP
00
00
00
fe
c0
60
30
18
18
30
60
c0
fe
00
00
00
ENDCHAR
STARTCHAR 426
ENCODING 426
SWIDTH 1000 1000
DWIDTH 9 16
BBX 9 16 0 -3
BITMAP
0000
7000
d800
d800
7800
1800
1800
1800
1800
1800
1800
1b00
0e00
0000
0000
0000
ENDCHAR
STARTCHAR 427
ENCODING 427
SWIDTH 1000 1000
DWIDTH 7 16
BBX 7 16 0 -3
BITMAP
00
00
60
60
60
f0
60
60
60
60
60
38
cc
78
00
00
ENDCHAR
STARTCHAR 428
ENCODING 428
SWIDTH 1000 1000
DWIDTH 10 16
BBX 10 16 0 -3
BITMAP
0000
0000
0000
7f80
8c00
cc00
cc00
0c00
0c00
0c00
0c00
0c00
0c00
0000
0000
0000
ENDCHAR
STARTCHAR 429
ENCODING 429
SWIDTH 1000 1000
DWIDTH 7 16
BBX 7 16 0 -3
BITMAP
00
00
20
60
f8
60
60
60
60
60
60
60
6c
38
00
00
ENDCHAR
STARTCHAR 430
ENCODING 430
SWIDTH 1000 1000
DWIDTH 9 16
BBX 9 16 0 -3
BITMAP
0000
0000
ff00
1800
1800
1800
1800
1800
1800
1800
1800
1800
1b00
0e00
0000
0000
ENDCHAR
STARTCHAR 431
ENCODING 431
SWIDTH 1000 1000
DWIDTH 11 16
BBX 11 16 0 -3
BITMAP
0000
0000
0000
c340
c340
c380
c300
c300
c300
c300
c300
c300
7e00
0000
0000
0000
ENDCHAR
STARTCHAR 432
ENCODING 432
SWIDTH 1000 1000
DWIDTH 10 16
BBX 10 16 0 -3
BITMAP
0000
0000
0000
0000
c680
c680
c700
c600
c600
c600
c600
c600
7a00
0000
0000
0000
ENDCHAR
STARTCHAR 433
ENCODING 433
SWIDTH 1000 1000
DWIDTH 9 16
BBX 9 16 0 -3
BITMAP
0000
0000
0000
e700
2400
6600
c300
c300
c300
c300
c300
6600
3c00
0000
0000
0000
ENDCHAR
STARTCHAR 434
ENCODING 434
SWIDTH 1000 1000
DWIDTH 9 16
BBX 9 16 0 -3
BITMAP
0000
0000
0000
c600
cb00
c300
c300
c300
c300
c300
c300
c300
7e00
0000
0000
0000
ENDCHAR
STARTCHAR 435
ENCODING 435
SWIDTH 1000 1000
DWIDTH 10 16
BBX 10 16 0 -3
BITMAP
0000
0000
7180
d980
d980
1980
0f00
0600
0600
0600
0600
0600
0000
0000
0000
0000
ENDCHAR
STARTCHAR 436
ENCODING 436
SWIDTH 1000 1000
DWIDTH 11 16
BBX 11 16 0 -3
BITMAP
0000
0000
0000
0000
c300
c6c0
c6c0
c600
6c00
6c00
6c00
3800
3000
3000
e000
c000
ENDCHAR
STARTCHAR 437
ENCODING 437
SWIDTH 1000 1000
DWIDTH 9 16
BBX 9 16 0 -3
BITMAP
0000
0000
ff00
0300
0e00
0c00
7e00
3000
3000
6000
6000
c000
fe00
0000
0000
0000
ENDCHAR
STARTCHAR 438
ENCODING 438
SWIDTH 1000 1000
DWIDTH 8 16
BBX 8 16 0 -3
BITMAP
00
00
00
00
fc
0c
18
7c
30
60
60
c0
fe
00
00
00
ENDCHAR
STARTCHAR 439
ENCODING 439
SWIDTH 1000 1000
DWIDTH 8 16
BBX 8 16 0 -3
BITMAP
00
00
fe
06
0c
18
30
3c
06
06
06
06
cc
78
00
00
ENDCHAR
STARTCHAR 440
ENCODING 440
SWIDTH 1000 1000
DWIDTH 8 16
BBX 8 16 0 -3
BITMAP
00
00
fe
c0
60
30
18
78
c0
c0
c0
c0
66
3c
00
00
ENDCHAR
STARTCHAR 441
ENCODING 441
SWIDTH 1000 1000
DWIDTH 7 16
BBX 7 16 0 -3
BITMAP
00
00
00
00
00
fc
c0
60
30
60
c0
c0
cc
78
00
00
ENDCHAR
STARTCHAR 442
ENCODING 442
SWIDTH 1000 1000
DWIDTH 7 16
BBX 7 16 0 -3
BITMAP
00
00
00
00
00
fc
18
30
78
0c
0c
78
c0
7c
00
00
ENDCHAR
STARTCHAR 443
ENCODING 443
SWIDTH 1000 1000
DWIDTH 7 16
BBX 7 16 0 -3
BITMAP
00
00
00
78
cc
0c
0c
18
fc
30
60
c0
fc
00
00
00
ENDCHAR
STARTCHAR 444
ENCODING 444
SWIDTH 1000 1000
DWIDTH 8 16
BBX 8 16 0 -3
BITMAP
00
00
00
fe
62
60
60
7c
46
06
06
c6
7c
00
00
00
ENDCHAR
STARTCHAR 445
ENCODING 445
SWIDTH 1000 1000
DWIDTH 7 16
BBX 7 16 0 -3
BITMAP
00
00
00
00
00
00
fc
64
60
78
0c
cc
78
00
00
00
ENDCHAR
STARTCHAR 446
ENCODING 446
SWIDTH 1000 1000
DWIDTH 7 16
BBX 7 16 0 -3
BITMAP
00
00
00
60
60
60
f8
60
60
78
0c
cc
78
00
00
00
ENDCHAR
STARTCHAR 447
ENCODING 447
SWIDTH 1000 1000
DWIDTH 8 16
BBX 8 16 0 -3
BITMAP
00
00
00
00
00
6c
f6
66
66
66
6c
70
60
c0
00
00
ENDCHAR
STARTCHAR 448
ENCODING 448
SWIDTH 1000 1000
DWIDTH 3 16
BBX 3 16 0 -3
BITMAP
00
00
c0
c0
c0
c0
c0
c0
c0
c0
c0
c0
c0
00
00
00
ENDCHAR
STARTCHAR 449
ENCODING 449
SWIDTH 1000 1000
DWIDTH 6 16
BBX 6 16 0 -3
BITMAP
00
00
d8
d8
d8
d8
d8
d8
d8
d8
d8
d8
d8
00
00
00
ENDCHAR
STARTCHAR 450
ENCODING 450
SWIDTH 1000 1000
DWIDTH 5 16
BBX 5 16 0 -3
BITMAP
00
00
60
60
60
60
f0
60
f0
60
60
60
60
00
00
00
ENDCHAR
STARTCHAR 451
ENCODING 451
SWIDTH 1000 1000
DWIDTH 3 16
BBX 3 16 0 -3
BITMAP
00
00
c0
c0
c0
c0
c0
c0
c0
c0
00
c0
c0
00
00
00
ENDCHAR
STARTCHAR 452
ENCODING 452
SWIDTH 1000 1000
DWIDTH 14 16
BBX 14 16 0 -3
BITMAP
0000
0000
0000
f000
d9f8
cc18
cc30
cc30
cc60
ccc0
ccc0
d980
f1f8
0000
0000
0000
ENDCHAR
STARTCHAR 453
ENCODING 453
SWIDTH 1000 1000
DWIDTH 14 16
BBX 14 16 0 -3
BITMAP
0000
0000
0000
f0d8
d870
cc00
cdf8
cc18
cc30
cc60
ccc0
d980
f1f8
0000
0000
0000
ENDCHAR
STARTCHAR 454
ENCODING 454
SWIDTH 1000 1000
DWIDTH 14 16
BBX 14 16 0 -3
BITMAP
0000
0000
0000
0cd8
0c70
0c00
7df8
cc18
cc30
cc60
ccc0
cd80
7df8
0000
0000
0000
ENDCHAR
STARTCHAR 455
ENCODING 455
SWIDTH 1000 1000
DWIDTH 12 16
BBX 12 16 0 -3
BITMAP
0000
0000
0000
c060
c060
c060
c060
c060
c060
c060
c060
c060
fdc0
0000
0000
0000
ENDCHAR
STARTCHAR 456
ENCODING 456
SWIDTH 1000 1000
DWIDTH 11 16
BBX 11 16 0 -3
BITMAP
0000
0000
0000
c0c0
c0c0
c000
c0c0
c0c0
c0c0
c0c0
c0c0
c0c0
f8c0
00c0
0380
0000
ENDCHAR
STARTCHAR 457
ENCODING 457
SWIDTH 1000 1000
DWIDTH 6 16
BBX 6 16 0 -3
BITMAP
00
00
d8
d8
c0
d8
d8
d8
d8
d8
d8
d8
d8
18
30
00
ENDCHAR
STARTCHAR 458
ENCODING 458
SWIDTH 1000 1000
DWIDTH 13 16
BBX 13 16 0 -3
BITMAP
0000
0000
8330
c330
c330
e330
f330
db30
cb30
cf30
c730
c330
c130
0060
0000
0000
ENDCHAR
STARTCHAR 459
ENCODING 459
SWIDTH 1000 1000
DWIDTH 13 16
BBX 13 16 0 -3
BITMAP
0000
0030
8330
c300
c330
e330
f330
db30
cb30
cf30
c730
c330
c130
0030
0060
0000
ENDCHAR
STARTCHAR 460
ENCODING 460
SWIDTH 1000 1000
DWIDTH 12 16
BBX 12 16 0 -3
BITMAP
0000
0000
0060
0060
bc00
c660
c660
c660
c660
c660
c660
c660
c660
0060
01c0
0000
ENDCHAR
STARTCHAR 461
ENCODING 461
SWIDTH 1000 1000
DWIDTH 8 16
BBX 8 16 0 -3
BITMAP
28
10
00
38
6c
c6
c6
c6
c6
fe
c6
c6
c6
00
00
00
ENDCHAR
STARTCHAR 462
ENCODING 462
SWIDTH 1000 1000
DWIDTH 7 16
BBX 7 16 0 -3
BITMAP
00
00
00
28
10
00
78
0c
0c
7c
cc
cc
74
00
00
00
ENDCHAR
STARTCHAR 463
ENCODING 463
SWIDTH 1000 1000
DWIDTH 3 16
BBX 3 16 0 -3
BITMAP
00
00
c0
c0
c0
c0
c0
c0
c0
c0
c0
c0
c0
00
00
00
ENDCHAR
STARTCHAR 464
ENCODING 464
SWIDTH 1000 1000
DWIDTH 3 16
BBX 3 16 0 -3
BITMAP
00
c0
c0
00
c0
c0
c0
c0
c0
c0
c0
c0
c0
00
00
00
ENDCHAR
STARTCHAR 465
ENCODING 465
SWIDTH 1000 1000
DWIDTH 9 16
BBX 9 16 0 -3
BITMAP
3600
1c00
0000
7e00
c300
c300
c300
c300
c300
c300
c300
c300
7e00
0000
0000
0000
ENDCHAR
STARTCHAR 466
ENCODING 466
SWIDTH 1000 1000
DWIDTH 8 16
BBX 8 16 0 -3
BITMAP
00
00
6c
38
00
7c
c6
c6
c6
c6
c6
c6
7c
00
00
00
ENDCHAR
STARTCHAR 467
ENCODING 467
SWIDTH 1000 1000
DWIDTH 9 16
BBX 9 16 0 -3
BITMAP
3600
1c00
0000
c300
c300
c300
c300
c300
c300
c300
c300
c300
7e00
0000
0000
0000
ENDCHAR
STARTCHAR 468
ENCODING 468
SWIDTH 1000 1000
DWIDTH 8 16
BBX 8 16 0 -3
BITMAP
00
00
6c
38
00
c6
c6
c6
c6
c6
c6
c6
7a
00
00
00
ENDCHAR
STARTCHAR 469
ENCODING 469
SWIDTH 1000 1000
DWIDTH 9 16
BBX 9 16 0 -3
BITMAP
7e00
0000
6600
0000
c300
c300
c300
c300
c300
c300
c300
c300
7e00
0000
0000
0000
ENDCHAR
STARTCHAR 470
ENCODING 470
SWIDTH 1000 1000
DWIDTH 8 16
BBX 8 16 0 -3
BITMAP
00
7c
00
6c
00
c6
c6
c6
c6
c6
c6
c6
7a
00
00
00
ENDCHAR
STARTCHAR 471
ENCODING 471
SWIDTH 1000 1000
DWIDTH 9 16
BBX 9 16 0 -3
BITMAP
0800
1000
6600
0000
c300
c300
c300
c300
c300
c300
c300
c300
7e00
0000
0000
0000
ENDCHAR
STARTCHAR 472
ENCODING 472
SWIDTH 1000 1000
DWIDTH 8 16
BBX 8 16 0 -3
BITMAP
00
04
08
66
00
c6
c6
c6
c6
c6
c6
c6
7a
00
00
00
ENDCHAR
STARTCHAR 473
ENCODING 473
SWIDTH 1000 1000
DWIDTH 9 16
BBX 9 16 0 -3
BITMAP
1400
0800
6300
0000
c300
c300
c300
c300
c300
c300
c300
c300
7e00
0000
0000
0000
ENDCHAR
STARTCHAR 474
ENCODING 474
SWIDTH 1000 1000
DWIDTH 8 16
BBX 8 16 0 -3
BITMAP
00
28
10
c6
00
c6
c6
c6
c6
c6
c6
c6
7a
00
00
00
ENDCHAR
STARTCHAR 475
ENCODING 475
SWIDTH 1000 1000
DWIDTH 9 16
BBX 9 16 0 -3
BITMAP
1000
0800
6600
0000
c300
c300
c300
c300
c300
c300
c300
c300
7e00
0000
0000
0000
ENDCHAR
STARTCHAR 476
ENCODING 476
SWIDTH 1000 1000
DWIDTH 8 16
BBX 8 16 0 -3
BITMAP
00
20
10
66
00
c6
c6
c6
c6
c6
c6
c6
7a
00
00
00
ENDCHAR
STARTCHAR 477
ENCODING 477
SWIDTH 1000 1000
DWIDTH 8 16
BBX 8 16 0 -3
BITMAP
00
00
00
00
7c
06
06
06
7e
c6
c6
c6
7a
00
00
00
ENDCHAR
STARTCHAR 478
ENCODING 478
SWIDTH 1000 1000
DWIDTH 8 16
BBX 8 16 0 -3
BITMAP
00
7c
00
6c
00
38
6c
c6
c6
fe
c6
c6
c6
00
00
00
ENDCHAR
STARTCHAR 479
ENCODING 479
SWIDTH 1000 1000
DWIDTH 8 16
BBX 8 16 0 -3
BITMAP
7c
00
6c
00
7c
06
06
06
7e
c6
c6
c6
7a
00
00
00
ENDCHAR
STARTCHAR 480
ENCODING 480
SWIDTH 1000 1000
DWIDTH 8 16
BBX 8 16 0 -3
BITMAP
00
78
00
30
00
38
6c
c6
c6
fe
c6
c6
c6
00
00
00
ENDCHAR
STARTCHAR 481
ENCODING 481
SWIDTH 1000 1000
DWIDTH 8 16
BBX 8 16 0 -3
BITMAP
00
78
00
30
00
7c
06
06
06
7e
c6
c6
c6
7a
00
00
ENDCHAR
STARTCHAR 482
ENCODING 482
SWIDTH 1000 1000
DWIDTH 10 16
BBX 10 16 0 -3
BITMAP
3f00
0000
3f80
6c00
4c00
cc00
cc00
cfc0
fc00
cc00
cc00
cc00
cf80
0000
0000
0000
ENDCHAR
STARTCHAR 483
ENCODING 483
SWIDTH 1000 1000
DWIDTH 11 16
BBX 11 16 0 -3
BITMAP
0000
0000
0000
0000
7b80
0cc0
0cc0
0cc0
7fc0
cc00
cc00
cc00
77c0
0000
0000
0000
ENDCHAR
STARTCHAR 484
ENCODING 484
SWIDTH 1000 1000
DWIDTH 9 16
BBX 9 16 0 -3
BITMAP
0000
0000
7e00
c000
c000
c000
c000
de00
c600
df00
c600
c600
7a00
0000
0000
0000
ENDCHAR
STARTCHAR 485
ENCODING 485
SWIDTH 1000 1000
DWIDTH 9 16
BBX 9 16 0 -3
BITMAP
0000
0000
0000
0000
0000
7a00
c600
c600
c600
c600
c600
c600
7e00
0600
1f00
7c00
ENDCHAR
STARTCHAR 486
ENCODING 486
SWIDTH 1000 1000
DWIDTH 8 16
BBX 8 16 0 -3
BITMAP
6c
38
00
7e
c0
c0
c0
c0
ce
c6
c6
c6
7a
00
00
00
ENDCHAR
STARTCHAR 487
ENCODING 487
SWIDTH 1000 1000
DWIDTH 8 16
BBX 8 16 0 -3
BITMAP
00
00
6c
38
00
7a
c6
c6
c6
c6
c6
c6
7e
06
06
7c
ENDCHAR
STARTCHAR 488
ENCODING 488
SWIDTH 1000 1000
DWIDTH 8 16
BBX 8 16 0 -3
BITMAP
00
00
c6
c6
cc
cc
d8
f0
d8
cc
cc
c6
c6
00
00
00
ENDCHAR
STARTCHAR 489
ENCODING 489
SWIDTH 1000 1000
DWIDTH 8 16
BBX 8 16 0 -3
BITMAP
00
c0
c0
c0
c6
cc
cc
d8
f0
d8
cc
cc
c6
00
00
00
ENDCHAR
STARTCHAR 490
ENCODING 490
SWIDTH 1000 1000
DWIDTH 9 16
BBX 9 16 0 -3
BITMAP
0000
0000
7e00
c300
c300
c300
c300
c300
c300
c300
c300
c300
7e00
1000
0c00
0000
ENDCHAR
STARTCHAR 491
ENCODING 491
SWIDTH 1000 1000
DWIDTH 8 16
BBX 8 16 0 -3
BITMAP
00
00
00
00
7c
c6
c6
c6
c6
c6
c6
c6
7c
10
0c
00
ENDCHAR
STARTCHAR 492
ENCODING 492
SWIDTH 1000 1000
DWIDTH 9 16
BBX 9 16 0 -3
BITMAP
3c00
0000
7e00
c300
c300
c300
c300
c300
c300
c300
c300
c300
7e00
1000
0c00
0000
ENDCHAR
STARTCHAR 493
ENCODING 493
SWIDTH 1000 1000
DWIDTH 8 16
BBX 8 16 0 -3
BITMAP
00
00
7c
00
7c
c6
c6
c6
c6
c6
c6
c6
7c
10
0c
00
ENDCHAR
STARTCHAR 494
ENCODING 494
SWIDTH 1000 1000
DWIDTH 8 16
BBX 8 16 0 -3
BITMAP
00
00
00
fe
0c
18
30
3c
06
06
06
06
cc
78
00
00
ENDCHAR
STARTCHAR 495
ENCODING 495
SWIDTH 1000 1000
DWIDTH 7 16
BBX 7 16 0 -3
BITMAP
00
00
d8
70
00
f8
18
30
38
0c
0c
0c
cc
78
00
00
ENDCHAR
STARTCHAR 496
ENCODING 496
SWIDTH 1000 1000
DWIDTH 6 16
BBX 6 16 0 -3
BITMAP
00
d8
70
00
30
30
30
30
30
30
30
30
30
30
60
00
ENDCHAR
STARTCHAR 497
ENCODING 497
SWIDTH 1000 1000
DWIDTH 14 16
BBX 14 16 0 -3
BITMAP
0000
0000
0000
f1f8
d818
cc30
cc30
cc60
cc60
ccc0
ccc0
d980
f1f8
0000
0000
0000
ENDCHAR
STARTCHAR 498
ENCODING 498
SWIDTH 1000 1000
DWIDTH 14 16
BBX 14 16 0 -3
BITMAP
0000
0000
0000
f000
d800
cc00
cdf8
cc18
cc30
cc60
ccc0
d980
f1f8
0000
0000
0000
ENDCHAR
STARTCHAR 499
ENCODING 499
SWIDTH 1000 1000
DWIDTH 14 16
BBX 14 16 0 -3
BITMAP
0000
0000
0000
0c00
0c00
0c00
7df8
cc18
cc30
cc60
ccc0
cd80
7df8
0000
0000
0000
ENDCHAR
STARTCHAR 500
ENCODING 500
SWIDTH 1000 1000
DWIDTH 8 16
BBX 8 16 0 -3
BITMAP
0c
18
00
7e
c0
c0
c0
ce
c6
c6
c6
c6
7c
00
00
00
ENDCHAR
STARTCHAR 501
ENCODING 501
SWIDTH 1000 1000
DWIDTH 8 16
BBX 8 16 0 -3
BITMAP
00
00
18
30
00
7a
c6
c6
c6
c6
c6
c6
7e
06
06
7c
ENDCHAR
STARTCHAR 502
ENCODING 502
SWIDTH 1000 1000
DWIDTH 14 16
BBX 14 16 0 -3
BITMAP
0000
0000
c330
c318
c318
c318
c318
ff18
c318
c318
c318
c318
c3f0
0000
0000
0000
ENDCHAR
STARTCHAR 503
ENCODING 503
SWIDTH 1000 1000
DWIDTH 9 16
BBX 9 16 0 -3
BITMAP
0000
0000
0000
0000
6e00
f300
6300
6300
6600
6600
6c00
7800
6000
6000
6000
c000
ENDCHAR
STARTCHAR 504
ENCODING 504
SWIDTH 1000 1000
DWIDTH 9 16
BBX 9 16 0 -3
BITMAP
3000
1800
8300
c300
c300
e300
f300
db00
cb00
cf00
c700
c300
c100
0000
0000
0000
ENDCHAR
STARTCHAR 505
ENCODING 505
SWIDTH 1000 1000
DWIDTH 8 16
BBX 8 16 0 -3
BITMAP
00
60
30
00
bc
c6
c6
c6
c6
c6
c6
c6
c6
00
00
00
ENDCHAR
STARTCHAR 506
ENCODING 506
SWIDTH 1000 1000
DWIDTH 8 16
BBX 8 16 0 -3
BITMAP
08
10
38
44
38
6c
c6
c6
c6
fe
c6
c6
c6
00
00
00
ENDCHAR
STARTCHAR 507
ENCODING 507
SWIDTH 1000 1000
DWIDTH 8 16
BBX 8 16 0 -3
BITMAP
08
10
38
44
7c
06
06
06
7e
c6
c6
c6
7a
00
00
00
ENDCHAR
STARTCHAR 508
ENCODING 508
SWIDTH 1000 1000
DWIDTH 10 16
BBX 10 16 0 -3
BITMAP
0600
0c00
0000
3fc0
6c00
4c00
cc00
cf80
fc00
cc00
cc00
cc00
cf80
0000
0000
0000
ENDCHAR
STARTCHAR 509
ENCODING 509
SWIDTH 1000 1000
DWIDTH 10 16
BBX 10 16 0 -3
BITMAP
0000
0c00
1800
0000
f700
1980
1980
1980
ff80
9800
9800
9800
ef80
0000
0000
0000
ENDCHAR
STARTCHAR 510
ENCODING 510
SWIDTH 1000 1000
DWIDTH 9 16
BBX 9 16 0 -3
BITMAP
0c00
1800
0100
7e00
c300
c700
c700
cb00
db00
d300
e300
e300
c300
7e00
8000
0000
ENDCHAR
STARTCHAR 511
ENCODING 511
SWIDTH 1000 1000
DWIDTH 8 16
BBX 8 16 0 -3
BITMAP
00
18
30
02
7c
c6
ce
ce
d6
e6
e6
c6
7c
80
00
00
ENDCHAR
STARTCHAR 512
ENCODING 512
SWIDTH 1000 1000
DWIDTH 8 16
BBX 8 16 0 -3
BITMAP
00
48
24
00
38
6c
c6
c6
c6
fe
c6
c6
c6
00
00
00
ENDCHAR
STARTCHAR 513
ENCODING 513
SWIDTH 1000 1000
DWIDTH 8 16
BBX 8 16 0 -3
BITMAP
00
48
24
00
7c
06
06
06
7e
c6
c6
c6
7a
00
00
00
ENDCHAR
STARTCHAR 514
ENCODING 514
SWIDTH 1000 1000
DWIDTH 8 16
BBX 8 16 0 -3
BITMAP
00
10
28
00
38
6c
c6
c6
c6
fe
c6
c6
c6
00
00
00
ENDCHAR
STARTCHAR 515
ENCODING 515
SWIDTH 1000 1000
DWIDTH 8 16
BBX 8 16 0 -3
BITMAP
00
10
28
00
7c
06
06
06
7e
c6
c6
c6
7a
00
00
00
ENDCHAR
STARTCHAR 516
ENCODING 516
SWIDTH 1000 1000
DWIDTH 7 16
BBX 7 16 0 -3
BITMAP
48
24
00
fc
c0
c0
c0
fc
c0
c0
c0
c0
fc
00
00
00
ENDCHAR
STARTCHAR 517
ENCODING 517
SWIDTH 1000 1000
DWIDTH 8 16
BBX 8 16 0 -3
BITMAP
00
48
24
00
7c
c6
c6
c6
fe
c0
c0
c0
7e
00
00
00
ENDCHAR
STARTCHAR 518
ENCODING 518
SWIDTH 1000 1000
DWIDTH 8 16
BBX 8 16 0 -3
BITMAP
10
28
00
fe
c0
c0
c0
fe
c0
c0
c0
c0
fe
00
00
00
ENDCHAR
STARTCHAR 519
ENCODING 519
SWIDTH 1000 1000
DWIDTH 8 16
BBX 8 16 0 -3
BITMAP
00
10
28
00
7c
c6
c6
c6
fe
c0
c0
c0
7e
00
00
00
ENDCHAR
STARTCHAR 520
ENCODING 520
SWIDTH 1000 1000
DWIDTH 5 16
BBX 5 16 0 -3
BITMAP
20
90
00
f0
60
60
60
60
60
60
60
60
60
f0
00
00
ENDCHAR
STARTCHAR 521
ENCODING 521
SWIDTH 1000 1000
DWIDTH 6 16
BBX 6 16 0 -3
BITMAP
90
48
00
30
30
30
30
30
30
30
30
30
30
00
00
00
ENDCHAR
STARTCHAR 522
ENCODING 522
SWIDTH 1000 1000
DWIDTH 5 16
BBX 5 16 0 -3
BITMAP
e0
10
00
c0
c0
c0
c0
c0
c0
c0
c0
c0
c0
00
00
00
ENDCHAR
STARTCHAR 523
ENCODING 523
SWIDTH 1000 1000
DWIDTH 6 16
BBX 6 16 0 -3
BITMAP
70
88
00
30
30
30
30
30
30
30
30
30
30
00
00
00
ENDCHAR
STARTCHAR 524
ENCODING 524
SWIDTH 1000 1000
DWIDTH 9 16
BBX 9 16 0 -3
BITMAP
4800
2400
0000
7e00
c300
c300
c300
c300
c300
c300
c300
c300
7e00
0000
0000
0000
ENDCHAR
STARTCHAR 525
ENCODING 525
SWIDTH 1000 1000
DWIDTH 8 16
BBX 8 16 0 -3
BITMAP
00
48
24
00
7c
c6
c6
c6
c6
c6
c6
c6
7c
00
00
00
ENDCHAR
STARTCHAR 526
ENCODING 526
SWIDTH 1000 1000
DWIDTH 9 16
BBX 9 16 0 -3
BITMAP
3800
4400
0000
7e00
c300
c300
c300
c300
c300
c300
c300
c300
7e00
0000
0000
0000
ENDCHAR
STARTCHAR 527
ENCODING 527
SWIDTH 1000 1000
DWIDTH 8 16
BBX 8 16 0 -3
BITMAP
00
38
44
00
7c
c6
c6
c6
c6
c6
c6
c6
7c
00
00
00
ENDCHAR
STARTCHAR 528
ENCODING 528
SWIDTH 1000 1000
DWIDTH 9 16
BBX 9 16 0 -3
BITMAP
9000
4800
0000
fc00
c600
c300
c600
fc00
cc00
c600
c600
c300
c300
0000
0000
0000
ENDCHAR
STARTCHAR 529
ENCODING 529
SWIDTH 1000 1000
DWIDTH 6 16
BBX 6 16 0 -3
BITMAP
90
48
00
b0
f0
c0
c0
c0
c0
c0
c0
c0
c0
00
00
00
ENDCHAR
STARTCHAR 530
ENCODING 530
SWIDTH 1000 1000
DWIDTH 9 16
BBX 9 16 0 -3
BITMAP
3800
4400
0000
fc00
c600
c300
c600
fc00
cc00
c600
c600
c300
c300
0000
0000
0000
ENDCHAR
STARTCHAR 531
ENCODING 531
SWIDTH 1000 1000
DWIDTH 6 16
BBX 6 16 0 -3
BITMAP
70
88
00
b0
f0
c0
c0
c0
c0
c0
c0
c0
c0
00
00
00
ENDCHAR
STARTCHAR 532
ENCODING 532
SWIDTH 1000 1000
DWIDTH 9 16
BBX 9 16 0 -3
BITMAP
4800
2400
0000
c300
c300
c300
c300
c300
c300
c300
c300
c300
7e00
0000
0000
0000
ENDCHAR
STARTCHAR 533
ENCODING 533
SWIDTH 1000 1000
DWIDTH 8 16
BBX 8 16 0 -3
BITMAP
00
90
48
00
c6
c6
c6
c6
c6
c6
c6
c6
7a
00
00
00
ENDCHAR
STARTCHAR 534
ENCODING 534
SWIDTH 1000 1000
DWIDTH 9 16
BBX 9 16 0 -3
BITMAP
1c00
2200
0000
c300
c300
c300
c300
c300
c300
c300
c300
c300
7e00
0000
0000
0000
ENDCHAR
STARTCHAR 535
ENCODING 535
SWIDTH 1000 1000
DWIDTH 8 16
BBX 8 16 0 -3
BITMAP
00
30
48
00
c6
c6
c6
c6
c6
c6
c6
c6
7a
00
00
00
ENDCHAR
STARTCHAR 536
ENCODING 536
SWIDTH 1000 1000
DWIDTH 8 16
BBX 8 16 0 -3
BITMAP
00
00
7e
c0
c0
e0
70
38
1c
0e
06
06
fc
10
20
00
ENDCHAR
STARTCHAR 537
ENCODING 537
SWIDTH 1000 1000
DWIDTH 7 16
BBX 7 16 0 -3
BITMAP
00
00
7c
c0
c0
e0
70
38
1c
0c
0c
f8
20
40
00
00
ENDCHAR
STARTCHAR 538
ENCODING 538
SWIDTH 1000 1000
DWIDTH 9 16
BBX 9 16 0 -3
BITMAP
0000
0000
ff00
1800
1800
1800
1800
1800
1800
1800
1800
1800
7800
2000
4000
0000
ENDCHAR
STARTCHAR 539
ENCODING 539
SWIDTH 1000 1000
DWIDTH 6 16
BBX 6 16 0 -3
BITMAP
00
00
20
60
f8
60
60
60
60
60
60
60
38
c0
40
80
ENDCHAR
STARTCHAR 540
ENCODING 540
SWIDTH 1000 1000
DWIDTH 8 16
BBX 8 16 0 -3
BITMAP
00
00
00
7c
c6
06
06
1c
66
06
06
06
0c
f0
00
00
ENDCHAR
STARTCHAR 541
ENCODING 541
SWIDTH 1000 1000
DWIDTH 7 16
BBX 7 16 0 -3
BITMAP
00
00
00
00
00
78
cc
0c
18
6c
0c
18
e0
00
00
00
ENDCHAR
STARTCHAR 542
ENCODING 542
SWIDTH 1000 1000
DWIDTH 9 16
BBX 9 16 0 -3
BITMAP
0000
0000
c300
c300
c300
c300
c300
ff00
c300
c300
c300
c300
c300
0000
0000
0000
ENDCHAR
STARTCHAR 543
ENCODING 543
SWIDTH 1000 1000
DWIDTH 8 16
BBX 8 16 0 -3
BITMAP
00
00
c0
c0
c0
fc
c6
c6
c6
c6
c6
c6
c6
00
00
00
ENDCHAR
STARTCHAR 544
ENCODING 544
SWIDTH 1000 1000
DWIDTH 8 16
BBX 8 16 0 -3
BITMAP
00
00
00
bc
c6
c6
c6
c6
c6
c6
c6
c6
c6
06
06
06
ENDCHAR
STARTCHAR 545
ENCODING 545
SWIDTH 1000 1000
DWIDTH 12 16
BBX 12 16 0 -3
BITMAP
0000
0600
0600
0600
7e00
c600
c600
c600
c600
c600
c6c0
c760
7fc0
0200
0000
0000
ENDCHAR
STARTCHAR 546
ENCODING 546
SWIDTH 1000 1000
DWIDTH 8 16
BBX 8 16 0 -3
BITMAP
00
00
00
6c
c6
c6
c6
7c
c6
c6
c6
c6
7c
00
00
00
ENDCHAR
STARTCHAR 547
ENCODING 547
SWIDTH 1000 1000
DWIDTH 8 16
BBX 8 16 0 -3
BITMAP
00
00
00
00
00
00
6c
c6
c6
7c
c6
c6
7c
00
00
00
ENDCHAR
STARTCHAR 548
ENCODING 548
SWIDTH 1000 1000
DWIDTH 8 16
BBX 8 16 0 -3
BITMAP
00
00
fe
06
0c
0c
18
30
30
60
60
c0
fe
02
04
00
ENDCHAR
STARTCHAR 549
ENCODING 549
SWIDTH 1000 1000
DWIDTH 7 16
BBX 7 16 0 -3
BITMAP
00
00
00
00
fc
0c
18
18
30
60
60
c0
fc
04
08
00
ENDCHAR
STARTCHAR 550
ENCODING 550
SWIDTH 1000 1000
DWIDTH 8 16
BBX 8 16 0 -3
BITMAP
00
10
10
00
38
6c
c6
c6
c6
fe
c6
c6
c6
00
00
00
ENDCHAR
STARTCHAR 551
ENCODING 551
SWIDTH 1000 1000
DWIDTH 8 16
BBX 8 16 0 -3
BITMAP
10
10
10
00
7c
06
06
06
7e
c6
c6
c6
7a
00
00
00
ENDCHAR
STARTCHAR 552
ENCODING 552
SWIDTH 1000 1000
DWIDTH 7 16
BBX 7 16 0 -3
BITMAP
00
00
fc
c0
c0
c0
c0
fc
c0
c0
c0
c0
fc
08
30
00
ENDCHAR
STARTCHAR 553
ENCODING 553
SWIDTH 1000 1000
DWIDTH 8 16
BBX 8 16 0 -3
BITMAP
00
00
00
00
7c
c6
c6
c6
fe
c0
c0
c0
7e
10
60
00
ENDCHAR
STARTCHAR 554
ENCODING 554
SWIDTH 1000 1000
DWIDTH 9 16
BBX 9 16 0 -3
BITMAP
7e00
0000
6600
0000
7e00
c300
c300
c300
c300
c300
c300
c300
7e00
0000
0000
0000
ENDCHAR
STARTCHAR 555
ENCODING 555
SWIDTH 1000 1000
DWIDTH 9 16
BBX 9 16 0 -3
BITMAP
7e00
0000
6600
0000
7c00
c600
c600
c600
c600
c600
c600
c600
7c00
0000
0000
0000
ENDCHAR
STARTCHAR 556
ENCODING 556
SWIDTH 1000 1000
DWIDTH 9 16
BBX 9 16 0 -3
BITMAP
0000
fc00
6400
9800
0000
7c00
c600
c600
c600
c600
c600
c600
7c00
0000
0000
0000
ENDCHAR
STARTCHAR 557
ENCODING 557
SWIDTH 1000 1000
DWIDTH 8 16
BBX 8 16 0 -3
BITMAP
00
fc
64
98
00
7c
c6
c6
c6
c6
c6
c6
7c
00
00
00
ENDCHAR
STARTCHAR 558
ENCODING 558
SWIDTH 1000 1000
DWIDTH 9 16
BBX 9 16 0 -3
BITMAP
1800
1800
0000
7e00
c300
c300
c300
c300
c300
c300
c300
c300
7e00
0000
0000
0000
ENDCHAR
STARTCHAR 559
ENCODING 559
SWIDTH 1000 1000
DWIDTH 8 16
BBX 8 16 0 -3
BITMAP
00
30
30
00
7c
c6
c6
c6
c6
c6
c6
c6
7c
00
00
00
ENDCHAR
STARTCHAR 560
ENCODING 560
SWIDTH 1000 1000
DWIDTH 9 16
BBX 9 16 0 -3
BITMAP
3c00
0000
1800
0000
7e00
c300
c300
c300
c300
c300
c300
c300
7e00
0000
0000
0000
ENDCHAR
STARTCHAR 561
ENCODING 561
SWIDTH 1000 1000
DWIDTH 8 16
BBX 8 16 0 -3
BITMAP
78
00
30
00
7c
c6
c6
c6
c6
c6
c6
c6
7c
00
00
00
ENDCHAR
STARTCHAR 562
ENCODING 562
SWIDTH 1000 1000
DWIDTH 9 16
BBX 9 16 0 -3
BITMAP
0000
1800
c300
c300
c300
6600
6600
6600
3c00
1800
1800
1800
1800
0000
0000
0000
ENDCHAR
STARTCHAR 563
ENCODING 563
SWIDTH 1000 1000
DWIDTH 8 16
BBX 8 16 0 -3
BITMAP
00
00
78
00
c6
c6
c6
c6
6c
6c
6c
38
30
30
e0
c0
ENDCHAR
STARTCHAR 564
ENCODING 564
SWIDTH 1000 1000
DWIDTH 8 16
BBX 8 16 0 -3
BITMAP
00
00
00
e0
60
60
60
60
60
60
6c
76
7c
20
00
00
ENDCHAR
STARTCHAR 565
ENCODING 565
SWIDTH 1000 1000
DWIDTH 12 16
BBX 12 16 0 -3
BITMAP
0000
0000
0000
0000
0000
bc00
c600
c600
c600
c600
c6c0
c760
c7c0
0200
0000
0000
ENDCHAR
STARTCHAR 566
ENCODING 566
SWIDTH 1000 1000
DWIDTH 8 16
BBX 8 16 0 -3
BITMAP
00
00
20
60
f8
60
60
60
60
60
60
6c
36
3c
20
00
ENDCHAR
STARTCHAR 567
ENCODING 567
SWIDTH 1000 1000
DWIDTH 5 16
BBX 5 16 0 -3
BITMAP
00
00
f0
60
60
60
60
60
60
60
60
60
60
60
60
c0
ENDCHAR
STARTCHAR 568
ENCODING 568
SWIDTH 1000 1000
DWIDTH 11 16
BBX 11 16 0 -3
BITMAP
0000
0000
0c00
0c00
0c00
0c00
7f80
ccc0
ccc0
ccc0
ccc0
ccc0
7f80
0000
0000
0000
ENDCHAR
STARTCHAR 569
ENCODING 569
SWIDTH 1000 1000
DWIDTH 11 16
BBX 11 16 0 -3
BITMAP
0000
0000
0000
7f80
ccc0
ccc0
ccc0
ccc0
ccc0
7f80
0c00
0c00
0c00
0000
0000
0000
ENDCHAR
STARTCHAR 570
ENCODING 570
SWIDTH 1000 1000
DWIDTH 8 16
BBX 8 16 0 -3
BITMAP
00
00
00
3c
6c
ce
d6
d6
d6
fe
d6
d6
f6
20
20
00
ENDCHAR
STARTCHAR 571
ENCODING 571
SWIDTH 1000 1000
DWIDTH 8 16
BBX 8 16 0 -3
BITMAP
00
00
00
7c
ce
c8
c8
c8
d8
d0
d0
d6
7c
20
20
00
ENDCHAR
STARTCHAR 572
ENCODING 572
SWIDTH 1000 1000
DWIDTH 7 16
BBX 7 16 0 -3
BITMAP
00
00
00
00
08
08
78
d4
d0
d0
d0
d4
78
20
20
00
ENDCHAR
STARTCHAR 573
ENCODING 573
SWIDTH 1000 1000
DWIDTH 8 16
BBX 8 16 0 -3
BITMAP
00
00
00
60
60
60
60
60
f8
60
60
60
7e
00
00
00
ENDCHAR
STARTCHAR 574
ENCODING 574
SWIDTH 1000 1000
DWIDTH 9 16
BBX 9 16 0 -3
BITMAP
0000
0000
0000
ff00
1a00
1a00
1c00
1c00
1c00
3800
3800
3800
5800
4000
0000
0000
ENDCHAR
STARTCHAR 575
ENCODING 575
SWIDTH 1000 1000
DWIDTH 8 16
BBX 8 16 0 -3
BITMAP
00
00
00
7c
c0
c0
f0
70
38
1c
0c
0c
f8
26
1c
00
ENDCHAR
STARTCHAR 576
ENCODING 576
SWIDTH 1000 1000
DWIDTH 9 16
BBX 9 16 0 -3
BITMAP
0000
0000
0000
0000
0000
fc00
0c00
1800
3000
6000
c000
e000
3300
1e00
0000
0000
ENDCHAR
STARTCHAR 577
ENCODING 577
SWIDTH 1000 1000
DWIDTH 8 16
BBX 8 16 0 -3
BITMAP
00
00
00
7c
c6
06
06
06
1c
18
18
18
18
00
00
00
ENDCHAR
STARTCHAR 578
ENCODING 578
SWIDTH 1000 1000
DWIDTH 8 16
BBX 8 16 0 -3
BITMAP
00
00
00
00
00
00
7c
c6
06
06
1c
18
18
00
00
00
ENDCHAR
STARTCHAR 579
ENCODING 579
SWIDTH 1000 1000
DWIDTH 10 16
BBX 10 16 0 -3
BITMAP
0000
0000
7e00
6300
6180
6180
6300
7e00
6300
f980
6180
6300
7e00
0000
0000
0000
ENDCHAR
STARTCHAR 580
ENCODING 580
SWIDTH 1000 1000
DWIDTH 11 16
BBX 11 16 0 -3
BITMAP
0000
0000
0000
6180
6180
6180
6180
ffc0
6180
6180
6180
6180
3f00
0000
0000
0000
ENDCHAR
STARTCHAR 581
ENCODING 581
SWIDTH 1000 1000
DWIDTH 10 16
BBX 10 16 0 -3
BITMAP
0000
0000
0000
0800
1c00
1c00
3600
3600
6300
6300
6300
c180
c180
0000
0000
0000
ENDCHAR
STARTCHAR 582
ENCODING 582
SWIDTH 1000 1000
DWIDTH 7 16
BBX 7 16 0 -3
BITMAP
00
00
fc
c8
c8
c8
c8
fc
d0
d0
d0
d0
fc
20
20
00
ENDCHAR
STARTCHAR 583
ENCODING 583
SWIDTH 1000 1000
DWIDTH 8 16
BBX 8 16 0 -3
BITMAP
00
08
08
7c
d6
d6
d6
fe
d0
d0
d0
7e
20
20
00
00
ENDCHAR
STARTCHAR 584
ENCODING 584
SWIDTH 1000 1000
DWIDTH 5 16
BBX 5 16 0 -3
BITMAP
00
00
f0
60
60
60
f0
60
60
60
60
60
60
60
60
c0
ENDCHAR
STARTCHAR 585
ENCODING 585
SWIDTH 1000 1000
DWIDTH 5 16
BBX 5 16 0 -3
BITMAP
00
60
60
00
60
60
f0
60
60
60
60
60
60
60
60
c0
ENDCHAR
STARTCHAR 586
ENCODING 586
SWIDTH 1000 1000
DWIDTH 12 16
BBX 12 16 0 -3
BITMAP
0000
0000
0000
3b00
6700
c300
c300
c300
c300
c300
c300
6700
3b00
0360
01c0
0000
ENDCHAR
STARTCHAR 587
ENCODING 587
SWIDTH 1000 1000
DWIDTH 10 16
BBX 10 16 0 -3
BITMAP
0000
0000
0000
0000
0000
0000
7c00
cc00
cc00
cc00
cc00
cc00
7c00
0d80
0700
0000
ENDCHAR
STARTCHAR 588
ENCODING 588
SWIDTH 1000 1000
DWIDTH 10 16
BBX 10 16 0 -3
BITMAP
0000
0000
0000
7e00
6300
6100
6100
6200
7e00
e600
6300
6300
6180
6180
0000
0000
ENDCHAR
STARTCHAR 589
ENCODING 589
SWIDTH 1000 1000
DWIDTH 6 16
BBX 6 16 0 -3
BITMAP
00
00
00
58
78
60
60
f8
60
60
60
60
60
00
00
00
ENDCHAR
STARTCHAR 590
ENCODING 590
SWIDTH 1000 1000
DWIDTH 10 16
BBX 10 16 0 -3
BITMAP
0000
0000
0000
c300
ff80
c300
6600
6600
6600
3c00
1800
1800
1800
1800
0000
0000
ENDCHAR
STARTCHAR 591
ENCODING 591
SWIDTH 1000 1000
DWIDTH 10 16
BBX 10 16 0 -3
BITMAP
0000
0000
0000
0000
6300
6300
ff80
6300
3600
3600
3600
1c00
1800
1800
7000
6000
ENDCHAR
STARTCHAR 595
ENCODING 595
SWIDTH 1000 1000
DWIDTH 7 16
BBX 7 16 0 -3
BITMAP
00
00
00
70
d8
c0
f8
cc
cc
cc
cc
cc
f8
00
00
00
ENDCHAR
STARTCHAR 599
ENCODING 599
SWIDTH 1000 1000
DWIDTH 10 16
BBX 10 16 0 -3
BITMAP
0000
0000
0000
0700
0d80
0d80
7c00
cc00
cc00
cc00
cc00
cc00
7c00
0000
0000
0000
ENDCHAR
STARTCHAR 768
ENCODING 768
SWIDTH 1000 1000
DWIDTH 5 16
BBX 5 16 0 -2
BITMAP
60
30
00
00
00
00
00
00
00
00
00
00
00
00
00
00
ENDCHAR
STARTCHAR 769
ENCODING 769
SWIDTH 1000 1000
DWIDTH 5 16
BBX 5 16 0 -2
BITMAP
30
60
00
00
00
00
00
00
00
00
00
00
00
00
00
00
ENDCHAR
STARTCHAR 770
ENCODING 770
SWIDTH 1000 1000
DWIDTH 7 16
BBX 7 16 0 -2
BITMAP
38
6c
00
00
00
00
00
00
00
00
00
00
00
00
00
00
ENDCHAR
STARTCHAR 771
ENCODING 771
SWIDTH 1000 1000
DWIDTH 7 16
BBX 7 16 0 -2
BITMAP
34
58
00
00
00
00
00
00
00
00
00
00
00
00
00
00
ENDCHAR
STARTCHAR 772
ENCODING 772
SWIDTH 1000 1000
DWIDTH 5 16
BBX 5 16 0 -2
BITMAP
00
70
00
00
00
00
00
00
00
00
00
00
00
00
00
00
ENDCHAR
STARTCHAR 773
ENCODING 773
SWIDTH 1000 1000
DWIDTH 7 16
BBX 7 16 0 -2
BITMAP
00
7c
00
00
00
00
00
00
00
00
00
00
00
00
00
00
ENDCHAR
STARTCHAR 774
ENCODING 774
SWIDTH 1000 1000
DWIDTH 7 16
BBX 7 16 0 -2
BITMAP
00
6c
38
00
00
00
00
00
00
00
00
00
00
00
00
00
ENDCHAR
STARTCHAR 775
ENCODING 775
SWIDTH 1000 1000
DWIDTH 3 16
BBX 3 16 0 -2
BITMAP
00
40
00
00
00
00
00
00
00
00
00
00
00
00
00
00
ENDCHAR
STARTCHAR 776
ENCODING 776
SWIDTH 1000 1000
DWIDTH 5 16
BBX 5 16 0 -2
BITMAP
00
50
00
00
00
00
00
00
00
00
00
00
00
00
00
00
ENDCHAR
STARTCHAR 777
ENCODING 777
SWIDTH 1000 1000
DWIDTH 5 16
BBX 5 16 0 -3
BITMAP
60
10
20
00
00
00
00
00
00
00
00
00
00
00
00
00
ENDCHAR
STARTCHAR 778
ENCODING 778
SWIDTH 1000 1000
DWIDTH 6 16
BBX 6 16 0 -2
BITMAP
30
48
30
00
00
00
00
00
00
00
00
00
00
00
00
00
ENDCHAR
STARTCHAR 779
ENCODING 779
SWIDTH 1000 1000
DWIDTH 9 16
BBX 9 16 0 -2
BITMAP
3300
6600
0000
0000
0000
0000
0000
0000
0000
0000
0000
0000
0000
0000
0000
0000
ENDCHAR
STARTCHAR 780
ENCODING 780
SWIDTH 1000 1000
DWIDTH 5 16
BBX 5 16 0 -2
BITMAP
00
50
20
00
00
00
00
00
00
00
00
00
00
00
00
00
ENDCHAR
STARTCHAR 781
ENCODING 781
SWIDTH 1000 1000
DWIDTH 2 16
BBX 2 16 0 -2
BITMAP
00
80
80
00
00
00
00
00
00
00
00
00
00
00
00
00
ENDCHAR
STARTCHAR 782
ENCODING 782
SWIDTH 1000 1000
DWIDTH 5 16
BBX 5 16 0 -2
BITMAP
00
50
50
00
00
00
00
00
00
00
00
00
00
00
00
00
ENDCHAR
STARTCHAR 783
ENCODING 783
SWIDTH 1000 1000
DWIDTH 9 16
BBX 9 16 0 -2
BITMAP
0000
6600
3300
0000
0000
0000
0000
0000
0000
0000
0000
0000
0000
0000
0000
0000
ENDCHAR
STARTCHAR 784
ENCODING 784
SWIDTH 1000 1000
DWIDTH 7 16
BBX 7 16 0 -2
BITMAP
10
44
38
00
00
00
00
00
00
00
00
00
00
00
00
00
ENDCHAR
STARTCHAR 785
ENCODING 785
SWIDTH 1000 1000
DWIDTH 6 16
BBX 6 16 0 -2
BITMAP
30
48
00
00
00
00
00
00
00
00
00
00
00
00
00
00
ENDCHAR
STARTCHAR 786
ENCODING 786
SWIDTH 1000 1000
DWIDTH 4 16
BBX 4 16 0 -2
BITMAP
20
40
60
00
00
00
00
00
00
00
00
00
00
00
00
00
ENDCHAR
STARTCHAR 787
ENCODING 787
SWIDTH 1000 1000
DWIDTH 4 16
BBX 4 16 0 -2
BITMAP
60
20
40
00
00
00
00
00
00
00
00
00
00
00
00
00
ENDCHAR
STARTCHAR 788
ENCODING 788
SWIDTH 1000 1000
DWIDTH 4 16
BBX 4 16 0 -2
BITMAP
60
40
20
00
00
00
00
00
00
00
00
00
00
00
00
00
ENDCHAR
STARTCHAR 789
ENCODING 789
SWIDTH 1000 1000
DWIDTH 4 16
BBX 4 16 0 -2
BITMAP
60
20
40
00
00
00
00
00
00
00
00
00
00
00
00
00
ENDCHAR
STARTCHAR 790
ENCODING 790
SWIDTH 1000 1000
DWIDTH 5 16
BBX 5 16 0 -2
BITMAP
00
00
00
00
00
00
00
00
00
00
00
00
60
30
00
00
ENDCHAR
STARTCHAR 791
ENCODING 791
SWIDTH 1000 1000
DWIDTH 5 16
BBX 5 16 0 -2
BITMAP
00
00
00
00
00
00
00
00
00
00
00
00
30
60
00
00
ENDCHAR
STARTCHAR 792
ENCODING 792
SWIDTH 1000 1000
DWIDTH 4 16
BBX 4 16 0 -2
BITMAP
00
00
00
00
00
00
00
00
00
00
20
60
20
00
00
00
ENDCHAR
STARTCHAR 793
ENCODING 793
SWIDTH 1000 1000
DWIDTH 4 16
BBX 4 16 0 -2
BITMAP
00
00
00
00
00
00
00
00
00
00
00
40
60
40
00
00
ENDCHAR
STARTCHAR 794
ENCODING 794
SWIDTH 1000 1000
DWIDTH 5 16
BBX 5 16 0 -2
BITMAP
70
10
00
00
00
00
00
00
00
00
00
00
00
00
00
00
ENDCHAR
STARTCHAR 795
ENCODING 795
SWIDTH 1000 1000
DWIDTH 4 16
BBX 4 16 0 -2
BITMAP
60
20
40
00
00
00
00
00
00
00
00
00
00
00
00
00
ENDCHAR
STARTCHAR 796
ENCODING 796
SWIDTH 1000 1000
DWIDTH 4 16
BBX 4 16 0 -2
BITMAP
00
00
00
00
00
00
00
00
00
00
00
20
40
40
20
00
ENDCHAR
STARTCHAR 797
ENCODING 797
SWIDTH 1000 1000
DWIDTH 5 16
BBX 5 16 0 -2
BITMAP
00
00
00
00
00
00
00
00
00
00
00
00
20
70
00
00
ENDCHAR
STARTCHAR 798
ENCODING 798
SWIDTH 1000 1000
DWIDTH 5 16
BBX 5 16 0 -2
BITMAP
00
00
00
00
00
00
00
00
00
00
00
00
70
20
00
00
ENDCHAR
STARTCHAR 799
ENCODING 799
SWIDTH 1000 1000
DWIDTH 5 16
BBX 5 16 0 -2
BITMAP
00
00
00
00
00
00
00
00
00
00
00
20
70
20
00
00
ENDCHAR
STARTCHAR 800
ENCODING 800
SWIDTH 1000 1000
DWIDTH 5 16
BBX 5 16 0 -2
BITMAP
00
00
00
00
00
00
00
00
00
00
00
70
00
00
00
00
ENDCHAR
STARTCHAR 801
ENCODING 801
SWIDTH 1000 1000
DWIDTH 4 16
BBX 4 16 0 -2
BITMAP
00
00
00
00
00
00
00
00
00
00
00
20
20
40
00
00
ENDCHAR
STARTCHAR 802
ENCODING 802
SWIDTH 1000 1000
DWIDTH 4 16
BBX 4 16 0 -2
BITMAP
00
00
00
00
00
00
00
00
00
00
00
40
40
20
00
00
ENDCHAR
STARTCHAR 803
ENCODING 803
SWIDTH 1000 1000
DWIDTH 5 16
BBX 5 16 0 -3
BITMAP
00
00
00
00
00
00
00
00
00
00
70
00
70
00
00
00
ENDCHAR
STARTCHAR 804
ENCODING 804
SWIDTH 1000 1000
DWIDTH 6 16
BBX 6 16 0 -2
BITMAP
00
00
00
00
00
00
00
00
00
00
00
00
28
50
00
00
ENDCHAR
STARTCHAR 805
ENCODING 805
SWIDTH 1000 1000
DWIDTH 6 16
BBX 6 16 0 -2
BITMAP
00
00
00
00
00
00
00
00
00
00
00
78
00
00
00
00
ENDCHAR
STARTCHAR 806
ENCODING 806
SWIDTH 1000 1000
DWIDTH 8 16
BBX 8 16 0 -2
BITMAP
00
00
00
00
00
00
00
00
00
00
7e
00
00
00
00
00
ENDCHAR
STARTCHAR 807
ENCODING 807
SWIDTH 1000 1000
DWIDTH 9 16
BBX 9 16 0 -2
BITMAP
0000
0000
0000
0000
0100
0200
0400
0800
1000
2000
4000
0000
0000
0000
0000
0000
ENDCHAR
STARTCHAR 808
ENCODING 808
SWIDTH 1000 1000
DWIDTH 7 16
BBX 7 16 0 -2
BITMAP
00
00
00
04
04
08
08
10
10
20
20
40
40
00
00
00
ENDCHAR
STARTCHAR 809
ENCODING 809
SWIDTH 1000 1000
DWIDTH 4 16
BBX 4 16 0 -2
BITMAP
00
00
00
00
00
00
00
00
00
00
00
40
20
20
40
00
ENDCHAR
STARTCHAR 894
ENCODING 894
SWIDTH 1000 1000
DWIDTH 3 16
BBX 3 16 0 -3
BITMAP
00
00
00
00
00
c0
c0
00
00
c0
c0
40
80
00
00
00
ENDCHAR
STARTCHAR 902
ENCODING 902
SWIDTH 1000 1000
DWIDTH 10 16
BBX 10 16 0 -3
BITMAP
0000
0000
cc00
cc00
9e00
9200
3300
3300
3300
6180
6180
6180
6180
0000
0000
0000
ENDCHAR
STARTCHAR 904
ENCODING 904
SWIDTH 1000 1000
DWIDTH 10 16
BBX 10 16 0 -3
BITMAP
0000
0000
0000
df80
d800
9800
9800
1800
1f80
1800
1800
1800
1f80
0000
0000
0000
ENDCHAR
STARTCHAR 905
ENCODING 905
SWIDTH 1000 1000
DWIDTH 12 16
BBX 12 16 0 -3
BITMAP
0000
0000
d860
d860
9860
9860
1860
1fe0
1860
1860
1860
1860
1860
0000
0000
0000
ENDCHAR
STARTCHAR 906
ENCODING 906
SWIDTH 1000 1000
DWIDTH 7 16
BBX 7 16 0 -3
BITMAP
00
00
dc
d8
98
98
18
18
18
18
18
18
3c
00
00
00
ENDCHAR
STARTCHAR 908
ENCODING 908
SWIDTH 1000 1000
DWIDTH 12 16
BBX 12 16 0 -3
BITMAP
0000
0000
cfc0
d860
9860
9860
1860
1860
1860
1860
1860
1860
0fc0
0000
0000
0000
ENDCHAR
STARTCHAR 910
ENCODING 910
SWIDTH 1000 1000
DWIDTH 12 16
BBX 12 16 0 -3
BITMAP
0000
0000
d860
d860
9860
8cc0
0cc0
0cc0
0780
0300
0300
0300
0300
0000
0000
0000
ENDCHAR
STARTCHAR 911
ENCODING 911
SWIDTH 1000 1000
DWIDTH 12 16
BBX 12 16 0 -3
BITMAP
0000
0000
cf80
d8c0
b060
b060
3060
3060
3060
18c0
0d80
3de0
3de0
0000
0000
0000
ENDCHAR
STARTCHAR 912
ENCODING 912
SWIDTH 1000 1000
DWIDTH 5 16
BBX 5 16 0 -3
BITMAP
00
60
50
00
e0
60
60
60
60
60
60
60
30
00
00
00
ENDCHAR
STARTCHAR 913
ENCODING 913
SWIDTH 1000 1000
DWIDTH 8 16
BBX 8 16 0 -3
BITMAP
00
00
38
6c
c6
c6
c6
c6
fe
c6
c6
c6
c6
00
00
00
ENDCHAR
STARTCHAR 914
ENCODING 914
SWIDTH 1000 1000
DWIDTH 9 16
BBX 9 16 0 -3
BITMAP
0000
0000
fc00
c600
c300
c300
c600
fc00
c600
c300
c300
c600
fc00
0000
0000
0000
ENDCHAR
STARTCHAR 915
ENCODING 915
SWIDTH 1000 1000
DWIDTH 7 16
BBX 7 16 0 -3
BITMAP
00
00
fc
c0
c0
c0
c0
c0
c0
c0
c0
c0
c0
00
00
00
ENDCHAR
STARTCHAR 916
ENCODING 916
SWIDTH 1000 1000
DWIDTH 9 16
BBX 9 16 0 -3
BITMAP
0000
0000
1800
1800
3c00
3c00
6600
6600
6700
c300
c300
ff00
ff00
0000
0000
0000
ENDCHAR
STARTCHAR 917
ENCODING 917
SWIDTH 1000 1000
DWIDTH 7 16
BBX 7 16 0 -3
BITMAP
00
00
fc
c0
c0
c0
c0
fc
c0
c0
c0
c0
fc
00
00
00
ENDCHAR
STARTCHAR 918
ENCODING 918
SWIDTH 1000 1000
DWIDTH 8 16
BBX 8 16 0 -3
BITMAP
00
00
fe
06
0c
0c
18
30
30
60
60
c0
fe
00
00
00
ENDCHAR
STARTCHAR 919
ENCODING 919
SWIDTH 1000 1000
DWIDTH 8 16
BBX 8 16 0 -3
BITMAP
00
00
c6
c6
c6
c6
c6
fe
c6
c6
c6
c6
c6
00
00
00
ENDCHAR
STARTCHAR 920
ENCODING 920
SWIDTH 1000 1000
DWIDTH 9 16
BBX 9 16 0 -3
BITMAP
0000
0000
7e00
c300
c300
c300
df00
fb00
c300
c300
c300
c300
7e00
0000
0000
0000
ENDCHAR
STARTCHAR 921
ENCODING 921
SWIDTH 1000 1000
DWIDTH 5 16
BBX 5 16 0 -3
BITMAP
00
00
f0
60
60
60
60
60
60
60
60
60
f0
00
00
00
ENDCHAR
STARTCHAR 922
ENCODING 922
SWIDTH 1000 1000
DWIDTH 8 16
BBX 8 16 0 -3
BITMAP
00
00
c6
cc
cc
d8
d8
f0
d8
cc
cc
c6
c6
00
00
00
ENDCHAR
STARTCHAR 923
ENCODING 923
SWIDTH 1000 1000
DWIDTH 9 16
BBX 9 16 0 -3
BITMAP
0000
0000
1800
3c00
2400
2400
6600
6600
6600
c300
c300
c300
c300
0000
0000
0000
ENDCHAR
STARTCHAR 924
ENCODING 924
SWIDTH 1000 1000
DWIDTH 10 16
BBX 10 16 0 -3
BITMAP
0000
0000
8080
c180
e380
f780
dd80
c980
c180
c180
c180
c180
c180
0000
0000
0000
ENDCHAR
STARTCHAR 925
ENCODING 925
SWIDTH 1000 1000
DWIDTH 9 16
BBX 9 16 0 -3
BITMAP
0000
0000
8300
c300
e300
f300
d300
db00
cb00
cf00
c700
c300
c100
0000
0000
0000
ENDCHAR
STARTCHAR 926
ENCODING 926
SWIDTH 1000 1000
DWIDTH 8 16
BBX 8 16 0 -3
BITMAP
00
00
fe
fe
00
00
7c
7c
00
00
00
fe
fe
00
00
00
ENDCHAR
STARTCHAR 927
ENCODING 927
SWIDTH 1000 1000
DWIDTH 9 16
BBX 9 16 0 -3
BITMAP
0000
0000
7e00
c300
c300
c300
c300
c300
c300
c300
c300
c300
7e00
0000
0000
0000
ENDCHAR
STARTCHAR 928
ENCODING 928
SWIDTH 1000 1000
DWIDTH 9 16
BBX 9 16 0 -3
BITMAP
0000
0000
ff00
c300
c300
c300
c300
c300
c300
c300
c300
c300
c300
0000
0000
0000
ENDCHAR
STARTCHAR 929
ENCODING 929
SWIDTH 1000 1000
DWIDTH 8 16
BBX 8 16 0 -3
BITMAP
00
00
f8
cc
c6
c6
c6
cc
f8
c0
c0
c0
c0
00
00
00
ENDCHAR
STARTCHAR 931
ENCODING 931
SWIDTH 1000 1000
DWIDTH 8 16
BBX 8 16 0 -3
BITMAP
00
fe
fe
e0
70
38
1c
0c
18
30
60
fe
fe
00
00
00
ENDCHAR
STARTCHAR 932
ENCODING 932
SWIDTH 1000 1000
DWIDTH 9 16
BBX 9 16 0 -3
BITMAP
0000
0000
ff00
1800
1800
1800
1800
1800
1800
1800
1800
1800
1800
0000
0000
0000
ENDCHAR
STARTCHAR 933
ENCODING 933
SWIDTH 1000 1000
DWIDTH 9 16
BBX 9 16 0 -3
BITMAP
0000
0000
c300
c300
c300
6600
6600
6600
3c00
1800
1800
1800
1800
0000
0000
0000
ENDCHAR
STARTCHAR 934
ENCODING 934
SWIDTH 1000 1000
DWIDTH 11 16
BBX 11 16 0 -3
BITMAP
0000
0000
0c00
0c00
7f80
ccc0
ccc0
ccc0
ccc0
ccc0
7f80
0c00
0c00
0000
0000
0000
ENDCHAR
STARTCHAR 935
ENCODING 935
SWIDTH 1000 1000
DWIDTH 9 16
BBX 9 16 0 -3
BITMAP
0000
0000
c300
c300
6600
6600
3c00
1800
3c00
6600
6600
c300
c300
0000
0000
0000
ENDCHAR
STARTCHAR 936
ENCODING 936
SWIDTH 1000 1000
DWIDTH 11 16
BBX 11 16 0 -3
BITMAP
0000
0000
0000
ccc0
ccc0
ccc0
ccc0
ccc0
ccc0
7f80
0c00
0c00
0c00
0000
0000
0000
ENDCHAR
STARTCHAR 937
ENCODING 937
SWIDTH 1000 1000
DWIDTH 10 16
BBX 10 16 0 -3
BITMAP
0000
0000
3e00
6300
c180
c180
c180
c180
c180
6300
3600
f780
f780
0000
0000
0000
ENDCHAR
STARTCHAR 938
ENCODING 938
SWIDTH 1000 1000
DWIDTH 5 16
BBX 5 16 0 -3
BITMAP
00
90
90
00
f0
60
60
60
60
60
60
60
f0
00
00
00
ENDCHAR
STARTCHAR 939
ENCODING 939
SWIDTH 1000 1000
DWIDTH 9 16
BBX 9 16 0 -3
BITMAP
2400
2400
c300
c300
c300
6600
6600
6600
3c00
1800
1800
1800
1800
0000
0000
0000
ENDCHAR
STARTCHAR 940
ENCODING 940
SWIDTH 1000 1000
DWIDTH 9 16
BBX 9 16 0 -3
BITMAP
0000
1800
1800
1000
0000
3b00
6600
c600
c600
c600
c600
6600
3d00
0000
0000
0000
ENDCHAR
STARTCHAR 941
ENCODING 941
SWIDTH 1000 1000
DWIDTH 7 16
BBX 7 16 0 -3
BITMAP
00
00
30
30
20
00
78
cc
c0
78
c0
cc
78
00
00
00
ENDCHAR
STARTCHAR 942
ENCODING 942
SWIDTH 1000 1000
DWIDTH 8 16
BBX 8 16 0 -3
BITMAP
00
30
30
20
00
bc
c6
c6
c6
c6
c6
c6
06
06
06
06
ENDCHAR
STARTCHAR 943
ENCODING 943
SWIDTH 1000 1000
DWIDTH 5 16
BBX 5 16 0 -3
BITMAP
00
00
60
60
40
00
e0
60
60
60
60
60
60
30
00
00
ENDCHAR
STARTCHAR 944
ENCODING 944
SWIDTH 1000 1000
DWIDTH 8 16
BBX 8 16 0 -3
BITMAP
18
5c
54
00
cc
c6
c6
c6
c6
c6
c6
c6
7c
00
00
00
ENDCHAR
STARTCHAR 945
ENCODING 945
SWIDTH 1000 1000
DWIDTH 9 16
BBX 9 16 0 -3
BITMAP
0000
0000
0000
0000
3b00
6600
c600
c600
c600
c600
c600
6600
3b00
0000
0000
0000
ENDCHAR
STARTCHAR 946
ENCODING 946
SWIDTH 1000 1000
DWIDTH 8 16
BBX 8 16 0 -3
BITMAP
00
00
7c
c6
c6
c6
c6
dc
c6
c6
c6
e6
dc
c0
c0
c0
ENDCHAR
STARTCHAR 947
ENCODING 947
SWIDTH 1000 1000
DWIDTH 8 16
BBX 8 16 0 -3
BITMAP
00
c6
c6
c6
c4
6c
68
68
38
30
30
30
30
00
00
00
ENDCHAR
STARTCHAR 948
ENCODING 948
SWIDTH 1000 1000
DWIDTH 8 16
BBX 8 16 0 -3
BITMAP
00
00
3c
66
60
30
78
cc
c6
c6
c6
c6
7c
00
00
00
ENDCHAR
STARTCHAR 949
ENCODING 949
SWIDTH 1000 1000
DWIDTH 7 16
BBX 7 16 0 -3
BITMAP
00
00
00
00
78
cc
c0
c0
78
c0
c0
cc
78
00
00
00
ENDCHAR
STARTCHAR 950
ENCODING 950
SWIDTH 1000 1000
DWIDTH 6 16
BBX 6 16 0 -3
BITMAP
00
f8
18
30
60
60
c0
c0
c0
c0
c0
c0
78
18
30
00
ENDCHAR
STARTCHAR 951
ENCODING 951
SWIDTH 1000 1000
DWIDTH 8 16
BBX 8 16 0 -3
BITMAP
00
00
00
00
bc
c6
c6
c6
c6
c6
c6
c6
c6
06
06
06
ENDCHAR
STARTCHAR 952
ENCODING 952
SWIDTH 1000 1000
DWIDTH 8 16
BBX 8 16 0 -3
BITMAP
00
00
7c
c6
c6
c6
c6
fe
c6
c6
c6
c6
7c
00
00
00
ENDCHAR
STARTCHAR 953
ENCODING 953
SWIDTH 1000 1000
DWIDTH 5 16
BBX 5 16 0 -3
BITMAP
00
00
00
00
00
e0
60
60
60
60
60
60
60
30
00
00
ENDCHAR
STARTCHAR 954
ENCODING 954
SWIDTH 1000 1000
DWIDTH 8 16
BBX 8 16 0 -3
BITMAP
00
00
00
c0
c6
cc
cc
d8
f8
cc
cc
c6
c6
00
00
00
ENDCHAR
STARTCHAR 955
ENCODING 955
SWIDTH 1000 1000
DWIDTH 8 16
BBX 8 16 0 -3
BITMAP
00
00
c0
e0
30
38
68
6c
6c
c6
c6
c6
c6
00
00
00
ENDCHAR
STARTCHAR 956
ENCODING 956
SWIDTH 1000 1000
DWIDTH 8 16
BBX 8 16 0 -3
BITMAP
00
00
00
00
c6
c6
c6
c6
c6
c6
c6
c6
fc
c0
c0
c0
ENDCHAR
STARTCHAR 957
ENCODING 957
SWIDTH 1000 1000
DWIDTH 8 16
BBX 8 16 0 -3
BITMAP
00
00
00
00
c6
c6
c6
c6
cc
cc
d8
78
60
00
00
00
ENDCHAR
STARTCHAR 958
ENCODING 958
SWIDTH 1000 1000
DWIDTH 6 16
BBX 6 16 0 -3
BITMAP
00
00
78
c0
c0
c0
78
c0
c0
c0
c0
c0
78
18
30
00
ENDCHAR
STARTCHAR 959
ENCODING 959
SWIDTH 1000 1000
DWIDTH 8 16
BBX 8 16 0 -3
BITMAP
00
00
00
00
7c
c6
c6
c6
c6
c6
c6
c6
7c
00
00
00
ENDCHAR
STARTCHAR 960
ENCODING 960
SWIDTH 1000 1000
DWIDTH 9 16
BBX 9 16 0 -3
BITMAP
0000
0000
0000
0000
ff00
6600
6600
6600
6600
6600
6600
6600
6300
0000
0000
0000
ENDCHAR
STARTCHAR 961
ENCODING 961
SWIDTH 1000 1000
DWIDTH 8 16
BBX 8 16 0 -3
BITMAP
00
3c
66
c6
c6
c6
c6
c6
e6
dc
c0
c0
c0
c0
00
00
ENDCHAR
STARTCHAR 962
ENCODING 962
SWIDTH 1000 1000
DWIDTH 6 16
BBX 6 16 0 -3
BITMAP
00
00
00
00
78
c0
c0
c0
c0
c0
c0
c0
78
18
30
00
ENDCHAR
STARTCHAR 963
ENCODING 963
SWIDTH 1000 1000
DWIDTH 9 16
BBX 9 16 0 -3
BITMAP
0000
0000
0000
0000
7f00
c400
c600
c600
c600
c600
c600
c600
7c00
0000
0000
0000
ENDCHAR
STARTCHAR 964
ENCODING 964
SWIDTH 1000 1000
DWIDTH 7 16
BBX 7 16 0 -3
BITMAP
00
00
00
00
fc
30
30
30
30
30
30
30
30
18
00
00
ENDCHAR
STARTCHAR 965
ENCODING 965
SWIDTH 1000 1000
DWIDTH 8 16
BBX 8 16 0 -3
BITMAP
00
00
00
00
cc
c6
c6
c6
c6
c6
c6
c6
7c
00
00
00
ENDCHAR
STARTCHAR 966
ENCODING 966
SWIDTH 1000 1000
DWIDTH 11 16
BBX 11 16 0 -3
BITMAP
0000
0000
6780
ccc0
ccc0
ccc0
ccc0
ccc0
ccc0
ccc0
7f80
0c00
0c00
0c00
0000
0000
ENDCHAR
STARTCHAR 967
ENCODING 967
SWIDTH 1000 1000
DWIDTH 8 16
BBX 8 16 0 -3
BITMAP
00
00
c6
c6
6c
6c
38
38
6c
6c
c6
c6
c6
00
00
00
ENDCHAR
STARTCHAR 968
ENCODING 968
SWIDTH 1000 1000
DWIDTH 11 16
BBX 11 16 0 -3
BITMAP
0000
0000
0000
0c00
0c00
ccc0
ccc0
ccc0
ccc0
ccc0
ccc0
ccc0
7f80
0c00
0c00
0c00
ENDCHAR
STARTCHAR 969
ENCODING 969
SWIDTH 1000 1000
DWIDTH 11 16
BBX 11 16 0 -3
BITMAP
0000
0000
0000
0000
6180
c0c0
ccc0
ccc0
ccc0
ccc0
ccc0
dec0
7380
0000
0000
0000
ENDCHAR
STARTCHAR 970
ENCODING 970
SWIDTH 1000 1000
DWIDTH 5 16
BBX 5 16 0 -3
BITMAP
00
00
a0
a0
00
e0
60
60
60
60
60
60
60
30
00
00
ENDCHAR
STARTCHAR 971
ENCODING 971
SWIDTH 1000 1000
DWIDTH 8 16
BBX 8 16 0 -3
BITMAP
00
48
48
00
cc
c6
c6
c6
c6
c6
c6
c6
7c
00
00
00
ENDCHAR
STARTCHAR 972
ENCODING 972
SWIDTH 1000 1000
DWIDTH 9 16
BBX 9 16 0 -3
BITMAP
0000
3000
3000
2000
0000
7c00
c600
c600
c600
c600
c600
c600
7c00
0000
0000
0000
ENDCHAR
STARTCHAR 973
ENCODING 973
SWIDTH 1000 1000
DWIDTH 9 16
BBX 9 16 0 -3
BITMAP
0000
0000
1800
1800
1000
0000
cc00
c600
c600
c600
c600
c600
7c00
0000
0000
0000
ENDCHAR
STARTCHAR 974
ENCODING 974
SWIDTH 1000 1000
DWIDTH 11 16
BBX 11 16 0 -3
BITMAP
0000
0c00
0c00
0800
0000
6180
c0c0
ccc0
ccc0
ccc0
ccc0
ccc0
7f80
3300
0000
0000
ENDCHAR
STARTCHAR 7680
ENCODING 7680
SWIDTH 1000 1000
DWIDTH 8 16
BBX 8 16 0 -3
BITMAP
00
00
00
38
6c
c6
c6
c6
c6
fe
c6
c6
d6
28
10
00
ENDCHAR
STARTCHAR 7681
ENCODING 7681
SWIDTH 1000 1000
DWIDTH 8 16
BBX 8 16 0 -3
BITMAP
00
00
00
00
7c
06
06
06
7e
c6
c6
c6
7a
10
28
10
ENDCHAR
STARTCHAR 7682
ENCODING 7682
SWIDTH 1000 1000
DWIDTH 9 16
BBX 9 16 0 -3
BITMAP
0000
0000
fc00
c600
c300
c300
c600
fc00
c600
c300
c300
c600
fc00
0000
0000
0000
ENDCHAR
STARTCHAR 7683
ENCODING 7683
SWIDTH 1000 1000
DWIDTH 8 16
BBX 8 16 0 -3
BITMAP
00
c0
c0
c0
fc
c6
c6
c6
c6
c6
c6
c6
bc
00
30
30
ENDCHAR
STARTCHAR 7684
ENCODING 7684
SWIDTH 1000 1000
DWIDTH 9 16
BBX 9 16 0 -3
BITMAP
0000
0000
fc00
c600
c300
c300
c600
fc00
c600
c300
c300
c600
fc00
0000
3000
0000
ENDCHAR
STARTCHAR 7685
ENCODING 7685
SWIDTH 1000 1000
DWIDTH 8 16
BBX 8 16 0 -3
BITMAP
00
c0
c0
c0
fc
c6
c6
c6
c6
c6
c6
c6
fc
00
30
00
ENDCHAR
STARTCHAR 7686
ENCODING 7686
SWIDTH 1000 1000
DWIDTH 9 16
BBX 9 16 0 -3
BITMAP
0000
0000
fc00
c600
c300
c300
c600
fc00
c600
c300
c300
c600
fc00
0000
7c00
0000
ENDCHAR
STARTCHAR 7687
ENCODING 7687
SWIDTH 1000 1000
DWIDTH 8 16
BBX 8 16 0 -3
BITMAP
00
c0
c0
c0
fc
c6
c6
c6
c6
c6
c6
c6
fc
00
f8
00
ENDCHAR
STARTCHAR 7688
ENCODING 7688
SWIDTH 1000 1000
DWIDTH 7 16
BBX 7 16 0 -3
BITMAP
00
00
00
7c
c0
c0
c0
c0
c0
c0
c0
c0
7c
08
30
00
ENDCHAR
STARTCHAR 7689
ENCODING 7689
SWIDTH 1000 1000
DWIDTH 7 16
BBX 7 16 0 -3
BITMAP
0c
30
00
7c
c0
c0
c0
c0
c0
c0
c0
c0
7c
10
60
00
ENDCHAR
STARTCHAR 7690
ENCODING 7690
SWIDTH 1000 1000
DWIDTH 9 16
BBX 9 16 0 -3
BITMAP
0000
0000
fc00
c600
c300
c300
c300
c300
c300
c300
c300
c600
fc00
0000
0000
0000
ENDCHAR
STARTCHAR 7691
ENCODING 7691
SWIDTH 1000 1000
DWIDTH 8 16
BBX 8 16 0 -3
BITMAP
00
06
06
06
7e
c6
c6
c6
c6
c6
c6
c6
7e
00
00
00
ENDCHAR
STARTCHAR 7692
ENCODING 7692
SWIDTH 1000 1000
DWIDTH 9 16
BBX 9 16 0 -3
BITMAP
0000
0000
fc00
c600
c300
c300
c300
c300
c300
c300
c300
c600
fc00
0000
3000
0000
ENDCHAR
STARTCHAR 7693
ENCODING 7693
SWIDTH 1000 1000
DWIDTH 8 16
BBX 8 16 0 -3
BITMAP
00
06
06
06
7e
c6
c6
c6
c6
c6
c6
c6
7e
00
30
00
ENDCHAR
STARTCHAR 7694
ENCODING 7694
SWIDTH 1000 1000
DWIDTH 9 16
BBX 9 16 0 -3
BITMAP
0000
0000
fc00
c600
c300
c300
c300
c300
c300
c300
c300
c600
fc00
0000
7c00
0000
ENDCHAR
STARTCHAR 7695
ENCODING 7695
SWIDTH 1000 1000
DWIDTH 8 16
BBX 8 16 0 -3
BITMAP
00
06
06
06
7e
c6
c6
c6
c6
c6
c6
c6
7e
00
7c
00
ENDCHAR
STARTCHAR 7696
ENCODING 7696
SWIDTH 1000 1000
DWIDTH 9 16
BBX 9 16 0 -3
BITMAP
0000
0000
fc00
c600
c300
c300
c300
c300
c300
c300
c300
c600
fc00
1000
2000
0000
ENDCHAR
STARTCHAR 7697
ENCODING 7697
SWIDTH 1000 1000
DWIDTH 8 16
BBX 8 16 0 -3
BITMAP
00
06
06
06
7e
c6
c6
c6
c6
c6
c6
c6
7a
10
20
00
ENDCHAR
STARTCHAR 7698
ENCODING 7698
SWIDTH 1000 1000
DWIDTH 9 16
BBX 9 16 0 -3
BITMAP
0000
0000
fc00
c600
c300
c300
c300
c300
c300
c300
c300
c600
fc00
3800
6c00
0000
ENDCHAR
STARTCHAR 7699
ENCODING 7699
SWIDTH 1000 1000
DWIDTH 8 16
BBX 8 16 0 -3
BITMAP
00
06
06
06
7e
c6
c6
c6
c6
c6
c6
c6
7a
38
6c
00
ENDCHAR
STARTCHAR 7700
ENCODING 7700
SWIDTH 1000 1000
DWIDTH 7 16
BBX 7 16 0 -3
BITMAP
20
10
7c
00
fc
c0
c0
c0
fc
c0
c0
c0
fc
00
00
00
ENDCHAR
STARTCHAR 7701
ENCODING 7701
SWIDTH 1000 1000
DWIDTH 8 16
BBX 8 16 0 -3
BITMAP
20
10
7c
00
7c
c6
c6
c6
fe
c0
c0
c0
7e
00
00
00
ENDCHAR
STARTCHAR 7702
ENCODING 7702
SWIDTH 1000 1000
DWIDTH 7 16
BBX 7 16 0 -3
BITMAP
08
10
7c
00
fc
c0
c0
c0
fc
c0
c0
c0
fc
00
00
00
ENDCHAR
STARTCHAR 7703
ENCODING 7703
SWIDTH 1000 1000
DWIDTH 8 16
BBX 8 16 0 -3
BITMAP
08
10
7c
00
7c
c6
c6
c6
fe
c0
c0
c0
7e
00
00
00
ENDCHAR
STARTCHAR 7704
ENCODING 7704
SWIDTH 1000 1000
DWIDTH 7 16
BBX 7 16 0 -3
BITMAP
00
00
fc
c0
c0
c0
c0
fc
c0
c0
c0
c0
fc
38
6c
00
ENDCHAR
STARTCHAR 7705
ENCODING 7705
SWIDTH 1000 1000
DWIDTH 8 16
BBX 8 16 0 -3
BITMAP
00
00
00
00
7c
c6
c6
c6
fe
c0
c0
c0
7e
38
6c
00
ENDCHAR
STARTCHAR 7706
ENCODING 7706
SWIDTH 1000 1000
DWIDTH 7 16
BBX 7 16 0 -3
BITMAP
00
00
fc
c0
c0
c0
c0
fc
c0
c0
c0
c0
fc
74
b8
00
ENDCHAR
STARTCHAR 7707
ENCODING 7707
SWIDTH 1000 1000
DWIDTH 8 16
BBX 8 16 0 -3
BITMAP
00
00
00
00
7c
c6
c6
c6
fe
c0
c0
c0
7e
74
b8
00
ENDCHAR
STARTCHAR 7708
ENCODING 7708
SWIDTH 1000 1000
DWIDTH 7 16
BBX 7 16 0 -3
BITMAP
00
00
fc
c0
c0
c0
c0
fc
c0
c0
c0
c0
fc
08
30
00
ENDCHAR
STARTCHAR 7709
ENCODING 7709
SWIDTH 1000 1000
DWIDTH 8 16
BBX 8 16 0 -3
BITMAP
00
44
38
00
7c
c6
c6
c6
fe
c0
c0
c0
7e
10
60
00
ENDCHAR
STARTCHAR 7710
ENCODING 7710
SWIDTH 1000 1000
DWIDTH 7 16
BBX 7 16 0 -3
BITMAP
00
00
fc
c0
c0
c0
c0
fc
c0
c0
c0
c0
c0
00
00
00
ENDCHAR
STARTCHAR 7711
ENCODING 7711
SWIDTH 1000 1000
DWIDTH 5 16
BBX 5 16 0 -3
BITMAP
00
00
30
60
60
f0
60
60
60
60
60
60
60
00
00
00
ENDCHAR
STARTCHAR 7712
ENCODING 7712
SWIDTH 1000 1000
DWIDTH 8 16
BBX 8 16 0 -3
BITMAP
3c
00
7e
c0
c0
c0
c0
ce
c6
c6
c6
c6
7a
00
00
00
ENDCHAR
STARTCHAR 7713
ENCODING 7713
SWIDTH 1000 1000
DWIDTH 8 16
BBX 8 16 0 -3
BITMAP
00
00
00
7c
00
7a
c6
c6
c6
c6
c6
c6
7e
06
06
7c
ENDCHAR
STARTCHAR 7714
ENCODING 7714
SWIDTH 1000 1000
DWIDTH 9 16
BBX 9 16 0 -3
BITMAP
0000
0000
c300
c300
c300
c300
c300
ff00
c300
c300
c300
c300
c300
0000
0000
0000
ENDCHAR
STARTCHAR 7715
ENCODING 7715
SWIDTH 1000 1000
DWIDTH 8 16
BBX 8 16 0 -3
BITMAP
00
00
c0
c0
c0
fc
c6
c6
c6
c6
c6
c6
c6
00
00
00
ENDCHAR
STARTCHAR 7716
ENCODING 7716
SWIDTH 1000 1000
DWIDTH 9 16
BBX 9 16 0 -3
BITMAP
0000
0000
c300
c300
c300
c300
c300
ff00
c300
c300
c300
c300
c300
0000
1800
0000
ENDCHAR
STARTCHAR 7717
ENCODING 7717
SWIDTH 1000 1000
DWIDTH 8 16
BBX 8 16 0 -3
BITMAP
00
00
c0
c0
c0
fc
c6
c6
c6
c6
c6
c6
c6
00
38
00
ENDCHAR
STARTCHAR 7718
ENCODING 7718
SWIDTH 1000 1000
DWIDTH 9 16
BBX 9 16 0 -3
BITMAP
0000
0000
c300
c300
c300
c300
c300
ff00
c300
c300
c300
c300
c300
0000
0000
0000
ENDCHAR
STARTCHAR 7719
ENCODING 7719
SWIDTH 1000 1000
DWIDTH 8 16
BBX 8 16 0 -3
BITMAP
00
00
c0
c0
c0
fc
c6
c6
c6
c6
c6
c6
c6
00
00
00
ENDCHAR
STARTCHAR 7720
ENCODING 7720
SWIDTH 1000 1000
DWIDTH 9 16
BBX 9 16 0 -3
BITMAP
0000
0000
c300
c300
c300
c300
c300
ff00
c300
c300
c300
c300
c300
2000
c000
0000
ENDCHAR
STARTCHAR 7721
ENCODING 7721
SWIDTH 1000 1000
DWIDTH 8 16
BBX 8 16 0 -3
BITMAP
00
00
c0
c0
c0
fc
c6
c6
c6
c6
c6
c6
c6
20
c0
00
ENDCHAR
STARTCHAR 7722
ENCODING 7722
SWIDTH 1000 1000
DWIDTH 9 16
BBX 9 16 0 -3
BITMAP
0000
0000
c300
c300
c300
c300
c300
ff00
c300
c300
c300
c300
c300
4400
3800
0000
ENDCHAR
STARTCHAR 7723
ENCODING 7723
SWIDTH 1000 1000
DWIDTH 8 16
BBX 8 16 0 -3
BITMAP
00
00
c0
c0
c0
fc
c6
c6
c6
c6
c6
c6
c6
44
38
00
ENDCHAR
STARTCHAR 7724
ENCODING 7724
SWIDTH 1000 1000
DWIDTH 7 16
BBX 7 16 0 -3
BITMAP
00
00
78
30
30
30
30
30
30
30
30
30
78
74
b8
00
ENDCHAR
STARTCHAR 7725
ENCODING 7725
SWIDTH 1000 1000
DWIDTH 7 16
BBX 7 16 0 -3
BITMAP
00
30
30
00
30
30
30
30
30
30
30
30
30
74
b8
00
ENDCHAR
STARTCHAR 7726
ENCODING 7726
SWIDTH 1000 1000
DWIDTH 7 16
BBX 7 16 0 -3
BITMAP
08
10
cc
00
78
30
30
30
30
30
30
30
78
00
00
00
ENDCHAR
STARTCHAR 7727
ENCODING 7727
SWIDTH 1000 1000
DWIDTH 7 16
BBX 7 16 0 -3
BITMAP
08
10
cc
00
78
30
30
30
30
30
30
30
78
00
00
00
ENDCHAR
STARTCHAR 7728
ENCODING 7728
SWIDTH 1000 1000
DWIDTH 8 16
BBX 8 16 0 -3
BITMAP
00
00
c6
c6
cc
cc
d8
f0
d8
cc
cc
c6
c6
00
00
00
ENDCHAR
STARTCHAR 7729
ENCODING 7729
SWIDTH 1000 1000
DWIDTH 8 16
BBX 8 16 0 -3
BITMAP
00
c0
c0
c0
c6
cc
cc
d8
f0
d8
cc
cc
c6
00
00
00
ENDCHAR
STARTCHAR 7730
ENCODING 7730
SWIDTH 1000 1000
DWIDTH 8 16
BBX 8 16 0 -3
BITMAP
00
00
c6
c6
cc
cc
d8
f0
d8
cc
cc
c6
c6
00
18
00
ENDCHAR
STARTCHAR 7731
ENCODING 7731
SWIDTH 1000 1000
DWIDTH 8 16
BBX 8 16 0 -3
BITMAP
00
c0
c0
c0
c6
cc
cc
d8
d8
f0
dc
cc
c6
00
30
00
ENDCHAR
STARTCHAR 7732
ENCODING 7732
SWIDTH 1000 1000
DWIDTH 8 16
BBX 8 16 0 -3
BITMAP
00
00
c6
c6
cc
cc
d8
f0
d8
cc
cc
c6
c6
00
38
00
ENDCHAR
STARTCHAR 7733
ENCODING 7733
SWIDTH 1000 1000
DWIDTH 8 16
BBX 8 16 0 -3
BITMAP
00
00
c0
c0
c6
cc
cc
d8
f0
d8
cc
cc
c6
00
38
00
ENDCHAR
STARTCHAR 7734
ENCODING 7734
SWIDTH 1000 1000
DWIDTH 7 16
BBX 7 16 0 -3
BITMAP
00
00
00
c0
c0
c0
c0
c0
c0
c0
c0
c0
fc
00
30
00
ENDCHAR
STARTCHAR 7735
ENCODING 7735
SWIDTH 1000 1000
DWIDTH 3 16
BBX 3 16 0 -3
BITMAP
00
00
00
c0
c0
c0
c0
c0
c0
c0
c0
c0
c0
00
c0
00
ENDCHAR
STARTCHAR 7736
ENCODING 7736
SWIDTH 1000 1000
DWIDTH 7 16
BBX 7 16 0 -3
BITMAP
00
00
c0
c0
c0
c0
c0
c0
c0
c0
c0
c0
fc
00
30
00
ENDCHAR
STARTCHAR 7737
ENCODING 7737
SWIDTH 1000 1000
DWIDTH 3 16
BBX 3 16 0 -3
BITMAP
00
00
c0
c0
c0
c0
c0
c0
c0
c0
c0
c0
c0
00
c0
00
ENDCHAR
STARTCHAR 7738
ENCODING 7738
SWIDTH 1000 1000
DWIDTH 7 16
BBX 7 16 0 -3
BITMAP
00
00
c0
c0
c0
c0
c0
c0
c0
c0
c0
c0
fc
00
7c
00
ENDCHAR
STARTCHAR 7739
ENCODING 7739
SWIDTH 1000 1000
DWIDTH 5 16
BBX 5 16 0 -3
BITMAP
00
60
60
60
60
60
60
60
60
60
60
60
00
f0
00
00
ENDCHAR
STARTCHAR 7740
ENCODING 7740
SWIDTH 1000 1000
DWIDTH 7 16
BBX 7 16 0 -3
BITMAP
00
00
00
c0
c0
c0
c0
c0
c0
c0
c0
c0
fc
38
6c
00
ENDCHAR
STARTCHAR 7741
ENCODING 7741
SWIDTH 1000 1000
DWIDTH 6 16
BBX 6 16 0 -3
BITMAP
00
00
30
30
30
30
30
30
30
30
30
30
30
70
d8
00
ENDCHAR
STARTCHAR 7742
ENCODING 7742
SWIDTH 1000 1000
DWIDTH 10 16
BBX 10 16 0 -3
BITMAP
0000
0c00
1800
8080
c180
e380
f780
dd80
c980
c180
c180
c180
c180
0000
0000
0000
ENDCHAR
STARTCHAR 7743
ENCODING 7743
SWIDTH 1000 1000
DWIDTH 11 16
BBX 11 16 0 -3
BITMAP
0000
0600
0c00
0000
bb80
ccc0
ccc0
ccc0
ccc0
ccc0
ccc0
ccc0
ccc0
0000
0000
0000
ENDCHAR
STARTCHAR 7744
ENCODING 7744
SWIDTH 1000 1000
DWIDTH 10 16
BBX 10 16 0 -3
BITMAP
0000
0c00
0c00
8080
c180
e380
f780
dd80
c980
c180
c180
c180
c180
0000
0000
0000
ENDCHAR
STARTCHAR 7745
ENCODING 7745
SWIDTH 1000 1000
DWIDTH 11 16
BBX 11 16 0 -3
BITMAP
0000
1800
1800
0000
bb80
ccc0
ccc0
ccc0
ccc0
ccc0
ccc0
ccc0
ccc0
0000
0000
0000
ENDCHAR
STARTCHAR 7746
ENCODING 7746
SWIDTH 1000 1000
DWIDTH 10 16
BBX 10 16 0 -3
BITMAP
0000
0000
8080
c180
e380
f780
dd80
c980
c180
c180
c180
c180
c180
1c00
0000
0000
ENDCHAR
STARTCHAR 7747
ENCODING 7747
SWIDTH 1000 1000
DWIDTH 11 16
BBX 11 16 0 -3
BITMAP
0000
0000
0000
0000
bb80
ccc0
ccc0
ccc0
ccc0
ccc0
ccc0
ccc0
ccc0
0000
1e00
0000
ENDCHAR
STARTCHAR 7748
ENCODING 7748
SWIDTH 1000 1000
DWIDTH 9 16
BBX 9 16 0 -3
BITMAP
1800
1800
8300
c300
e300
f300
db00
cb00
cf00
c700
c300
c100
0000
0000
0000
0000
ENDCHAR
STARTCHAR 7749
ENCODING 7749
SWIDTH 1000 1000
DWIDTH 8 16
BBX 8 16 0 -3
BITMAP
00
30
30
00
bc
c6
c6
c6
c6
c6
c6
c6
c6
00
00
00
ENDCHAR
STARTCHAR 7750
ENCODING 7750
SWIDTH 1000 1000
DWIDTH 9 16
BBX 9 16 0 -3
BITMAP
0000
0000
8300
c300
c300
e300
f300
db00
cb00
cf00
c700
c300
c100
1800
0000
0000
ENDCHAR
STARTCHAR 7751
ENCODING 7751
SWIDTH 1000 1000
DWIDTH 8 16
BBX 8 16 0 -3
BITMAP
00
00
00
00
bc
c6
c6
c6
c6
c6
c6
c6
c6
00
30
00
ENDCHAR
STARTCHAR 7752
ENCODING 7752
SWIDTH 1000 1000
DWIDTH 9 16
BBX 9 16 0 -3
BITMAP
0000
0000
0000
8300
c300
c300
e300
f300
db00
cb00
cf00
c700
c300
c100
1c00
0000
ENDCHAR
STARTCHAR 7753
ENCODING 7753
SWIDTH 1000 1000
DWIDTH 8 16
BBX 8 16 0 -3
BITMAP
00
00
00
00
bc
c6
c6
c6
c6
c6
c6
c6
c6
00
38
00
ENDCHAR
STARTCHAR 7754
ENCODING 7754
SWIDTH 1000 1000
DWIDTH 9 16
BBX 9 16 0 -3
BITMAP
0000
0000
8300
c300
c300
e300
f300
db00
cb00
cf00
c700
c300
c100
1c00
3600
0000
ENDCHAR
STARTCHAR 7755
ENCODING 7755
SWIDTH 1000 1000
DWIDTH 8 16
BBX 8 16 0 -3
BITMAP
00
00
00
00
bc
c6
c6
c6
c6
c6
c6
c6
c6
00
38
6c
ENDCHAR
STARTCHAR 7756
ENCODING 7756
SWIDTH 1000 1000
DWIDTH 9 16
BBX 9 16 0 -3
BITMAP
0400
3900
4e00
0000
7e00
c300
c300
c300
c300
c300
c300
c300
7e00
0000
0000
0000
ENDCHAR
STARTCHAR 7757
ENCODING 7757
SWIDTH 1000 1000
DWIDTH 8 16
BBX 8 16 0 -3
BITMAP
00
08
72
9c
00
7c
c6
c6
c6
c6
c6
c6
7c
00
00
00
ENDCHAR
STARTCHAR 7758
ENCODING 7758
SWIDTH 1000 1000
DWIDTH 9 16
BBX 9 16 0 -3
BITMAP
3600
0000
6400
9800
7e00
c300
c300
c300
c300
c300
c300
c300
7e00
0000
0000
0000
ENDCHAR
STARTCHAR 7759
ENCODING 7759
SWIDTH 1000 1000
DWIDTH 8 16
BBX 8 16 0 -3
BITMAP
00
6c
00
64
98
7c
c6
c6
c6
c6
c6
c6
7c
00
00
00
ENDCHAR
STARTCHAR 7760
ENCODING 7760
SWIDTH 1000 1000
DWIDTH 9 16
BBX 9 16 0 -3
BITMAP
2000
1000
7c00
0000
7e00
c300
c300
c300
c300
c300
c300
c300
7e00
0000
0000
0000
ENDCHAR
STARTCHAR 7761
ENCODING 7761
SWIDTH 1000 1000
DWIDTH 8 16
BBX 8 16 0 -3
BITMAP
00
20
10
7c
00
7c
c6
c6
c6
c6
c6
c6
7c
00
00
00
ENDCHAR
STARTCHAR 7762
ENCODING 7762
SWIDTH 1000 1000
DWIDTH 9 16
BBX 9 16 0 -3
BITMAP
0800
1000
7c00
0000
7e00
c300
c300
c300
c300
c300
c300
c300
7e00
0000
0000
0000
ENDCHAR
STARTCHAR 7763
ENCODING 7763
SWIDTH 1000 1000
DWIDTH 8 16
BBX 8 16 0 -3
BITMAP
10
20
7c
00
7c
c6
c6
c6
c6
c6
c6
c6
7c
00
00
00
ENDCHAR
STARTCHAR 7764
ENCODING 7764
SWIDTH 1000 1000
DWIDTH 8 16
BBX 8 16 0 -3
BITMAP
30
60
00
f8
cc
c6
c6
c6
cc
f8
c0
c0
c0
c0
00
00
ENDCHAR
STARTCHAR 7765
ENCODING 7765
SWIDTH 1000 1000
DWIDTH 8 16
BBX 8 16 0 -3
BITMAP
30
60
00
bc
c6
c6
c6
c6
c6
c6
fc
c0
c0
c0
00
00
ENDCHAR
STARTCHAR 7766
ENCODING 7766
SWIDTH 1000 1000
DWIDTH 9 16
BBX 9 16 0 -3
BITMAP
3000
3000
0000
fc00
c600
c300
c300
c600
fc00
c000
c000
c000
c000
0000
0000
0000
ENDCHAR
STARTCHAR 7767
ENCODING 7767
SWIDTH 1000 1000
DWIDTH 8 16
BBX 8 16 0 -3
BITMAP
30
30
00
bc
c6
c6
c6
c6
c6
fc
c0
c0
c0
00
00
00
ENDCHAR
STARTCHAR 7768
ENCODING 7768
SWIDTH 1000 1000
DWIDTH 9 16
BBX 9 16 0 -3
BITMAP
1800
0000
fc00
c600
c300
c300
c600
fc00
cc00
c600
c600
c300
c300
0000
0000
0000
ENDCHAR
STARTCHAR 7769
ENCODING 7769
SWIDTH 1000 1000
DWIDTH 5 16
BBX 5 16 0 -3
BITMAP
60
60
00
b0
f0
c0
c0
c0
c0
c0
c0
c0
c0
00
00
00
ENDCHAR
STARTCHAR 7770
ENCODING 7770
SWIDTH 1000 1000
DWIDTH 9 16
BBX 9 16 0 -3
BITMAP
0000
0000
fc00
c600
c300
c300
c600
fc00
cc00
c600
c600
c300
c300
1800
0000
0000
ENDCHAR
STARTCHAR 7771
ENCODING 7771
SWIDTH 1000 1000
DWIDTH 5 16
BBX 5 16 0 -3
BITMAP
00
00
00
00
b0
f0
c0
c0
c0
c0
c0
c0
c0
00
60
00
ENDCHAR
STARTCHAR 7772
ENCODING 7772
SWIDTH 1000 1000
DWIDTH 9 16
BBX 9 16 0 -3
BITMAP
3800
0000
fc00
c600
c300
c300
c600
fc00
cc00
c600
c600
c300
c380
1800
0000
0000
ENDCHAR
STARTCHAR 7773
ENCODING 7773
SWIDTH 1000 1000
DWIDTH 5 16
BBX 5 16 0 -3
BITMAP
00
70
00
b0
f0
c0
c0
c0
c0
c0
c0
c0
c0
00
30
00
ENDCHAR
STARTCHAR 7774
ENCODING 7774
SWIDTH 1000 1000
DWIDTH 9 16
BBX 9 16 0 -3
BITMAP
0000
0000
fc00
c600
c300
c300
c600
fc00
cc00
c600
c600
c300
c300
0000
3c00
0000
ENDCHAR
STARTCHAR 7775
ENCODING 7775
SWIDTH 1000 1000
DWIDTH 5 16
BBX 5 16 0 -3
BITMAP
00
00
00
b0
f0
c0
c0
c0
c0
c0
c0
c0
c0
00
70
00
ENDCHAR
STARTCHAR 7776
ENCODING 7776
SWIDTH 1000 1000
DWIDTH 8 16
BBX 8 16 0 -3
BITMAP
30
00
7e
c0
c0
e0
70
38
1c
0e
06
06
fc
00
00
00
ENDCHAR
STARTCHAR 7777
ENCODING 7777
SWIDTH 1000 1000
DWIDTH 7 16
BBX 7 16 0 -3
BITMAP
30
30
00
7c
c0
c0
e0
70
38
1c
0c
0c
f8
00
00
00
ENDCHAR
STARTCHAR 7778
ENCODING 7778
SWIDTH 1000 1000
DWIDTH 8 16
BBX 8 16 0 -3
BITMAP
00
00
00
7c
c0
c0
e0
78
3c
0e
06
06
7c
00
18
00
ENDCHAR
STARTCHAR 7779
ENCODING 7779
SWIDTH 1000 1000
DWIDTH 7 16
BBX 7 16 0 -3
BITMAP
00
00
00
7c
c0
c0
e0
70
38
1c
0c
0c
f8
00
30
00
ENDCHAR
STARTCHAR 7780
ENCODING 7780
SWIDTH 1000 1000
DWIDTH 8 16
BBX 8 16 0 -3
BITMAP
30
08
10
7e
c0
e0
70
38
1c
0e
06
06
fc
00
00
00
ENDCHAR
STARTCHAR 7781
ENCODING 7781
SWIDTH 1000 1000
DWIDTH 7 16
BBX 7 16 0 -3
BITMAP
30
30
08
10
7c
c0
e0
70
38
1c
0c
0c
f8
00
00
00
ENDCHAR
STARTCHAR 7782
ENCODING 7782
SWIDTH 1000 1000
DWIDTH 8 16
BBX 8 16 0 -3
BITMAP
38
00
28
10
7e
c0
e0
70
38
1c
0e
06
06
fc
00
00
ENDCHAR
STARTCHAR 7783
ENCODING 7783
SWIDTH 1000 1000
DWIDTH 8 16
BBX 8 16 0 -3
BITMAP
1c
00
14
08
3e
60
70
38
1c
0e
06
06
fc
00
00
00
ENDCHAR
STARTCHAR 7784
ENCODING 7784
SWIDTH 1000 1000
DWIDTH 8 16
BBX 8 16 0 -3
BITMAP
18
18
00
7e
c0
e0
70
38
1c
0e
06
06
fc
00
38
00
ENDCHAR
STARTCHAR 7785
ENCODING 7785
SWIDTH 1000 1000
DWIDTH 7 16
BBX 7 16 0 -3
BITMAP
30
30
00
7c
c0
c0
e0
70
38
1c
0c
0c
f8
00
30
00
ENDCHAR
STARTCHAR 7786
ENCODING 7786
SWIDTH 1000 1000
DWIDTH 9 16
BBX 9 16 0 -3
BITMAP
0000
0000
ff00
1800
1800
1800
1800
1800
1800
1800
1800
1800
1800
0000
0000
0000
ENDCHAR
STARTCHAR 7787
ENCODING 7787
SWIDTH 1000 1000
DWIDTH 6 16
BBX 6 16 0 -3
BITMAP
00
00
20
60
f8
60
60
60
60
60
60
60
38
00
00
00
ENDCHAR
STARTCHAR 7788
ENCODING 7788
SWIDTH 1000 1000
DWIDTH 9 16
BBX 9 16 0 -3
BITMAP
0000
0000
ff00
1800
1800
1800
1800
1800
1800
1800
1800
1800
1800
0000
1800
0000
ENDCHAR
STARTCHAR 7789
ENCODING 7789
SWIDTH 1000 1000
DWIDTH 6 16
BBX 6 16 0 -3
BITMAP
00
00
20
60
f8
60
60
60
60
60
60
60
38
00
70
00
ENDCHAR
STARTCHAR 7790
ENCODING 7790
SWIDTH 1000 1000
DWIDTH 9 16
BBX 9 16 0 -3
BITMAP
0000
0000
ff00
1800
1800
1800
1800
1800
1800
1800
1800
1800
1800
0000
3c00
0000
ENDCHAR
STARTCHAR 7791
ENCODING 7791
SWIDTH 1000 1000
DWIDTH 6 16
BBX 6 16 0 -3
BITMAP
00
00
20
60
f8
60
60
60
60
60
60
60
38
00
70
00
ENDCHAR
STARTCHAR 7792
ENCODING 7792
SWIDTH 1000 1000
DWIDTH 9 16
BBX 9 16 0 -3
BITMAP
0000
0000
ff00
1800
1800
1800
1800
1800
1800
1800
1800
1800
1800
1c00
3600
0000
ENDCHAR
STARTCHAR 7793
ENCODING 7793
SWIDTH 1000 1000
DWIDTH 6 16
BBX 6 16 0 -3
BITMAP
00
00
20
60
f8
60
60
60
60
60
60
60
38
70
d8
00
ENDCHAR
STARTCHAR 7794
ENCODING 7794
SWIDTH 1000 1000
DWIDTH 9 16
BBX 9 16 0 -3
BITMAP
0000
0000
0000
c300
c300
c300
c300
c300
c300
c300
c300
c300
7e00
0000
6c00
0000
ENDCHAR
STARTCHAR 7795
ENCODING 7795
SWIDTH 1000 1000
DWIDTH 8 16
BBX 8 16 0 -3
BITMAP
00
00
00
00
c6
c6
c6
c6
c6
c6
c6
c6
7a
00
6c
00
ENDCHAR
STARTCHAR 7796
ENCODING 7796
SWIDTH 1000 1000
DWIDTH 9 16
BBX 9 16 0 -3
BITMAP
0000
0000
0000
c300
c300
c300
c300
c300
c300
c300
c300
c300
7e00
3a00
5c00
0000
ENDCHAR
STARTCHAR 7797
ENCODING 7797
SWIDTH 1000 1000
DWIDTH 8 16
BBX 8 16 0 -3
BITMAP
00
00
00
00
c6
c6
c6
c6
c6
c6
c6
c6
7a
74
b8
00
ENDCHAR
STARTCHAR 7798
ENCODING 7798
SWIDTH 1000 1000
DWIDTH 9 16
BBX 9 16 0 -3
BITMAP
0000
0000
0000
c300
c300
c300
c300
c300
c300
c300
c300
c300
7e00
3800
6c00
0000
ENDCHAR
STARTCHAR 7799
ENCODING 7799
SWIDTH 1000 1000
DWIDTH 8 16
BBX 8 16 0 -3
BITMAP
00
00
00
00
c6
c6
c6
c6
c6
c6
c6
c6
7a
38
6c
00
ENDCHAR
STARTCHAR 7800
ENCODING 7800
SWIDTH 1000 1000
DWIDTH 9 16
BBX 9 16 0 -3
BITMAP
0800
3200
4c00
0000
c300
c300
c300
c300
c300
c300
c300
c300
c300
7e00
0000
0000
ENDCHAR
STARTCHAR 7801
ENCODING 7801
SWIDTH 1000 1000
DWIDTH 8 16
BBX 8 16 0 -3
BITMAP
10
64
98
00
c6
c6
c6
c6
c6
c6
c6
c6
7a
00
00
00
ENDCHAR
STARTCHAR 7802
ENCODING 7802
SWIDTH 1000 1000
DWIDTH 9 16
BBX 9 16 0 -3
BITMAP
6600
0000
7e00
0000
c300
c300
c300
c300
c300
c300
c300
c300
7e00
0000
0000
0000
ENDCHAR
STARTCHAR 7803
ENCODING 7803
SWIDTH 1000 1000
DWIDTH 8 16
BBX 8 16 0 -3
BITMAP
00
6c
00
7c
00
c6
c6
c6
c6
c6
c6
c6
7a
00
00
00
ENDCHAR
STARTCHAR 7804
ENCODING 7804
SWIDTH 1000 1000
DWIDTH 8 16
BBX 8 16 0 -3
BITMAP
3a
5c
00
c6
c6
c6
c6
c6
6c
6c
6c
38
38
00
00
00
ENDCHAR
STARTCHAR 7805
ENCODING 7805
SWIDTH 1000 1000
DWIDTH 8 16
BBX 8 16 0 -3
BITMAP
00
74
b8
00
c6
c6
c6
c6
6c
6c
6c
38
38
00
00
00
ENDCHAR
STARTCHAR 7806
ENCODING 7806
SWIDTH 1000 1000
DWIDTH 8 16
BBX 8 16 0 -3
BITMAP
00
00
c6
c6
c6
c6
c6
c6
6c
6c
6c
38
38
00
38
00
ENDCHAR
STARTCHAR 7807
ENCODING 7807
SWIDTH 1000 1000
DWIDTH 8 16
BBX 8 16 0 -3
BITMAP
00
00
00
00
c6
c6
c6
c6
6c
6c
6c
38
38
00
18
00
ENDCHAR
STARTCHAR 7808
ENCODING 7808
SWIDTH 1000 1000
DWIDTH 11 16
BBX 11 16 0 -3
BITMAP
1800
0c00
0000
ccc0
ccc0
ccc0
ccc0
ccc0
ccc0
4c80
7f80
3300
3300
0000
0000
0000
ENDCHAR
STARTCHAR 7809
ENCODING 7809
SWIDTH 1000 1000
DWIDTH 11 16
BBX 11 16 0 -3
BITMAP
0000
1800
0c00
0000
ccc0
ccc0
ccc0
ccc0
ccc0
ccc0
4c80
7f80
3300
0000
0000
0000
ENDCHAR
STARTCHAR 7810
ENCODING 7810
SWIDTH 1000 1000
DWIDTH 11 16
BBX 11 16 0 -3
BITMAP
0600
0c00
0000
ccc0
ccc0
ccc0
ccc0
ccc0
ccc0
4c80
7f80
3300
3300
0000
0000
0000
ENDCHAR
STARTCHAR 7811
ENCODING 7811
SWIDTH 1000 1000
DWIDTH 11 16
BBX 11 16 0 -3
BITMAP
0000
0600
0c00
0000
ccc0
ccc0
ccc0
ccc0
ccc0
ccc0
4c80
7f80
3300
0000
0000
0000
ENDCHAR
STARTCHAR 7812
ENCODING 7812
SWIDTH 1000 1000
DWIDTH 11 16
BBX 11 16 0 -3
BITMAP
3300
3300
0000
ccc0
ccc0
ccc0
ccc0
ccc0
ccc0
4c80
7f80
3300
3300
0000
0000
0000
ENDCHAR
STARTCHAR 7813
ENCODING 7813
SWIDTH 1000 1000
DWIDTH 11 16
BBX 11 16 0 -3
BITMAP
0000
3300
3300
0000
ccc0
ccc0
ccc0
ccc0
ccc0
ccc0
4c80
7f80
3300
0000
0000
0000
ENDCHAR
STARTCHAR 7814
ENCODING 7814
SWIDTH 1000 1000
DWIDTH 11 16
BBX 11 16 0 -3
BITMAP
0c00
0c00
0000
ccc0
ccc0
ccc0
ccc0
ccc0
ccc0
4c80
7f80
3300
3300
0000
0000
0000
ENDCHAR
STARTCHAR 7815
ENCODING 7815
SWIDTH 1000 1000
DWIDTH 11 16
BBX 11 16 0 -3
BITMAP
0000
0c00
0c00
0000
ccc0
ccc0
ccc0
ccc0
ccc0
ccc0
4c80
7f80
3300
0000
0000
0000
ENDCHAR
STARTCHAR 7816
ENCODING 7816
SWIDTH 1000 1000
DWIDTH 11 16
BBX 11 16 0 -3
BITMAP
0000
0000
ccc0
ccc0
ccc0
ccc0
ccc0
ccc0
4c80
7f80
3300
3300
0000
1e00
0000
0000
ENDCHAR
STARTCHAR 7817
ENCODING 7817
SWIDTH 1000 1000
DWIDTH 11 16
BBX 11 16 0 -3
BITMAP
0000
0000
0000
0000
ccc0
ccc0
ccc0
ccc0
ccc0
ccc0
ccc0
7f80
3300
0000
1e00
0000
ENDCHAR
STARTCHAR 7818
ENCODING 7818
SWIDTH 1000 1000
DWIDTH 9 16
BBX 9 16 0 -3
BITMAP
1800
1800
c300
c300
6600
6600
3c00
1800
3c00
6600
6600
c300
c300
0000
0000
0000
ENDCHAR
STARTCHAR 7819
ENCODING 7819
SWIDTH 1000 1000
DWIDTH 8 16
BBX 8 16 0 -3
BITMAP
00
30
30
00
c6
c6
6c
6c
38
6c
6c
c6
c6
00
00
00
ENDCHAR
STARTCHAR 7820
ENCODING 7820
SWIDTH 1000 1000
DWIDTH 8 16
BBX 8 16 0 -3
BITMAP
00
c6
c6
00
c6
c6
6c
6c
38
6c
6c
c6
c6
00
00
00
ENDCHAR
STARTCHAR 7821
ENCODING 7821
SWIDTH 1000 1000
DWIDTH 8 16
BBX 8 16 0 -3
BITMAP
00
6c
6c
00
c6
c6
6c
6c
38
6c
6c
c6
c6
00
00
00
ENDCHAR
STARTCHAR 7822
ENCODING 7822
SWIDTH 1000 1000
DWIDTH 9 16
BBX 9 16 0 -3
BITMAP
1800
1800
c300
c300
c300
6600
6600
6600
3c00
1800
1800
1800
1800
0000
0000
0000
ENDCHAR
STARTCHAR 7823
ENCODING 7823
SWIDTH 1000 1000
DWIDTH 8 16
BBX 8 16 0 -3
BITMAP
00
30
30
00
c6
c6
c6
c6
6c
6c
6c
38
30
30
e0
c0
ENDCHAR
STARTCHAR 7824
ENCODING 7824
SWIDTH 1000 1000
DWIDTH 8 16
BBX 8 16 0 -3
BITMAP
38
6c
00
fe
0c
0c
18
30
30
60
60
c0
fe
00
00
00
ENDCHAR
STARTCHAR 7825
ENCODING 7825
SWIDTH 1000 1000
DWIDTH 7 16
BBX 7 16 0 -3
BITMAP
00
38
6c
00
fc
0c
18
18
30
60
60
c0
fc
00
00
00
ENDCHAR
STARTCHAR 7826
ENCODING 7826
SWIDTH 1000 1000
DWIDTH 8 16
BBX 8 16 0 -3
BITMAP
00
00
fe
06
0c
0c
18
30
30
60
60
c0
fe
00
18
00
ENDCHAR
STARTCHAR 7827
ENCODING 7827
SWIDTH 1000 1000
DWIDTH 7 16
BBX 7 16 0 -3
BITMAP
00
00
00
00
fc
0c
18
18
30
60
60
c0
fc
00
30
00
ENDCHAR
STARTCHAR 7828
ENCODING 7828
SWIDTH 1000 1000
DWIDTH 8 16
BBX 8 16 0 -3
BITMAP
00
00
fe
06
0c
0c
18
30
30
60
60
c0
fe
00
7c
00
ENDCHAR
STARTCHAR 7829
ENCODING 7829
SWIDTH 1000 1000
DWIDTH 7 16
BBX 7 16 0 -3
BITMAP
00
00
00
00
fc
0c
18
18
30
60
60
c0
fc
00
78
00
ENDCHAR
STARTCHAR 7830
ENCODING 7830
SWIDTH 1000 1000
DWIDTH 8 16
BBX 8 16 0 -3
BITMAP
00
00
c0
c0
c0
fc
c6
c6
c6
c6
c6
c6
c6
00
7c
00
ENDCHAR
STARTCHAR 7831
ENCODING 7831
SWIDTH 1000 1000
DWIDTH 6 16
BBX 6 16 0 -3
BITMAP
00
00
20
60
f8
60
60
60
60
60
60
60
38
00
00
00
ENDCHAR
STARTCHAR 7832
ENCODING 7832
SWIDTH 1000 1000
DWIDTH 11 16
BBX 11 16 0 -3
BITMAP
0c00
1200
0c00
ccc0
ccc0
ccc0
ccc0
ccc0
ccc0
4c80
7f80
3300
3300
0000
0000
0000
ENDCHAR
STARTCHAR 7833
ENCODING 7833
SWIDTH 1000 1000
DWIDTH 8 16
BBX 8 16 0 -3
BITMAP
38
44
38
00
c6
c6
c6
c6
6c
6c
6c
38
30
30
e0
c0
ENDCHAR
STARTCHAR 7834
ENCODING 7834
SWIDTH 1000 1000
DWIDTH 8 16
BBX 8 16 0 -3
BITMAP
10
08
10
00
7c
06
06
06
7e
c6
c6
c6
7a
00
00
00
ENDCHAR
STARTCHAR 7835
ENCODING 7835
SWIDTH 1000 1000
DWIDTH 5 16
BBX 5 16 0 -3
BITMAP
00
30
60
e0
60
60
60
60
60
60
60
60
60
00
00
00
ENDCHAR
STARTCHAR 7836
ENCODING 7836
SWIDTH 1000 1000
DWIDTH 7 16
BBX 7 16 0 -3
BITMAP
00
18
30
30
70
34
3c
78
f0
b0
30
30
30
00
00
00
ENDCHAR
STARTCHAR 7837
ENCODING 7837
SWIDTH 1000 1000
DWIDTH 6 16
BBX 6 16 0 -3
BITMAP
00
30
60
60
f0
60
e0
60
60
60
60
60
60
00
00
00
ENDCHAR
STARTCHAR 7838
ENCODING 7838
SWIDTH 1000 1000
DWIDTH 10 16
BBX 10 16 0 -3
BITMAP
0000
0000
0000
3e00
6300
c300
c600
ce00
c300
c180
c180
d980
cf00
0000
0000
0000
ENDCHAR
STARTCHAR 7839
ENCODING 7839
SWIDTH 1000 1000
DWIDTH 7 16
BBX 7 16 0 -3
BITMAP
00
00
00
78
cc
c0
78
cc
cc
cc
cc
cc
78
00
00
00
ENDCHAR
STARTCHAR 7840
ENCODING 7840
SWIDTH 1000 1000
DWIDTH 8 16
BBX 8 16 0 -3
BITMAP
00
00
00
38
6c
44
c6
c6
c6
fe
c6
c6
c6
00
38
00
ENDCHAR
STARTCHAR 7841
ENCODING 7841
SWIDTH 1000 1000
DWIDTH 8 16
BBX 8 16 0 -3
BITMAP
00
00
00
00
7c
06
06
06
7e
c6
c6
c6
7a
00
10
00
ENDCHAR
STARTCHAR 7842
ENCODING 7842
SWIDTH 1000 1000
DWIDTH 8 16
BBX 8 16 0 -3
BITMAP
00
18
08
10
00
38
6c
44
c6
c6
fe
c6
c6
c6
00
00
ENDCHAR
STARTCHAR 7843
ENCODING 7843
SWIDTH 1000 1000
DWIDTH 8 16
BBX 8 16 0 -3
BITMAP
00
18
08
10
7c
06
06
06
7e
c6
c6
c6
7a
00
00
00
ENDCHAR
STARTCHAR 7844
ENCODING 7844
SWIDTH 1000 1000
DWIDTH 8 16
BBX 8 16 0 -3
BITMAP
00
22
54
00
38
6c
c6
c6
c6
fe
c6
c6
c6
00
00
00
ENDCHAR
STARTCHAR 7845
ENCODING 7845
SWIDTH 1000 1000
DWIDTH 8 16
BBX 8 16 0 -3
BITMAP
00
22
54
00
7c
06
06
06
7e
c6
c6
c6
7a
00
00
00
ENDCHAR
STARTCHAR 7846
ENCODING 7846
SWIDTH 1000 1000
DWIDTH 8 16
BBX 8 16 0 -3
BITMAP
44
2a
00
38
6c
c6
c6
c6
c6
fe
c6
c6
c6
00
00
00
ENDCHAR
STARTCHAR 7847
ENCODING 7847
SWIDTH 1000 1000
DWIDTH 8 16
BBX 8 16 0 -3
BITMAP
00
88
54
00
7c
06
06
06
7e
c6
c6
c6
7a
00
00
00
ENDCHAR
STARTCHAR 7848
ENCODING 7848
SWIDTH 1000 1000
DWIDTH 8 16
BBX 8 16 0 -3
BITMAP
24
52
04
38
6c
c6
c6
c6
c6
fe
c6
c6
c6
00
00
00
ENDCHAR
STARTCHAR 7849
ENCODING 7849
SWIDTH 1000 1000
DWIDTH 8 16
BBX 8 16 0 -3
BITMAP
04
42
a4
00
7c
06
06
06
7e
c6
c6
c6
7a
00
00
00
ENDCHAR
STARTCHAR 7850
ENCODING 7850
SWIDTH 1000 1000
DWIDTH 8 16
BBX 8 16 0 -3
BITMAP
64
98
20
38
6c
c6
c6
c6
c6
fe
c6
c6
c6
00
00
00
ENDCHAR
STARTCHAR 7851
ENCODING 7851
SWIDTH 1000 1000
DWIDTH 8 16
BBX 8 16 0 -3
BITMAP
64
98
20
7c
06
06
06
7e
c6
c6
c6
7a
00
00
00
00
ENDCHAR
STARTCHAR 7852
ENCODING 7852
SWIDTH 1000 1000
DWIDTH 8 16
BBX 8 16 0 -3
BITMAP
10
28
00
38
6c
c6
c6
c6
c6
fe
c6
c6
c6
00
10
00
ENDCHAR
STARTCHAR 7853
ENCODING 7853
SWIDTH 1000 1000
DWIDTH 8 16
BBX 8 16 0 -3
BITMAP
00
10
28
00
7c
06
06
06
7e
c6
c6
c6
7a
00
10
00
ENDCHAR
STARTCHAR 7854
ENCODING 7854
SWIDTH 1000 1000
DWIDTH 8 16
BBX 8 16 0 -3
BITMAP
10
a4
78
00
38
6c
c6
c6
c6
fe
c6
c6
c6
00
00
00
ENDCHAR
STARTCHAR 7855
ENCODING 7855
SWIDTH 1000 1000
DWIDTH 8 16
BBX 8 16 0 -3
BITMAP
10
a4
78
00
7c
06
06
06
7e
c6
c6
c6
7a
00
00
00
ENDCHAR
STARTCHAR 7856
ENCODING 7856
SWIDTH 1000 1000
DWIDTH 8 16
BBX 8 16 0 -3
BITMAP
20
94
78
00
38
6c
c6
c6
c6
fe
c6
c6
c6
00
00
00
ENDCHAR
STARTCHAR 7857
ENCODING 7857
SWIDTH 1000 1000
DWIDTH 8 16
BBX 8 16 0 -3
BITMAP
20
94
78
00
7c
06
06
06
7e
c6
c6
c6
7a
00
00
00
ENDCHAR
STARTCHAR 7858
ENCODING 7858
SWIDTH 1000 1000
DWIDTH 8 16
BBX 8 16 0 -3
BITMAP
30
94
78
00
38
6c
c6
c6
c6
fe
c6
c6
c6
00
00
00
ENDCHAR
STARTCHAR 7859
ENCODING 7859
SWIDTH 1000 1000
DWIDTH 8 16
BBX 8 16 0 -3
BITMAP
60
10
20
84
78
04
06
06
7e
c6
c6
c6
7a
00
00
00
ENDCHAR
STARTCHAR 7860
ENCODING 7860
SWIDTH 1000 1000
DWIDTH 8 16
BBX 8 16 0 -3
BITMAP
00
32
4c
00
38
6c
c6
c6
c6
fe
c6
c6
c6
00
00
00
ENDCHAR
STARTCHAR 7861
ENCODING 7861
SWIDTH 1000 1000
DWIDTH 8 16
BBX 8 16 0 -3
BITMAP
64
98
00
82
7c
06
06
06
7e
c6
c6
c6
7a
00
00
00
ENDCHAR
STARTCHAR 7862
ENCODING 7862
SWIDTH 1000 1000
DWIDTH 8 16
BBX 8 16 0 -3
BITMAP
00
24
18
00
38
6c
c6
c6
c6
fe
c6
c6
c6
00
38
00
ENDCHAR
STARTCHAR 7863
ENCODING 7863
SWIDTH 1000 1000
DWIDTH 8 16
BBX 8 16 0 -3
BITMAP
00
48
30
00
7c
06
06
06
7e
c6
c6
c6
7a
00
38
00
ENDCHAR
STARTCHAR 7864
ENCODING 7864
SWIDTH 1000 1000
DWIDTH 7 16
BBX 7 16 0 -3
BITMAP
00
00
fc
c0
c0
c0
c0
fc
c0
c0
c0
c0
fc
00
30
00
ENDCHAR
STARTCHAR 7865
ENCODING 7865
SWIDTH 1000 1000
DWIDTH 8 16
BBX 8 16 0 -3
BITMAP
00
00
00
00
7c
c6
c6
c6
fe
c0
c0
c0
7e
00
38
00
ENDCHAR
STARTCHAR 7866
ENCODING 7866
SWIDTH 1000 1000
DWIDTH 7 16
BBX 7 16 0 -3
BITMAP
30
08
10
fc
c0
c0
c0
fc
c0
c0
c0
c0
fc
00
00
00
ENDCHAR
STARTCHAR 7867
ENCODING 7867
SWIDTH 1000 1000
DWIDTH 8 16
BBX 8 16 0 -3
BITMAP
00
18
04
08
7c
c6
c6
c6
fe
c0
c0
c0
7e
00
00
00
ENDCHAR
STARTCHAR 7868
ENCODING 7868
SWIDTH 1000 1000
DWIDTH 8 16
BBX 8 16 0 -3
BITMAP
34
58
00
fc
c0
c0
c0
fc
c0
c0
c0
c0
fc
00
00
00
ENDCHAR
STARTCHAR 7869
ENCODING 7869
SWIDTH 1000 1000
DWIDTH 8 16
BBX 8 16 0 -3
BITMAP
00
32
4c
00
7c
c6
c6
c6
fe
c0
c0
c0
7e
00
00
00
ENDCHAR
STARTCHAR 7870
ENCODING 7870
SWIDTH 1000 1000
DWIDTH 7 16
BBX 7 16 0 -3
BITMAP
44
a8
00
fc
c0
c0
c0
c0
fc
c0
c0
c0
fc
00
00
00
ENDCHAR
STARTCHAR 7871
ENCODING 7871
SWIDTH 1000 1000
DWIDTH 8 16
BBX 8 16 0 -3
BITMAP
00
44
a8
00
7c
c6
c6
c6
fe
c0
c0
c0
7e
00
00
00
ENDCHAR
STARTCHAR 7872
ENCODING 7872
SWIDTH 1000 1000
DWIDTH 7 16
BBX 7 16 0 -3
BITMAP
00
88
54
00
fc
c0
c0
c0
fc
c0
c0
c0
fc
00
00
00
ENDCHAR
STARTCHAR 7873
ENCODING 7873
SWIDTH 1000 1000
DWIDTH 8 16
BBX 8 16 0 -3
BITMAP
00
88
54
00
7c
c6
c6
c6
fe
c0
c0
c0
7e
00
00
00
ENDCHAR
STARTCHAR 7874
ENCODING 7874
SWIDTH 1000 1000
DWIDTH 7 16
BBX 7 16 0 -3
BITMAP
44
a8
00
fc
c0
c0
c0
fc
c0
c0
c0
c0
fc
00
00
00
ENDCHAR
STARTCHAR 7875
ENCODING 7875
SWIDTH 1000 1000
DWIDTH 8 16
BBX 8 16 0 -3
BITMAP
00
44
a8
00
78
c6
c6
c6
fe
c0
c0
c0
7e
00
00
00
ENDCHAR
STARTCHAR 7876
ENCODING 7876
SWIDTH 1000 1000
DWIDTH 8 16
BBX 8 16 0 -3
BITMAP
62
9c
28
00
fc
c0
c0
c0
fc
c0
c0
c0
fc
00
00
00
ENDCHAR
STARTCHAR 7877
ENCODING 7877
SWIDTH 1000 1000
DWIDTH 8 16
BBX 8 16 0 -3
BITMAP
62
9c
28
00
7c
c6
c6
c6
fe
c0
c0
c0
7e
00
00
00
ENDCHAR
STARTCHAR 7878
ENCODING 7878
SWIDTH 1000 1000
DWIDTH 7 16
BBX 7 16 0 -3
BITMAP
10
28
00
fc
c0
c0
c0
fc
c0
c0
c0
c0
fc
00
10
00
ENDCHAR
STARTCHAR 7879
ENCODING 7879
SWIDTH 1000 1000
DWIDTH 8 16
BBX 8 16 0 -3
BITMAP
00
10
28
00
7c
c6
c6
c6
fe
c0
c0
c0
7e
00
18
00
ENDCHAR
STARTCHAR 7880
ENCODING 7880
SWIDTH 1000 1000
DWIDTH 3 16
BBX 3 16 0 -3
BITMAP
00
80
c0
c0
c0
c0
c0
c0
c0
c0
c0
c0
c0
00
00
00
ENDCHAR
STARTCHAR 7881
ENCODING 7881
SWIDTH 1000 1000
DWIDTH 3 16
BBX 3 16 0 -3
BITMAP
00
c0
40
80
c0
c0
c0
c0
c0
c0
c0
c0
c0
00
00
00
ENDCHAR
STARTCHAR 7882
ENCODING 7882
SWIDTH 1000 1000
DWIDTH 5 16
BBX 5 16 0 -3
BITMAP
00
00
f0
60
60
60
60
60
60
60
60
60
f0
00
60
00
ENDCHAR
STARTCHAR 7883
ENCODING 7883
SWIDTH 1000 1000
DWIDTH 3 16
BBX 3 16 0 -3
BITMAP
00
c0
c0
00
c0
c0
c0
c0
c0
c0
c0
c0
c0
00
c0
00
ENDCHAR
STARTCHAR 7884
ENCODING 7884
SWIDTH 1000 1000
DWIDTH 9 16
BBX 9 16 0 -3
BITMAP
0000
0000
0000
7e00
c300
c300
c300
c300
c300
c300
c300
c300
7e00
0000
1000
0000
ENDCHAR
STARTCHAR 7885
ENCODING 7885
SWIDTH 1000 1000
DWIDTH 8 16
BBX 8 16 0 -3
BITMAP
00
00
00
00
7c
c6
c6
c6
c6
c6
c6
c6
7c
00
10
00
ENDCHAR
STARTCHAR 7886
ENCODING 7886
SWIDTH 1000 1000
DWIDTH 9 16
BBX 9 16 0 -3
BITMAP
1800
0400
0800
7e00
c300
c300
c300
c300
c300
c300
c300
c300
7e00
0000
0000
0000
ENDCHAR
STARTCHAR 7887
ENCODING 7887
SWIDTH 1000 1000
DWIDTH 8 16
BBX 8 16 0 -3
BITMAP
00
30
08
10
7c
c6
c6
c6
c6
c6
c6
c6
7c
00
00
00
ENDCHAR
STARTCHAR 7888
ENCODING 7888
SWIDTH 1000 1000
DWIDTH 9 16
BBX 9 16 0 -3
BITMAP
2200
5400
0000
7e00
c300
c300
c300
c300
c300
c300
c300
c300
7e00
0000
0000
0000
ENDCHAR
STARTCHAR 7889
ENCODING 7889
SWIDTH 1000 1000
DWIDTH 8 16
BBX 8 16 0 -3
BITMAP
00
44
a8
00
7c
c6
c6
c6
c6
c6
c6
c6
7c
00
00
00
ENDCHAR
STARTCHAR 7890
ENCODING 7890
SWIDTH 1000 1000
DWIDTH 9 16
BBX 9 16 0 -3
BITMAP
4400
2a00
0000
7e00
c300
c300
c300
c300
c300
c300
c300
c300
7e00
0000
0000
0000
ENDCHAR
STARTCHAR 7891
ENCODING 7891
SWIDTH 1000 1000
DWIDTH 8 16
BBX 8 16 0 -3
BITMAP
00
88
54
00
7c
c6
c6
c6
c6
c6
c6
c6
7c
00
00
00
ENDCHAR
STARTCHAR 7892
ENCODING 7892
SWIDTH 1000 1000
DWIDTH 9 16
BBX 9 16 0 -3
BITMAP
0600
2100
5200
0000
7e00
c300
c300
c300
c300
c300
c300
c300
7e00
0000
0000
0000
ENDCHAR
STARTCHAR 7893
ENCODING 7893
SWIDTH 1000 1000
DWIDTH 9 16
BBX 9 16 0 -3
BITMAP
0600
2100
5200
0000
7c00
c600
c600
c600
c600
c600
c600
c600
7c00
0000
0000
0000
ENDCHAR
STARTCHAR 7894
ENCODING 7894
SWIDTH 1000 1000
DWIDTH 9 16
BBX 9 16 0 -3
BITMAP
3200
4c00
1400
0000
7e00
c300
c300
c300
c300
c300
c300
c300
7e00
0000
0000
0000
ENDCHAR
STARTCHAR 7895
ENCODING 7895
SWIDTH 1000 1000
DWIDTH 8 16
BBX 8 16 0 -3
BITMAP
00
64
98
28
00
7c
c6
c6
c6
c6
c6
c6
7c
00
00
00
ENDCHAR
STARTCHAR 7896
ENCODING 7896
SWIDTH 1000 1000
DWIDTH 9 16
BBX 9 16 0 -3
BITMAP
1000
2800
0000
7e00
c300
c300
c300
c300
c300
c300
c300
c300
7e00
0000
1000
0000
ENDCHAR
STARTCHAR 7897
ENCODING 7897
SWIDTH 1000 1000
DWIDTH 8 16
BBX 8 16 0 -3
BITMAP
00
10
28
00
7c
c6
c6
c6
c6
c6
c6
c6
7c
00
10
00
ENDCHAR
STARTCHAR 7898
ENCODING 7898
SWIDTH 1000 1000
DWIDTH 11 16
BBX 11 16 0 -3
BITMAP
0600
0c00
0000
7e40
c340
c380
c300
c300
c300
c300
c300
c300
7e00
0000
0800
0000
ENDCHAR
STARTCHAR 7899
ENCODING 7899
SWIDTH 1000 1000
DWIDTH 11 16
BBX 11 16 0 -3
BITMAP
0000
0400
0800
0000
7e40
c340
c380
c300
c300
c300
c300
c300
7e00
0000
0000
0000
ENDCHAR
STARTCHAR 7900
ENCODING 7900
SWIDTH 1000 1000
DWIDTH 11 16
BBX 11 16 0 -3
BITMAP
3000
1800
0000
7e40
c340
c380
c300
c300
c300
c300
c300
c300
7e00
0000
0000
0000
ENDCHAR
STARTCHAR 7901
ENCODING 7901
SWIDTH 1000 1000
DWIDTH 10 16
BBX 10 16 0 -3
BITMAP
0000
2000
1000
0000
7c80
c680
c700
c600
c600
c600
c600
c600
7c00
0000
0000
0000
ENDCHAR
STARTCHAR 7902
ENCODING 7902
SWIDTH 1000 1000
DWIDTH 11 16
BBX 11 16 0 -3
BITMAP
1800
0800
1000
7e40
c340
c340
c380
c300
c300
c300
c300
c300
7e00
0000
0000
0000
ENDCHAR
STARTCHAR 7903
ENCODING 7903
SWIDTH 1000 1000
DWIDTH 10 16
BBX 10 16 0 -3
BITMAP
0000
1800
0800
1000
7c80
c680
c700
c600
c600
c600
c600
c600
7c00
0000
0000
0000
ENDCHAR
STARTCHAR 7904
ENCODING 7904
SWIDTH 1000 1000
DWIDTH 11 16
BBX 11 16 0 -3
BITMAP
2400
1200
0000
7e00
c340
c340
c380
c300
c300
c300
c300
c300
7e00
0000
0000
0000
ENDCHAR
STARTCHAR 7905
ENCODING 7905
SWIDTH 1000 1000
DWIDTH 10 16
BBX 10 16 0 -3
BITMAP
0000
1200
2400
0000
7c80
c680
c700
c600
c600
c600
c600
c600
7c00
0000
0000
0000
ENDCHAR
STARTCHAR 7906
ENCODING 7906
SWIDTH 1000 1000
DWIDTH 11 16
BBX 11 16 0 -3
BITMAP
0000
0000
0000
7e40
c340
c380
c300
c300
c300
c300
c300
c300
7e00
0000
1800
0000
ENDCHAR
STARTCHAR 7907
ENCODING 7907
SWIDTH 1000 1000
DWIDTH 10 16
BBX 10 16 0 -3
BITMAP
0000
0000
0000
0000
7c80
c680
c700
c600
c600
c600
c600
c600
7c00
0000
1000
0000
ENDCHAR
STARTCHAR 7908
ENCODING 7908
SWIDTH 1000 1000
DWIDTH 9 16
BBX 9 16 0 -3
BITMAP
0000
0000
0000
c300
c300
c300
c300
c300
c300
c300
c300
c300
7e00
0000
1800
0000
ENDCHAR
STARTCHAR 7909
ENCODING 7909
SWIDTH 1000 1000
DWIDTH 8 16
BBX 8 16 0 -3
BITMAP
00
00
00
00
c6
c6
c6
c6
c6
c6
c6
c6
7a
00
10
00
ENDCHAR
STARTCHAR 7910
ENCODING 7910
SWIDTH 1000 1000
DWIDTH 9 16
BBX 9 16 0 -3
BITMAP
1800
0800
1000
c300
c300
c300
c300
c300
c300
c300
c300
c300
7e00
0000
0000
0000
ENDCHAR
STARTCHAR 7911
ENCODING 7911
SWIDTH 1000 1000
DWIDTH 8 16
BBX 8 16 0 -3
BITMAP
00
30
08
10
c6
c6
c6
c6
c6
c6
c6
c6
7a
00
00
00
ENDCHAR
STARTCHAR 7912
ENCODING 7912
SWIDTH 1000 1000
DWIDTH 11 16
BBX 11 16 0 -3
BITMAP
0c00
1800
0000
c340
c340
c380
c300
c300
c300
c300
c300
c300
7e00
0000
0000
0000
ENDCHAR
STARTCHAR 7913
ENCODING 7913
SWIDTH 1000 1000
DWIDTH 10 16
BBX 10 16 0 -3
BITMAP
0000
0c00
1800
0000
c680
c680
c700
c600
c600
c600
c600
c600
7a00
0000
0000
0000
ENDCHAR
STARTCHAR 7914
ENCODING 7914
SWIDTH 1000 1000
DWIDTH 11 16
BBX 11 16 0 -3
BITMAP
3000
1800
0000
c340
c340
c380
c300
c300
c300
c300
c300
c300
7e00
0000
0000
0000
ENDCHAR
STARTCHAR 7915
ENCODING 7915
SWIDTH 1000 1000
DWIDTH 9 16
BBX 9 16 0 -3
BITMAP
2000
1000
0000
cd00
cd00
ce00
cc00
cc00
cc00
7400
0000
0000
0000
0000
0000
0000
ENDCHAR
STARTCHAR 7916
ENCODING 7916
SWIDTH 1000 1000
DWIDTH 11 16
BBX 11 16 0 -3
BITMAP
0c00
0400
0800
c340
c340
c380
c300
c300
c300
c300
c300
c300
7e00
0000
0000
0000
ENDCHAR
STARTCHAR 7917
ENCODING 7917
SWIDTH 1000 1000
DWIDTH 10 16
BBX 10 16 0 -3
BITMAP
0000
1800
0800
1000
c680
c680
c700
c600
c600
c600
c600
c600
7a00
0000
0000
0000
ENDCHAR
STARTCHAR 7918
ENCODING 7918
SWIDTH 1000 1000
DWIDTH 11 16
BBX 11 16 0 -3
BITMAP
1200
2400
0000
c340
c340
c380
c300
c300
c300
c300
c300
c300
7e00
0000
0000
0000
ENDCHAR
STARTCHAR 7919
ENCODING 7919
SWIDTH 1000 1000
DWIDTH 10 16
BBX 10 16 0 -3
BITMAP
0000
1200
2400
0000
c680
c680
c700
c600
c600
c600
c600
c600
7a00
0000
0000
0000
ENDCHAR
STARTCHAR 7920
ENCODING 7920
SWIDTH 1000 1000
DWIDTH 11 16
BBX 11 16 0 -3
BITMAP
0000
0000
c340
c340
c380
c300
c300
c300
c300
c300
c300
c300
7e00
0000
1800
0000
ENDCHAR
STARTCHAR 7921
ENCODING 7921
SWIDTH 1000 1000
DWIDTH 10 16
BBX 10 16 0 -3
BITMAP
0000
0000
0000
c680
c680
c700
c600
c600
c600
c600
c600
c600
7a00
0000
1000
0000
ENDCHAR
STARTCHAR 7922
ENCODING 7922
SWIDTH 1000 1000
DWIDTH 9 16
BBX 9 16 0 -3
BITMAP
3000
1800
c300
c300
c300
e600
6600
6600
3c00
1800
1800
1800
1800
0000
0000
0000
ENDCHAR
STARTCHAR 7923
ENCODING 7923
SWIDTH 1000 1000
DWIDTH 8 16
BBX 8 16 0 -3
BITMAP
00
00
20
10
c6
c6
c6
c6
6c
6c
6c
38
30
30
e0
c0
ENDCHAR
STARTCHAR 7924
ENCODING 7924
SWIDTH 1000 1000
DWIDTH 9 16
BBX 9 16 0 -3
BITMAP
0000
0000
0000
c300
c300
c300
6600
6600
6600
3c00
1800
1800
1800
0000
1800
0000
ENDCHAR
STARTCHAR 7925
ENCODING 7925
SWIDTH 1000 1000
DWIDTH 8 16
BBX 8 16 0 -3
BITMAP
00
00
00
00
c6
c6
c6
c6
6c
6c
6c
38
30
30
e0
c6
ENDCHAR
STARTCHAR 7926
ENCODING 7926
SWIDTH 1000 1000
DWIDTH 8 16
BBX 8 16 0 -3
BITMAP
30
08
10
86
86
86
cc
cc
cc
78
30
30
30
30
00
00
ENDCHAR
STARTCHAR 7927
ENCODING 7927
SWIDTH 1000 1000
DWIDTH 8 16
BBX 8 16 0 -3
BITMAP
30
08
10
00
c6
c6
c6
c6
6c
6c
6c
38
30
30
e0
c0
ENDCHAR
STARTCHAR 7928
ENCODING 7928
SWIDTH 1000 1000
DWIDTH 8 16
BBX 8 16 0 -3
BITMAP
64
98
00
86
86
86
cc
cc
cc
78
30
30
30
00
00
00
ENDCHAR
STARTCHAR 7929
ENCODING 7929
SWIDTH 1000 1000
DWIDTH 8 16
BBX 8 16 0 -3
BITMAP
00
64
98
00
c6
c6
c6
c6
6c
6c
6c
38
30
30
e0
c0
ENDCHAR
STARTCHAR 7930
ENCODING 7930
SWIDTH 1000 1000
DWIDTH 10 16
BBX 10 16 0 -3
BITMAP
0000
0000
0000
d800
d800
d800
d800
d800
d800
d800
d800
d800
df80
0000
0000
0000
ENDCHAR
STARTCHAR 7931
ENCODING 7931
SWIDTH 1000 1000
DWIDTH 9 16
BBX 9 16 0 -3
BITMAP
0000
0000
0000
ee00
6600
6600
ff00
6600
6600
6600
6600
6600
6600
0000
0000
0000
ENDCHAR
STARTCHAR 7932
ENCODING 7932
SWIDTH 1000 1000
DWIDTH 8 16
BBX 8 16 0 -3
BITMAP
00
00
00
30
60
60
cc
c6
c6
c6
c6
c6
7c
00
00
00
ENDCHAR
STARTCHAR 7933
ENCODING 7933
SWIDTH 1000 1000
DWIDTH 7 16
BBX 7 16 0 -3
BITMAP
00
00
00
30
60
c0
d8
cc
cc
cc
cc
cc
78
00
00
00
ENDCHAR
STARTCHAR 7934
ENCODING 7934
SWIDTH 1000 1000
DWIDTH 8 16
BBX 8 16 0 -3
BITMAP
00
00
00
00
c6
c6
c6
c6
c6
7e
06
76
ce
7c
00
00
ENDCHAR
STARTCHAR 7935
ENCODING 7935
SWIDTH 1000 1000
DWIDTH 7 16
BBX 7 16 0 -3
BITMAP
00
00
00
00
cc
cc
cc
cc
7c
0c
6c
dc
78
00
00
00
ENDCHAR
STARTCHAR 8363
ENCODING 8363
SWIDTH 1000 1000
DWIDTH 8 16
BBX 8 16 0 -3
BITMAP
0c
3e
0c
7c
cc
cc
cc
cc
cc
7c
00
78
00
00
00
00
ENDCHAR
STARTCHAR 8364
ENCODING 8364
SWIDTH 1000 1000
DWIDTH 10 16
BBX 10 16 0 -3
BITMAP
1f00
3180
3000
7e00
3000
fc00
3000
3000
3180
1f00
0000
0000
0000
0000
0000
0000
ENDCHAR
ENDFONT
